<svg width="34" height="34" viewBox="0 0 34 34" fill="none" xmlns="http://www.w3.org/2000/svg">
<rect width="34" height="34" rx="2" fill="#008000" fill-opacity="0.25"/>
<path d="M15.6191 22.2943C15.4588 22.2939 15.3043 22.2329 15.1851 22.123L10.7446 18.027C10.6804 17.9676 10.6283 17.8957 10.5914 17.8155C10.5545 17.7353 10.5336 17.6483 10.5299 17.5597C10.5262 17.4712 10.5397 17.3827 10.5697 17.2995C10.5998 17.2163 10.6456 17.1401 10.7047 17.0754L12.3628 15.2553C12.478 15.1287 12.6367 15.053 12.8053 15.0441C12.974 15.0352 13.1394 15.0939 13.2667 15.2077L15.2251 16.9592L19.6057 11.9285C19.6688 11.8583 19.7454 11.8023 19.8307 11.764C19.916 11.7257 20.0081 11.706 20.1012 11.7061C20.1945 11.7074 20.2864 11.7294 20.3707 11.7704C20.455 11.8113 20.5298 11.8704 20.5898 11.9436L22.1416 13.8357C22.24 13.9559 22.294 14.1079 22.294 14.2648C22.294 14.4218 22.24 14.5737 22.1416 14.6939L16.1159 22.0558C16.0597 22.1245 15.9906 22.1808 15.9127 22.2215C15.8348 22.2621 15.7497 22.2863 15.6625 22.2925C15.649 22.2943 15.6343 22.2943 15.6191 22.2943ZM12.1085 17.4895L15.5518 20.6687L20.7934 14.2659L20.0765 13.3926L15.7688 18.3402C15.6546 18.4713 15.4946 18.551 15.3235 18.5619C15.1524 18.5728 14.984 18.5141 14.8549 18.3984L12.8857 16.6376L12.1085 17.4895Z" fill="#5E3FE3"/>
<path d="M16.9995 27C15.1733 26.9997 13.382 26.4994 11.8199 25.5533C10.2579 24.6072 8.98471 23.2516 8.13849 21.6333C7.29227 20.015 6.90532 18.1959 7.01961 16.3734C7.13389 14.5508 7.74505 12.7943 8.78679 11.2944C8.87873 11.1624 9.01933 11.0723 9.17767 11.044C9.33601 11.0157 9.49911 11.0515 9.6311 11.1434C9.76309 11.2353 9.85314 11.3759 9.88146 11.5343C9.90978 11.6926 9.87403 11.8557 9.78209 11.9877C8.53798 13.7791 8.00487 15.9694 8.28649 18.1322C8.56812 20.295 9.64434 22.2757 11.3057 23.6889C12.9671 25.102 15.0949 25.8466 17.2749 25.7776C19.455 25.7087 21.5315 24.8312 23.1002 23.3159C24.669 21.8006 25.6179 19.7558 25.7623 17.5795C25.9067 15.4033 25.2363 13.2511 23.8815 11.5418C22.5266 9.83252 20.5843 8.68839 18.4325 8.33204C16.2806 7.97569 14.0732 8.43262 12.2396 9.6139C12.1044 9.70107 11.9401 9.73095 11.7829 9.69699C11.6257 9.66303 11.4884 9.56799 11.4012 9.43279C11.314 9.2976 11.2841 9.13331 11.3181 8.97608C11.3521 8.81884 11.4471 8.68154 11.5823 8.59437C12.889 7.75227 14.3741 7.22639 15.9196 7.0585C17.465 6.8906 19.0284 7.08532 20.4855 7.62718C21.9425 8.16904 23.2532 9.04312 24.3134 10.18C25.3737 11.3169 26.1542 12.6854 26.5931 14.1766C27.0321 15.6679 27.1172 17.241 26.8419 18.7709C26.5666 20.3009 25.9384 21.7456 25.0072 22.9903C24.0759 24.2351 22.8673 25.2456 21.4773 25.9416C20.0872 26.6376 18.5541 27 16.9995 27Z" fill="#008000"/>
<path d="M9.89133 10.5295C9.78314 10.5295 9.67745 10.4967 9.58806 10.4353C9.49867 10.3738 9.42972 10.2867 9.39021 10.1852C9.35069 10.0837 9.34245 9.97256 9.36656 9.86627C9.39066 9.75998 9.44599 9.66348 9.52533 9.58936L9.62473 9.49824C9.67705 9.4492 9.73854 9.41116 9.80561 9.38632C9.87267 9.36148 9.94398 9.35035 10.0154 9.35357C10.0867 9.35679 10.1568 9.37431 10.2214 9.40509C10.286 9.43587 10.3438 9.47931 10.3916 9.53287C10.4394 9.58642 10.4761 9.64903 10.4996 9.71702C10.5231 9.78502 10.5329 9.85706 10.5285 9.92893C10.5241 10.0008 10.5055 10.0711 10.4738 10.1356C10.4422 10.2002 10.3981 10.2577 10.3442 10.3049L10.257 10.3852C10.1575 10.478 10.0269 10.5295 9.89133 10.5295Z" fill="#008000"/>
</svg>
