<svg width="65" height="65" viewBox="0 0 65 65" fill="none" xmlns="http://www.w3.org/2000/svg">
<path d="M28.6379 50.0675C28.1234 50.0663 27.6273 49.8639 27.2448 49.4991L12.9887 35.9072C12.7823 35.7102 12.6151 35.4717 12.4967 35.2055C12.3783 34.9393 12.3112 34.6508 12.2993 34.3568C12.2874 34.0628 12.3308 33.7692 12.4272 33.4932C12.5236 33.2173 12.6709 32.9644 12.8605 32.7494L18.1837 26.71C18.5536 26.2899 19.0631 26.0386 19.6046 26.0091C20.146 25.9796 20.6771 26.1743 21.0857 26.5521L27.373 32.3641L41.4368 15.6705C41.6394 15.4376 41.8854 15.2518 42.1593 15.1247C42.4331 14.9977 42.7288 14.9322 43.0278 14.9324C43.3273 14.937 43.6224 15.0097 43.893 15.1457C44.1637 15.2818 44.4036 15.4778 44.5965 15.7207L49.5784 21.9993C49.8944 22.3981 50.0676 22.9023 50.0676 23.4231C50.0676 23.9439 49.8944 24.4481 49.5784 24.847L30.2331 49.2762C30.0526 49.504 29.8307 49.691 29.5806 49.8259C29.3305 49.9608 29.0572 50.041 28.7772 50.0616C28.7341 50.0675 28.6867 50.0675 28.6379 50.0675ZM17.3674 34.1238L28.422 44.6732L45.2498 23.4268L42.9484 20.5289L29.1186 36.9465C28.7521 37.3816 28.2384 37.646 27.6891 37.6822C27.1398 37.7184 26.5991 37.5235 26.1846 37.1398L19.8625 31.2968L17.3674 34.1238Z" fill="#53D86A"/>
<path d="M32.4983 65C26.5631 64.999 20.7414 63.373 15.6648 60.2982C10.5881 57.2235 6.45031 52.8175 3.7001 47.5582C0.949892 42.2988 -0.307704 36.3868 0.0637176 30.4634C0.435139 24.54 2.4214 18.8314 5.80706 13.9567C6.10586 13.5278 6.56283 13.2351 7.07743 13.1431C7.59204 13.0511 8.12212 13.1672 8.55108 13.466C8.98003 13.7648 9.27271 14.2218 9.36474 14.7363C9.45677 15.2509 9.34061 15.781 9.04181 16.2099C4.99843 22.0322 3.26581 29.1505 4.1811 36.1796C5.09639 43.2088 8.5941 49.646 13.9937 54.2388C19.3932 58.8316 26.3084 61.2514 33.3936 61.0273C40.4788 60.8033 47.2272 57.9514 52.3258 53.0266C57.4243 48.1019 60.5083 41.4565 60.9776 34.3835C61.4469 27.3106 59.268 20.316 54.8648 14.7609C50.4616 9.20569 44.1491 5.48727 37.1556 4.32913C30.1621 3.171 22.9878 4.656 17.0288 8.49517C16.5894 8.77846 16.0555 8.8756 15.5444 8.76522C15.0334 8.65483 14.5871 8.34597 14.3039 7.90658C14.0206 7.46719 13.9234 6.93326 14.0338 6.42225C14.1442 5.91124 14.4531 5.46501 14.8925 5.18172C19.1393 2.44487 23.9657 0.73577 28.9886 0.190115C34.0114 -0.355541 39.0923 0.277277 43.8278 2.03832C48.5633 3.79937 52.823 6.64015 56.2687 10.3351C59.7144 14.03 62.2512 18.4774 63.6777 23.324C65.1042 28.1707 65.381 33.2831 64.4863 38.2555C63.5916 43.2278 61.5499 47.9231 58.5233 51.9685C55.4968 56.0139 51.5688 59.2981 47.0511 61.5602C42.5335 63.8223 37.5507 65.0001 32.4983 65Z" fill="#595BD4"/>
<path d="M10.7932 12.2974C10.3893 12.2975 9.9948 12.1749 9.66109 11.9456C9.32738 11.7163 9.06999 11.391 8.92248 11.0121C8.77498 10.6332 8.74421 10.2183 8.83419 9.82151C8.92418 9.42473 9.13074 9.06448 9.42692 8.78777L9.79797 8.4476C9.9933 8.26455 10.2228 8.12252 10.4732 8.02979C10.7236 7.93707 10.9898 7.89551 11.2563 7.90755C11.5227 7.91958 11.7842 7.98496 12.0253 8.09988C12.2664 8.2148 12.4825 8.37695 12.6608 8.57688C12.8391 8.77681 12.9761 9.01051 13.0638 9.26436C13.1515 9.51821 13.1882 9.78712 13.1717 10.0554C13.1553 10.3237 13.0859 10.586 12.9678 10.827C12.8497 11.068 12.6851 11.2829 12.4837 11.4591L12.1582 11.7588C11.7868 12.1052 11.2993 12.2975 10.7932 12.2974Z" fill="#595BD4"/>
</svg>
