<svg width="65" height="41" viewBox="0 0 65 41" fill="none" xmlns="http://www.w3.org/2000/svg">
<rect y="22.673" width="18.7642" height="18.7642" transform="rotate(-47.7488 0 22.673)" fill="#5E3FE3"/>
<path d="M54.4727 30.9165C53.1504 32.2061 51.575 33.2102 49.8364 33.8714C48.0978 34.5327 46.23 34.8383 44.3398 34.7706C42.4495 34.7029 40.5738 34.2634 38.8197 33.4771C37.0655 32.6908 35.4674 31.5731 34.1164 30.1879C32.7654 28.8027 31.6882 27.177 30.946 25.4037C30.2039 23.6304 29.8115 21.7443 29.7912 19.8529C29.771 17.9616 30.1232 16.1021 30.8278 14.3806C31.5324 12.6591 32.5757 11.1093 33.8979 9.81976L44.1853 20.3681L54.4727 30.9165Z" fill="#5E3FE3"/>
</svg>
