<svg width="119" height="38" viewBox="0 0 119 38" fill="none" xmlns="http://www.w3.org/2000/svg">
<g filter="url(#filter0_d_52_5)">
<path d="M4.41406 25.1136L7.55682 6.36364H11.8537L11.4719 8.69851H11.6051C11.8419 8.28421 12.1555 7.88471 12.5462 7.5C12.9427 7.11529 13.4192 6.80161 13.9755 6.55895C14.5318 6.31037 15.1681 6.18608 15.8842 6.18608C16.8312 6.18608 17.6746 6.43466 18.4144 6.93182C19.1542 7.42898 19.6928 8.19543 20.0302 9.23118C20.3675 10.2669 20.4031 11.5868 20.1367 13.1907C19.8822 14.7354 19.4206 16.0286 18.7518 17.0703C18.0889 18.112 17.3017 18.8932 16.3903 19.4141C15.4788 19.9349 14.523 20.1953 13.5227 20.1953C12.8362 20.1953 12.2562 20.0829 11.7827 19.858C11.3151 19.633 10.9452 19.3371 10.6729 18.9702C10.4007 18.6032 10.2113 18.2096 10.1048 17.7894H9.98047L8.77308 25.1136H4.41406ZM10.6729 13.1818C10.5546 13.9157 10.5487 14.5549 10.6552 15.0994C10.7617 15.6439 10.9777 16.0671 11.3033 16.369C11.6347 16.6649 12.0638 16.8129 12.5906 16.8129C13.1232 16.8129 13.5967 16.6649 14.011 16.369C14.4312 16.0671 14.7834 15.6439 15.0675 15.0994C15.3516 14.5549 15.5587 13.9157 15.6889 13.1818C15.8014 12.4479 15.8043 11.8117 15.6978 11.2731C15.5972 10.7345 15.3871 10.3172 15.0675 10.0213C14.7479 9.72538 14.3188 9.57741 13.7802 9.57741C13.2534 9.57741 12.774 9.72242 12.342 10.0124C11.9158 10.3024 11.5607 10.7167 11.2766 11.2553C10.9925 11.7939 10.7913 12.4361 10.6729 13.1818ZM31.0542 14.114L32.3504 6.36364H36.6828L34.4101 20H30.273L30.6903 17.4609H30.5482C30.128 18.2955 29.5095 18.9583 28.6927 19.4496C27.876 19.9349 26.9556 20.1776 25.9317 20.1776C25.0025 20.1776 24.2213 19.9645 23.588 19.5384C22.9547 19.1122 22.5049 18.5174 22.2385 17.7539C21.9781 16.9845 21.9308 16.0849 22.0965 15.055L23.5525 6.36364H27.8937L26.5887 14.2028C26.4762 14.9426 26.5739 15.5256 26.8817 15.9517C27.1953 16.3778 27.6866 16.5909 28.3554 16.5909C28.7874 16.5909 29.1929 16.4962 29.5716 16.3068C29.9504 16.1115 30.27 15.8304 30.5305 15.4634C30.7968 15.0906 30.9714 14.6407 31.0542 14.114ZM37.1733 20L39.446 6.36364H43.663L43.2457 8.84943H43.3878C43.7843 7.94981 44.3022 7.28101 44.9414 6.84304C45.5806 6.39915 46.2731 6.1772 47.0188 6.1772C47.2201 6.1772 47.4213 6.192 47.6225 6.22159C47.8297 6.24526 48.025 6.28078 48.2085 6.32812L47.5692 10.1101C47.368 10.0331 47.1046 9.97692 46.7791 9.94141C46.4536 9.89998 46.1577 9.87926 45.8913 9.87926C45.3764 9.87926 44.897 9.99467 44.4531 10.2255C44.0152 10.4504 43.6423 10.767 43.3345 11.1754C43.0327 11.5779 42.8344 12.0514 42.7397 12.5959L41.5146 20H37.1733ZM53.3265 20.2575C51.9002 20.2575 50.7164 19.9763 49.7754 19.4141C48.8403 18.8459 48.1833 18.038 47.8045 16.9904C47.4257 15.9369 47.3577 14.6851 47.6003 13.2351C47.8371 11.8265 48.3194 10.5954 49.0474 9.5419C49.7813 8.48248 50.7046 7.6598 51.8173 7.07386C52.93 6.48201 54.1699 6.18608 55.5371 6.18608C56.5078 6.18608 57.3689 6.337 58.1206 6.63885C58.8722 6.9407 59.4937 7.39051 59.9849 7.98828C60.4761 8.58014 60.8105 9.30812 60.9881 10.1722C61.1657 11.0363 61.1597 12.0277 60.9703 13.1463L60.8017 14.2294H48.9586L49.3581 11.7081H57.1706C57.2417 11.2464 57.2032 10.8351 57.0552 10.4741C56.9073 10.113 56.6676 9.83191 56.3361 9.63068C56.0106 9.42353 55.6111 9.31996 55.1376 9.31996C54.6582 9.31996 54.2084 9.43241 53.7882 9.65731C53.3739 9.8763 53.0217 10.1722 52.7317 10.5451C52.4417 10.918 52.2523 11.3382 52.1635 11.8058L51.693 14.3892C51.5983 14.9633 51.6249 15.4545 51.7729 15.8629C51.9209 16.2713 52.1754 16.585 52.5364 16.804C52.8974 17.017 53.362 17.1236 53.9302 17.1236C54.309 17.1236 54.6641 17.0733 54.9956 16.9727C55.327 16.8661 55.6229 16.7093 55.8833 16.5021C56.1497 16.2891 56.3657 16.0316 56.5314 15.7298L60.4909 15.8452C60.1713 16.7389 59.6771 17.5172 59.0083 18.18C58.3395 18.837 57.5228 19.349 56.5581 19.7159C55.5993 20.0769 54.5221 20.2575 53.3265 20.2575Z" fill="black"/>
<path d="M62.0512 20L65.0697 1.81818H69.4642L67.0494 16.4311H74.6134L74.0097 20H62.0512ZM76.2846 20L78.5574 6.36364H82.8986L80.6259 20H76.2846ZM81.0343 4.76562C80.4187 4.76562 79.9186 4.56143 79.5339 4.15305C79.1492 3.74467 78.9983 3.25639 79.0811 2.68821C79.164 2.11411 79.454 1.62583 79.9512 1.22337C80.4483 0.820904 81.0017 0.619673 81.6113 0.619673C82.2269 0.619673 82.7211 0.820904 83.0939 1.22337C83.4727 1.62583 83.6207 2.11411 83.5378 2.68821C83.4668 3.25639 83.1827 3.74467 82.6855 4.15305C82.1943 4.56143 81.6439 4.76562 81.0343 4.76562ZM89.0532 12.223L87.757 20H83.4157L85.6885 6.36364H89.8167L89.4083 8.86719H89.5592C89.9854 8.03267 90.6038 7.37867 91.4147 6.90518C92.2255 6.42578 93.137 6.18608 94.1491 6.18608C95.1019 6.18608 95.898 6.39915 96.5372 6.82528C97.1764 7.25142 97.6292 7.84919 97.8955 8.61861C98.1618 9.3821 98.2062 10.2788 98.0287 11.3086L96.5727 20H92.2314L93.5365 12.1609C93.6667 11.4092 93.575 10.8203 93.2613 10.3942C92.9535 9.96212 92.4504 9.74609 91.752 9.74609C91.2963 9.74609 90.8791 9.84671 90.5003 10.0479C90.1274 10.2433 89.8137 10.5244 89.5592 10.8913C89.3106 11.2583 89.142 11.7022 89.0532 12.223ZM103.735 16.4222L104.614 11.2464H105.209L109.878 6.36364H114.797L107.943 13.3594H106.798L103.735 16.4222ZM99.2338 20L102.252 1.81818H106.594L103.575 20H99.2338ZM107.703 20L105.075 14.3359L108.458 11.2553L112.719 20H107.703Z" fill="#5E3FE3"/>
</g>
<defs>
<filter id="filter0_d_52_5" x="0.414062" y="0.619675" width="118.383" height="36.494" filterUnits="userSpaceOnUse" color-interpolation-filters="sRGB">
<feFlood flood-opacity="0" result="BackgroundImageFix"/>
<feColorMatrix in="SourceAlpha" type="matrix" values="0 0 0 0 0 0 0 0 0 0 0 0 0 0 0 0 0 0 127 0" result="hardAlpha"/>
<feOffset dy="8"/>
<feGaussianBlur stdDeviation="2"/>
<feComposite in2="hardAlpha" operator="out"/>
<feColorMatrix type="matrix" values="0 0 0 0 0 0 0 0 0 0 0 0 0 0 0 0 0 0 0.25 0"/>
<feBlend mode="normal" in2="BackgroundImageFix" result="effect1_dropShadow_52_5"/>
<feBlend mode="normal" in="SourceGraphic" in2="effect1_dropShadow_52_5" result="shape"/>
</filter>
</defs>
</svg>
