<svg width="1441" height="295" viewBox="0 0 1441 295" fill="none" xmlns="http://www.w3.org/2000/svg">
<g filter="url(#filter0_b_17_268)">
<rect x="1" y="1" width="1440" height="294" fill="url(#paint0_linear_17_268)"/>
</g>
<path fill-rule="evenodd" clip-rule="evenodd" d="M4.34972 243.924L40.9647 222.974L128.979 223.101L97.2406 244.122L4.34972 243.924ZM2.34358 243.919L38.9562 222.971L0.867188 222.916L0.868634 221.916L40.6995 221.974L80.5549 199.17L2 199.002L2.00214 198.002L82.2962 198.174L119.288 177.009L2 177.002L2.00006 176.002L2.95706 176.002L55.4655 152.002H0V151.002H57.6534L110.328 126.926L1 127.002L0.999306 126.002H1L112.519 125.925L175.265 97.2452L80.4269 97.1133L1 126.002L0.658307 125.062L77.5124 97.1093L0.367188 97.002L0.368577 96.002L80.2513 96.1131L168.962 63.8479L95.561 63.4782L2 96.002L1.67176 95.0574L92.5589 63.4631L1 63.002L1.00503 62.002L95.3946 62.4774L153.656 42.2245L68.826 42.1013L1 62.002L0.71856 61.0424L65.2916 42.0962L0.367188 42.002L0.368638 41.002L68.683 41.1011L200.226 2.50547L200.508 3.46505L72.2175 41.1063L156.521 41.2286L252.945 7.70959L253.273 8.65419L159.554 41.233L230.855 41.3365L323.293 7.71544L323.634 8.65526L233.769 41.3408L297.373 41.4331L378.133 4.52034L378.384 5.48818L299.735 41.4365L356.096 41.5183L428.661 0L429.157 0.868051L358.104 41.5212L403.038 41.5864L454.011 7.82556L454.563 8.65938L404.845 41.5891L477.851 41.695L516.476 10.4706L517.104 11.2484L479.439 41.6973L531.771 41.7733L561.326 10.5616L562.052 11.2493L533.147 41.7753L584.085 41.8492L606.163 8.10836L606.999 8.65604L585.279 41.851L636.251 41.9249L649.064 8.2989L649.999 8.6551L637.32 41.9265L692.97 42.0073L697.853 8.51074L698.843 8.65506L693.98 42.0087L749.239 42.089L744.753 0.977158L745.747 0.868661L750.245 42.0904L801.347 42.1646L785.851 1.22064L786.786 0.866556L802.416 42.1661L858.626 42.2477L832.848 1.40946L833.694 0.87554L859.81 42.2494L924.748 42.3437L889.612 1.52968L890.369 0.877117L926.069 42.3456L988.638 42.4364L942.474 1.62642L943.137 0.87708L990.15 42.4386L1052.33 42.5289L993.383 1.69818L993.952 0.876012L1054.09 42.5314L1125.68 42.6353L1055.3 1.86718L1055.8 1.00179L1127.68 42.6382L1165.53 42.6932L1092.35 6.89945L1092.79 6.00107L1167.82 42.6965L1236.25 42.7958L1136.41 1.92833L1136.79 1.00281L1238.9 42.7997L1301.68 42.8908L1200.72 1.7974L1201.1 0.871141L1304.34 42.8947L1374.79 42.9969L1272.38 0.927025L1272.76 0.0019804L1377.43 43.0008L1439.73 43.0912L1439.73 44.0912L1379.87 44.0043L1440.73 69.002L1440.36 69.8937L1440.36 70.251L1370.69 69.9001L1439.73 98.002L1439.73 98.0034L1439.73 99.0034L1375.99 98.9148L1439.73 125.002L1439.73 125.003L1440.36 125.003L1440.36 126.003L1338.28 126.074L1389.25 151.002H1439.73V152.002H1391.3L1440.54 176.086L1440.73 176.086V176.179L1440.78 176.205L1440.73 176.316L1440.73 177.086L1440.35 177.086L1440.34 177.103L1440.31 177.086L1359.77 177.081L1401.06 200.999L1440.86 201.084L1440.86 202.084L1402.79 202.002L1441 224.135L1440.73 224.606L1440.73 224.999L1440.5 224.999L1440.5 225L1440.5 224.999L1317.28 224.821L1349.01 246.804L1439.73 246.998L1439.73 247.998L1350.46 247.807L1382.5 269.997L1439.73 270L1439.73 271L1383.94 270.997L1415.6 292.921L1440.9 292.918L1440.9 293.918L1274.62 293.935L1273.96 294.673L1273.13 293.935L1142.62 293.948L1141.89 294.576L1141.35 293.948L1018.61 293.961L1017.83 294.458L1017.51 293.961L897.544 293.973L896.76 294.27L896.648 293.973L777.082 293.986L776.725 294.025L776.72 293.986L657.243 293.998L657.242 294.002L657.213 293.998L1.17188 294.064L1.17177 293.064L23.3493 293.062L56.7816 270.919L0.867188 270.916L0.867246 269.916L58.2913 269.919L95.7356 245.119L2.60845 244.92L0.867188 245.916L0.370716 245.048L0.867514 244.764L0.869329 243.916L2.34358 243.919ZM1377.23 44.0005L1306.81 43.8982L1368.2 68.8876L1438.68 69.2425L1377.23 44.0005ZM1304.14 43.8944L1241.35 43.8032L1301.82 68.5532L1365.51 68.874L1304.14 43.8944ZM1238.7 43.7994L1169.87 43.6995L1219.84 68.1404L1299.15 68.5398L1238.7 43.7994ZM1167.58 43.6962L1129.41 43.6408L1171.28 67.8958L1217.54 68.1288L1167.58 43.6962ZM1127.41 43.6379L1055.54 43.5335L1090.12 67.4871L1169.27 67.8857L1127.41 43.6379ZM1053.78 43.531L991.283 43.4403L1018.07 67.1242L1088.35 67.4782L1053.78 43.531ZM989.771 43.4381L926.931 43.3469L947.093 66.7668L1016.56 67.1166L989.771 43.4381ZM925.61 43.345L860.442 43.2504L875.057 66.404L945.767 66.7601L925.61 43.345ZM859.258 43.2486L802.795 43.1667L811.468 66.0837L873.87 66.398L859.258 43.2486ZM801.725 43.1651L750.354 43.0906L752.83 65.7884L810.397 66.0783L801.725 43.1651ZM749.348 43.0891L693.834 43.0085L690.559 65.4748L751.824 65.7833L749.348 43.0891ZM692.824 43.0071L636.94 42.926L628.466 65.1621L689.549 65.4697L692.824 43.0071ZM635.87 42.9244L584.625 42.85L570.218 64.8687L627.398 65.1567L635.87 42.9244ZM583.431 42.8483L532.201 42.7739L511.559 64.5733L569.027 64.8627L583.431 42.8483ZM530.826 42.7719L478.204 42.6956L451.515 64.2709L510.189 64.5664L530.826 42.7719ZM476.616 42.6932L403.338 42.5869L371.209 63.8664L449.934 64.2629L476.616 42.6932ZM401.531 42.5843L356.361 42.5187L319.505 63.606L369.412 63.8574L401.531 42.5843ZM354.353 42.5158L297.554 42.4333L251.975 63.2659L317.509 63.596L354.353 42.5158ZM295.192 42.4299L231.03 42.3368L174.559 62.8761L249.632 63.2542L295.192 42.4299ZM228.116 42.3326L156.689 42.2289L98.3966 62.4925L171.673 62.8615L228.116 42.3326ZM83.1658 96.1171L171.847 63.8624L247.468 64.2433L177.446 96.2482L83.1658 96.1171ZM179.808 96.2515L249.811 64.2551L315.776 64.5873L260.239 96.3633L179.808 96.2515ZM262.248 96.3661L317.772 64.5973L367.914 64.8499L320.207 96.4467L262.248 96.3661ZM322.014 96.4492L369.711 64.8589L448.705 65.2567L409.968 96.5715L322.014 96.4492ZM411.556 96.5737L450.286 65.2647L509.246 65.5616L479.791 96.6686L411.556 96.5737ZM481.166 96.6705L510.617 65.5686L568.374 65.8594L548.153 96.7637L481.166 96.6705ZM549.347 96.7653L569.565 65.8654L627.018 66.1548L615.319 96.8571L549.347 96.7653ZM616.388 96.8585L628.086 66.1602L689.404 66.469L684.959 96.9539L616.388 96.8585ZM685.969 96.9553L690.413 66.4741L751.933 66.7839L755.235 97.0516L685.969 96.9553ZM756.241 97.053L752.939 66.789L810.776 67.0802L822.155 97.1447L756.241 97.053ZM823.224 97.1461L811.848 67.0856L874.504 67.4012L893.341 97.2436L823.224 97.1461ZM894.524 97.2453L875.69 67.4072L946.632 67.7644L972.104 97.3532L894.524 97.2453ZM973.426 97.355L947.957 67.7711L1017.69 68.1223L1050.88 97.4627L973.426 97.355ZM1052.39 97.4648L1019.21 68.13L1089.81 68.4855L1131.81 97.5752L1052.39 97.4648ZM1133.57 97.5777L1091.58 68.4944L1171.01 68.8945L1220.74 97.6989L1133.57 97.5777ZM1222.73 97.7017L1173.02 68.9046L1219.6 69.1392L1278.16 97.7787L1222.73 97.7017ZM1280.44 97.7819L1221.9 69.1508L1301.62 69.5523L1370.89 97.9077L1280.44 97.7819ZM1373.54 97.9113L1304.29 69.5657L1368 69.8866L1437.07 97.9997L1373.54 97.9113ZM1373.34 98.9111L1282.49 98.7847L1336.24 125.075L1437.09 125.005L1373.34 98.9111ZM1280.21 98.7816L1224.47 98.7041L1270.07 125.121L1333.97 125.077L1280.21 98.7816ZM1222.47 98.7013L1135.01 98.5797L1173.43 125.188L1268.08 125.122L1222.47 98.7013ZM1133.25 98.5772L1053.53 98.4664L1083.83 125.25L1171.68 125.189L1133.25 98.5772ZM1052.02 98.4643L974.288 98.3562L997.492 125.31L1082.32 125.251L1052.02 98.4643ZM972.966 98.3544L895.156 98.2462L912.277 125.369L996.173 125.311L972.966 98.3544ZM893.972 98.2445L823.603 98.1467L833.927 125.424L911.095 125.37L893.972 98.2445ZM822.533 98.1452L756.35 98.0532L759.342 125.475L832.858 125.424L822.533 98.1452ZM755.344 98.0518L685.824 97.9551L681.804 125.529L758.336 125.476L755.344 98.0518ZM684.813 97.9537L616.007 97.858L605.443 125.582L680.793 125.53L684.813 97.9537ZM614.938 97.8565L548.693 97.7644L530.457 125.634L604.373 125.583L614.938 97.8565ZM547.499 97.7628L480.221 97.6692L453.69 125.688L529.261 125.635L547.499 97.7628ZM478.845 97.6673L410.321 97.572L375.475 125.742L452.312 125.689L478.845 97.6673ZM408.734 97.5698L320.508 97.4471L277.685 125.81L373.883 125.743L408.734 97.5698ZM318.701 97.4446L260.504 97.3637L210.705 125.856L275.872 125.811L318.701 97.4446ZM258.495 97.3609L177.627 97.2485L114.891 125.923L208.689 125.858L258.495 97.3609ZM60.022 151.002L112.7 126.924L206.939 126.859L164.742 151.002H60.022ZM166.756 151.002L208.955 126.858L274.36 126.812L237.838 151.002H166.756ZM239.649 151.002L276.173 126.811L372.645 126.744L342.637 151.002H239.649ZM344.228 151.002L374.237 126.743L451.364 126.689L428.342 151.002H344.228ZM429.72 151.002L452.742 126.688L528.607 126.636L512.663 151.002H429.72ZM513.858 151.002L529.802 126.635L603.991 126.583L594.687 151.002H513.858ZM595.757 151.002L605.062 126.583L680.647 126.53L677.08 151.002H595.757ZM678.09 151.002L681.658 126.529L758.445 126.476L761.121 151.002H678.09ZM762.127 151.002L759.451 126.475L833.236 126.424L842.538 151.002H762.127ZM843.607 151.002L834.305 126.423L911.726 126.37L927.274 151.002H843.607ZM928.457 151.002L912.908 126.369L997.033 126.31L1018.29 151.002H928.457ZM1019.61 151.002L998.352 126.31L1083.45 126.25L1111.45 151.002H1019.61ZM1112.96 151.002L1084.96 126.249L1173.12 126.188L1208.94 151.002H1112.96ZM1210.7 151.002L1174.87 126.187L1269.8 126.121L1312.75 151.002H1210.7ZM1314.75 151.002L1271.79 126.12L1336.01 126.075L1386.98 151.002H1314.75ZM1389.02 152.002H1316.48L1358.04 176.081L1438.26 176.086L1389.02 152.002ZM1314.48 152.002H1212.14L1246.9 176.075L1356.05 176.081L1314.48 152.002ZM1210.39 152.002H1114.09L1141.31 176.068L1245.14 176.075L1210.39 152.002ZM1112.58 152.002H1020.47L1041.18 176.063L1139.8 176.068L1112.58 152.002ZM1019.15 152.002H929.088L944.272 176.057L1039.86 176.063L1019.15 152.002ZM927.905 152.002H843.986L853.088 176.052L943.089 176.057L927.905 152.002ZM842.916 152.002H762.236L764.859 176.046L852.018 176.052L842.916 152.002ZM761.23 152.002H677.944L674.44 176.041L763.853 176.046L761.23 152.002ZM676.934 152.002H595.376L586.217 176.036L673.429 176.041L676.934 152.002ZM594.305 152.002H513.204L497.481 176.031L585.147 176.036L594.305 152.002ZM512.009 152.002H428.773L406.025 176.026L496.286 176.031L512.009 152.002ZM427.396 152.002H342.991L313.28 176.02L404.648 176.025L427.396 152.002ZM341.4 152.002H238.139L201.885 176.014L311.69 176.02L341.4 152.002ZM236.328 152.002H165.008L123.049 176.009L200.074 176.014L236.328 152.002ZM162.995 152.002L121.036 176.009L5.32543 176.002L57.8342 152.002H162.995ZM84.3024 198.178L121.302 177.009L198.564 177.013L166.344 198.354L84.3024 198.178ZM168.149 198.358L200.375 177.014L310.453 177.02L283.752 198.605L168.149 198.358ZM285.338 198.609L312.044 177.02L403.701 177.025L383.065 198.818L285.338 198.609ZM384.44 198.821L405.078 177.025L495.632 177.031L481.238 199.028L384.44 198.821ZM482.431 199.031L496.827 177.031L584.766 177.036L576.308 199.232L482.431 199.031ZM577.377 199.234L585.836 177.036L673.283 177.041L670.019 199.433L577.377 199.234ZM671.029 199.435L674.294 177.041L763.962 177.046L766.427 199.639L671.029 199.435ZM767.433 199.641L764.968 177.047L852.397 177.052L861.022 199.842L767.433 199.641ZM862.092 199.844L853.466 177.052L943.721 177.057L958.234 200.05L862.092 199.844ZM959.418 200.053L944.903 177.057L1040.72 177.063L1060.7 200.27L959.418 200.053ZM1062.03 200.272L1042.04 177.063L1140.93 177.068L1167.43 200.498L1062.03 200.272ZM1168.95 200.501L1142.44 177.069L1246.59 177.075L1280.75 200.741L1168.95 200.501ZM1282.52 200.745L1248.34 177.075L1357.77 177.081L1399.06 200.994L1282.52 200.745ZM1400.79 201.998L1283.96 201.748L1315.83 223.819L1438.77 223.997L1400.79 201.998ZM1282.2 201.744L1170.08 201.504L1195.13 223.644L1314.07 223.816L1282.2 201.744ZM1168.57 201.501L1062.89 201.274L1082 223.48L1193.61 223.642L1168.57 201.501ZM1061.57 201.271L960.05 201.054L974.108 223.324L1080.68 223.479L1061.57 201.271ZM958.866 201.051L862.471 200.845L870.922 223.175L972.924 223.323L958.866 201.051ZM861.401 200.843L767.543 200.642L769.985 223.029L869.852 223.173L861.401 200.843ZM766.536 200.64L670.883 200.435L667.611 222.881L768.979 223.027L766.536 200.64ZM669.873 200.432L576.997 200.234L568.421 222.737L666.601 222.879L669.873 200.432ZM575.927 200.231L481.778 200.03L467.016 222.591L567.352 222.736L575.927 200.231ZM480.585 200.027L383.495 199.819L362.076 222.439L465.822 222.589L480.585 200.027ZM382.12 199.816L284.104 199.606L256.05 222.285L360.701 222.437L382.12 199.816ZM282.518 199.603L166.644 199.355L132.293 222.106L254.462 222.283L282.518 199.603ZM164.839 199.351L82.5611 199.175L42.7081 221.977L130.486 222.104L164.839 199.351ZM99.0457 244.126L130.786 223.104L253.227 223.281L227.103 244.401L99.0457 244.126ZM228.689 244.404L254.815 223.284L359.755 223.435L339.675 244.642L228.689 244.404ZM341.049 244.645L361.13 223.437L465.168 223.588L451.236 244.881L341.049 244.645ZM452.429 244.883L466.362 223.59L566.971 223.735L558.826 245.111L452.429 244.883ZM559.895 245.113L568.041 223.737L666.455 223.879L663.327 245.335L559.895 245.113ZM664.337 245.337L667.465 223.881L769.088 224.028L771.438 245.566L664.337 245.337ZM772.444 245.569L770.094 224.029L870.231 224.174L878.414 245.796L772.444 245.569ZM879.484 245.798L871.301 224.176L973.556 224.324L987.257 246.029L879.484 245.798ZM988.441 246.031L974.74 224.325L1081.55 224.48L1100.31 246.271L988.441 246.031ZM1101.63 246.274L1082.87 224.482L1194.75 224.644L1219.5 246.526L1101.63 246.274ZM1221.01 246.529L1196.26 224.646L1315.52 224.818L1347.25 246.8L1221.01 246.529ZM97.5407 245.123L60.1021 269.919L195.526 269.927L225.869 245.398L97.5407 245.123ZM227.455 245.401L197.116 269.927L315.725 269.934L338.73 245.64L227.455 245.401ZM340.104 245.643L317.102 269.935L434.838 269.941L450.582 245.879L340.104 245.643ZM451.775 245.882L436.033 269.941L549.361 269.948L558.445 246.11L451.775 245.882ZM559.514 246.113L550.431 269.948L659.737 269.954L663.181 246.335L559.514 246.113ZM664.191 246.337L660.748 269.955L774.099 269.961L771.547 246.567L664.191 246.337ZM772.553 246.569L775.105 269.961L887.562 269.968L878.793 246.796L772.553 246.569ZM879.863 246.799L888.632 269.968L1002.37 269.975L987.889 247.03L879.863 246.799ZM989.073 247.033L1003.55 269.975L1120.72 269.981L1101.17 247.273L989.073 247.033ZM1102.49 247.276L1122.04 269.981L1246.04 269.989L1220.63 247.529L1102.49 247.276ZM1222.15 247.532L1247.55 269.989L1380.74 269.997L1348.7 247.803L1222.15 247.532ZM1248.68 270.989L1382.19 270.997L1413.84 292.921L1273.51 292.935L1248.68 270.989ZM1122.9 270.982L1247.17 270.989L1272 292.935L1141.81 292.948L1122.9 270.982ZM1004.19 270.975L1121.58 270.981L1140.49 292.949L1018.06 292.961L1004.19 270.975ZM889.01 270.968L1003 270.975L1016.88 292.961L897.339 292.973L889.01 270.968ZM775.214 270.961L887.941 270.968L896.269 292.973L777.617 292.985L775.214 270.961ZM660.602 270.955L774.208 270.961L776.611 292.986L657.389 292.998L660.602 270.955ZM550.05 270.948L659.592 270.954L656.378 292.998L541.644 293.009L550.05 270.948ZM435.378 270.941L548.98 270.948L540.574 293.01L420.93 293.022L435.378 270.941ZM316.155 270.934L434.183 270.941L419.735 293.022L295.229 293.035L316.155 270.934ZM195.879 270.927L314.778 270.934L293.851 293.035L168.517 293.047L195.879 270.927ZM58.5924 270.919L194.289 270.927L166.926 293.048L25.1606 293.062L58.5924 270.919Z" fill="url(#paint1_linear_17_268)"/>
<defs>
<filter id="filter0_b_17_268" x="-39" y="-39" width="1520" height="374" filterUnits="userSpaceOnUse" color-interpolation-filters="sRGB">
<feFlood flood-opacity="0" result="BackgroundImageFix"/>
<feGaussianBlur in="BackgroundImageFix" stdDeviation="20"/>
<feComposite in2="SourceAlpha" operator="in" result="effect1_backgroundBlur_17_268"/>
<feBlend mode="normal" in="SourceGraphic" in2="effect1_backgroundBlur_17_268" result="shape"/>
</filter>
<linearGradient id="paint0_linear_17_268" x1="721.5" y1="-41" x2="721.5" y2="345.5" gradientUnits="userSpaceOnUse">
<stop offset="0.0584007" stop-opacity="0"/>
<stop offset="0.4391" stop-color="#AF9FF1" stop-opacity="0.5"/>
<stop offset="1" stop-color="#320DD0"/>
</linearGradient>
<linearGradient id="paint1_linear_17_268" x1="855.5" y1="13.0469" x2="876.304" y2="327.729" gradientUnits="userSpaceOnUse">
<stop stop-color="white" stop-opacity="0"/>
<stop offset="1" stop-color="#34237D"/>
</linearGradient>
</defs>
</svg>
