<svg width="194" height="151" viewBox="0 0 194 151" fill="none" xmlns="http://www.w3.org/2000/svg">
<g clip-path="url(#clip0_1_10012)">
<path d="M3.33314 138.91C4.59617 143.292 8.28405 146.359 12.131 148.964C12.6681 149.328 13.2054 149.684 13.7429 150.031C13.7465 150.032 13.7503 150.036 13.754 150.038C13.7798 150.054 13.8057 150.071 13.8298 150.087C13.9408 150.159 14.0517 150.231 14.1617 150.301L14.1013 150.328C14.1013 150.328 14.042 150.36 14.1069 150.333C14.1262 150.325 14.1465 150.318 14.1657 150.31C16.4006 149.409 18.6751 148.441 20.3877 146.752C22.1644 144.999 23.2026 142.249 22.2406 139.945C22.1141 139.644 21.9544 139.357 21.7644 139.091C21.6864 138.979 21.6023 138.872 21.5148 138.767C20.9841 138.12 20.2906 137.625 19.5054 137.334C18.7202 137.043 17.8717 136.967 17.0472 137.113C16.2227 137.259 15.452 137.622 14.8142 138.164C14.1764 138.707 13.6946 139.409 13.4184 140.2C13.1358 137.568 15.3056 135.364 17.3937 133.738C19.4828 132.112 21.8566 130.342 22.2604 127.725C22.486 126.269 21.9797 124.858 21.0574 123.725C21.0288 123.691 21.0003 123.657 20.9709 123.623C19.8482 122.304 18.2691 121.457 16.5491 121.251C13.3458 120.918 10.2343 122.613 7.90716 124.841C4.16165 128.424 1.89733 133.928 3.33314 138.91Z" fill="#F1F1F1"/>
<path d="M9.35423 133.18C8.73946 134.136 8.26745 135.177 7.95312 136.27C7.6873 137.247 7.56899 138.258 7.60212 139.269C7.68787 141.351 8.27227 143.382 9.30618 145.19C10.085 146.563 11.0341 147.831 12.131 148.965C12.6682 149.329 13.2055 149.685 13.7429 150.032C13.7466 150.033 13.7503 150.037 13.754 150.038C13.7799 150.055 13.8058 150.072 13.8299 150.088C13.9408 150.16 14.0518 150.231 14.1618 150.302C14.1618 150.302 14.042 150.361 14.1069 150.334C14.1263 150.326 14.1465 150.319 14.1658 150.311C13.9655 148.669 14.1617 147.002 14.738 145.452C15.3143 143.901 16.2539 142.511 17.478 141.398C18.7051 140.302 20.1738 139.512 21.7644 139.091C21.6864 138.98 21.6023 138.873 21.5148 138.768C20.9005 138.94 20.3026 139.167 19.7282 139.444C17.6747 140.43 15.9932 142.051 14.9327 144.067C13.9811 145.898 13.5715 147.962 13.7521 150.018C13.6603 149.935 13.5684 149.85 13.4792 149.765C11.781 148.182 10.2726 146.365 9.25179 144.267C8.36617 142.491 7.93091 140.525 7.98433 138.541C8.06764 136.377 8.92958 134.373 10.1776 132.629C11.5454 130.768 13.1612 129.103 14.9802 127.679C16.8133 126.211 18.8193 124.973 20.9532 123.992C21.0014 123.969 21.039 123.929 21.0584 123.88C21.0778 123.83 21.0774 123.775 21.0574 123.726C21.0432 123.682 21.0121 123.645 20.9709 123.624C20.9497 123.615 20.9268 123.61 20.9037 123.611C20.8807 123.612 20.8582 123.619 20.8378 123.63C20.5744 123.751 20.3127 123.874 20.0532 124.002C17.8914 125.071 15.8707 126.403 14.0375 127.97C12.2668 129.48 10.5998 131.205 9.35423 133.18Z" fill="white"/>
<path d="M59.9273 147.006H63.2835L64.88 134.061L59.9268 134.061L59.9273 147.006Z" fill="#FFB7B7"/>
<path d="M59.0713 145.91L65.6806 145.91H65.6809C66.798 145.91 67.8693 146.354 68.6591 147.144C69.449 147.934 69.8928 149.005 69.8929 150.122V150.259L59.0715 150.259L59.0713 145.91Z" fill="#2F2E41"/>
<path d="M41.7554 147.006H45.1116L46.7081 134.061L41.7549 134.061L41.7554 147.006Z" fill="#FFB7B7"/>
<path d="M40.8994 145.91L47.5088 145.91H47.509C48.6261 145.91 49.6974 146.354 50.4873 147.144C51.2772 147.934 51.721 149.005 51.721 150.122V150.259L40.8996 150.259L40.8994 145.91Z" fill="#2F2E41"/>
<path d="M40.3896 88.3379V122.517L41.2549 144.582H48.3934L50.7731 103.048L55.5322 120.137L58.5606 144.149L67.2134 143.716L61.3729 88.3379H40.3896Z" fill="#2F2E41"/>
<path d="M48.6868 57.6198C51.5541 57.6198 53.8786 55.2954 53.8786 52.428C53.8786 49.5607 51.5541 47.2363 48.6868 47.2363C45.8195 47.2363 43.4951 49.5607 43.4951 52.428C43.4951 55.2954 45.8195 57.6198 48.6868 57.6198Z" fill="#FFB8B8"/>
<path d="M46.5308 58.9707L45.1486 60.4302L43.8506 89.6337L59.2096 89.2012L55.5321 63.6752L52.2873 60.5657L50.6408 58.9707H46.5308Z" fill="#6C63FF"/>
<path d="M44.0658 62.1617L45.2316 60.2695L45.58 64.3249C45.58 64.3249 48.3922 73.4104 48.1759 81.4143C47.9596 89.4182 49.2575 108.238 47.5269 108.455C45.7964 108.671 38.4414 109.104 38.4414 107.589C38.4414 106.075 38.0088 65.8392 38.0088 65.8392L44.0658 62.1617Z" fill="#2F2E41"/>
<path d="M51.9385 60.2695L54.8828 62.5943L61.3725 64.9739C61.3725 64.9739 61.3725 92.663 62.6704 99.1527C63.9683 105.642 66.3479 106.291 63.3194 106.508C60.2909 106.724 60.5072 105.642 60.5072 105.642C60.5072 105.642 51.638 77.9532 52.0706 71.0309C52.5033 64.1086 51.5059 60.2695 51.9385 60.2695Z" fill="#2F2E41"/>
<path d="M43.776 54.0534C43.776 54.0534 44.2171 53.2787 44.1145 50.6909C44.012 48.103 47.9526 49.5667 51.2455 49.3198C54.5384 49.073 53.8413 53.6403 53.8413 53.6403C53.8413 53.6403 54.0789 53.3688 54.5875 51.1645C55.0961 48.9601 53.9413 46.7634 53.9413 46.7634C53.6012 44.4471 51.7682 45.1894 51.7682 45.1894C52.6509 45.5331 52.4814 46.2679 52.4814 46.2679C51.7342 44.9578 49.9012 45.7002 49.9012 45.7002C47.4566 44.1661 44.9789 46.1863 44.9789 46.1863C42.0257 46.8566 43.7577 49.2052 43.7577 49.2052C40.7877 50.7061 43.776 54.0534 43.776 54.0534Z" fill="#2F2E41"/>
<path d="M38.4487 104.461C38.6688 104.229 38.8352 103.951 38.9362 103.647C39.0372 103.343 39.0703 103.021 39.0333 102.703C38.9963 102.385 38.89 102.079 38.7219 101.806C38.5538 101.534 38.328 101.301 38.0604 101.126L38.9956 96.2091L36.1465 94.9121L34.9233 101.874C34.6578 102.343 34.5736 102.893 34.6867 103.42C34.7997 103.947 35.1022 104.414 35.5367 104.733C35.9713 105.052 36.5077 105.201 37.0444 105.151C37.5811 105.1 38.0808 104.855 38.4487 104.461Z" fill="#FFB7B7"/>
<path d="M39.0909 65.8392L38.5165 65.5312C38.5165 65.5312 35.4134 66.7045 35.6297 67.5698C35.8461 68.4351 33.8992 98.7201 34.5481 99.8017C35.1971 100.883 40.3888 100.018 40.3888 100.018L39.0909 65.8392Z" fill="#2F2E41"/>
<path d="M63.7859 102.422C63.5358 102.222 63.3326 101.97 63.1905 101.683C63.0484 101.396 62.971 101.082 62.9637 100.762C62.9564 100.441 63.0193 100.124 63.1481 99.8306C63.2768 99.5374 63.4683 99.2761 63.709 99.065L62.1025 94.3252L64.7448 92.6465L66.9194 99.3718C67.2473 99.7996 67.4068 100.333 67.3678 100.871C67.3287 101.408 67.0938 101.913 66.7076 102.289C66.3213 102.665 65.8106 102.886 65.2721 102.911C64.7336 102.935 64.2048 102.761 63.7859 102.422Z" fill="#FFB7B7"/>
<path d="M61.2493 98.2911C61.2493 98.2911 66.5107 98.4297 67.0038 97.2687C67.4969 96.1077 61.3785 66.3833 61.473 65.4965C61.5675 64.6096 58.3319 63.877 58.3319 63.877L57.8057 64.2614L61.2493 98.2911Z" fill="#2F2E41"/>
<path d="M95.8604 150.76H0.610352C0.544047 150.76 0.480459 150.733 0.433575 150.687C0.386691 150.64 0.360352 150.576 0.360352 150.51C0.360352 150.443 0.386691 150.38 0.433575 150.333C0.480459 150.286 0.544047 150.26 0.610352 150.26H95.8604C95.9267 150.26 95.9902 150.286 96.0371 150.333C96.084 150.38 96.1104 150.443 96.1104 150.51C96.1104 150.576 96.084 150.64 96.0371 150.687C95.9902 150.733 95.9267 150.76 95.8604 150.76Z" fill="#CBCBCB"/>
<path d="M193.636 77.76H105.722V23.0273H193.636V77.76ZM107.767 75.7145H191.591V25.0729H107.767V75.7145Z" fill="#E5E5E5"/>
<path d="M192.612 24.0488H106.743V76.7359H192.612V24.0488Z" fill="white"/>
<path d="M192.612 37.4021V34.1671H180.7V24.0488H177.465V34.1671H156.258V24.0488H153.023V34.1671H120.314V24.0488H117.079V34.1671H106.743V37.4021H117.079V49.9826H106.743V53.2176H117.079V66.6967H106.743V69.9317H134.512V76.7359H137.747V69.9317H153.023V76.7359H156.258V69.9317H192.612V66.6967H156.258V53.2176H192.612V49.9826H180.7V37.4021L192.612 37.4021ZM153.023 37.4021V41.356H120.314V37.4021H153.023ZM120.314 44.591H153.023V49.9826H120.314V44.591ZM120.314 66.6967V53.2176H134.512V66.6967L120.314 66.6967ZM153.023 66.6967H137.747V53.2176H153.023V66.6967ZM177.465 49.9826H156.258V37.4021H177.465V49.9826Z" fill="#E6E6E6"/>
<path d="M170.247 16.2716C170.247 24.8386 154.735 43.9232 154.735 43.9232C154.735 43.9232 139.224 24.8386 139.224 16.2716C139.224 12.1576 140.858 8.21212 143.767 5.30308C146.676 2.39405 150.621 0.759766 154.735 0.759766C158.849 0.759766 162.795 2.39405 165.704 5.30308C168.613 8.21212 170.247 12.1576 170.247 16.2716Z" fill="#6C63FF"/>
<path d="M161.828 15.597C161.828 16.9995 161.412 18.3705 160.633 19.5366C159.854 20.7027 158.746 21.6116 157.45 22.1484C156.155 22.6851 154.729 22.8255 153.353 22.5519C151.978 22.2783 150.714 21.6029 149.722 20.6112C148.731 19.6195 148.055 18.356 147.782 16.9804C147.508 15.6049 147.649 14.1791 148.185 12.8833C148.722 11.5876 149.631 10.4801 150.797 9.70093C151.963 8.92175 153.334 8.50586 154.737 8.50586C155.668 8.50543 156.59 8.68856 157.451 9.04477C158.311 9.40098 159.093 9.9233 159.752 10.5819C160.41 11.2404 160.933 12.0223 161.289 12.8828C161.645 13.7434 161.828 14.6657 161.828 15.597Z" fill="white"/>
<path d="M154.735 55.1188C157.045 55.1188 158.917 53.2467 158.917 50.9373C158.917 48.628 157.045 46.7559 154.735 46.7559C152.426 46.7559 150.554 48.628 150.554 50.9373C150.554 53.2467 152.426 55.1188 154.735 55.1188Z" fill="#6C63FF"/>
</g>
<defs>
<clipPath id="clip0_1_10012">
<rect width="193.275" height="150" fill="white" transform="translate(0.362305 0.759766)"/>
</clipPath>
</defs>
</svg>
