<svg width="121" height="115" viewBox="0 0 121 115" fill="none" xmlns="http://www.w3.org/2000/svg">
<g clip-path="url(#clip0_1_10039)">
<path d="M85.5435 105.301H30.6394C29.3354 105.3 28.0853 104.765 27.1635 103.816C26.2416 102.866 25.7233 101.578 25.7223 100.235V78.4965C25.6087 78.6301 25.4897 78.7617 25.3672 78.8898V100.235C25.3685 101.675 25.9243 103.055 26.9127 104.074C27.9011 105.092 29.2413 105.665 30.6394 105.667H85.698C85.6447 105.546 85.5933 105.424 85.5435 105.301ZM25.7223 24.9511C25.7233 23.608 26.2416 22.3202 27.1635 21.3703C28.0853 20.4205 29.3354 19.8861 30.6394 19.8846H48.9331C48.8993 19.7621 48.8673 19.6413 48.8372 19.5188H30.6394C29.2413 19.5206 27.9011 20.0936 26.9127 21.112C25.9243 22.1304 25.3685 23.5111 25.3672 24.9511V58.2764C25.4897 58.4044 25.6069 58.5361 25.7223 58.6696V24.9511ZM99.4441 29.2237L87.9728 19.8645C87.6989 19.6409 87.3598 19.519 87.0103 19.5188H76.8015C76.7731 19.6413 76.7412 19.7639 76.7075 19.8846H87.0103C87.2795 19.8853 87.5408 19.9786 87.7525 20.1498L99.2238 29.5109C99.3328 29.5994 99.4207 29.7122 99.481 29.8408C99.5413 29.9695 99.5724 30.1106 99.5719 30.2535V84.7281C99.6908 84.7318 99.8099 84.7409 99.927 84.7501V30.2535C99.9277 30.0554 99.8845 29.8597 99.8009 29.6812C99.7172 29.5028 99.5952 29.3464 99.4441 29.2237Z" fill="#3F3D56"/>
<path d="M99.2923 29.707H90.0361C89.7015 29.707 89.3702 29.6391 89.0611 29.5072C88.752 29.3754 88.4711 29.182 88.2345 28.9384C87.9979 28.6947 87.8103 28.4054 87.6822 28.087C87.5542 27.7686 87.4883 27.4273 87.4883 27.0827V20.041C87.4883 20.0101 87.4967 19.9799 87.5126 19.9538C87.5285 19.9277 87.5513 19.9067 87.5782 19.8933C87.6052 19.8799 87.6352 19.8746 87.665 19.8779C87.6947 19.8813 87.7229 19.8933 87.7464 19.9124L99.3912 29.4144C99.4171 29.4356 99.436 29.4645 99.4452 29.4972C99.4544 29.5299 99.4535 29.5647 99.4427 29.5969C99.4318 29.6291 99.4115 29.6569 99.3845 29.6767C99.3576 29.6964 99.3254 29.707 99.2923 29.707Z" fill="#E6E6E6"/>
<path d="M99.2921 29.89H90.036C89.3134 29.8891 88.6207 29.5931 88.1097 29.0668C87.5988 28.5405 87.3114 27.827 87.3105 27.0827V20.0411C87.3105 19.9758 87.3284 19.912 87.362 19.8567C87.3957 19.8015 87.4437 19.7571 87.5007 19.7287C87.5577 19.7003 87.6213 19.689 87.6842 19.6962C87.7472 19.7033 87.8069 19.7285 87.8565 19.769L99.5013 29.2711C99.5561 29.3159 99.596 29.3771 99.6156 29.4462C99.6351 29.5154 99.6332 29.5891 99.6102 29.6571C99.5873 29.7252 99.5443 29.7841 99.4873 29.8259C99.4303 29.8676 99.3621 29.89 99.2921 29.89ZM87.6657 20.0801V27.0827C87.6664 27.73 87.9164 28.3506 88.3607 28.8083C88.8051 29.266 89.4076 29.5234 90.036 29.5242H99.2394L87.6657 20.0801Z" fill="#3F3D56"/>
<path d="M80.9179 41.8445H53.688C53.3501 41.8445 53.0261 41.7063 52.7872 41.4602C52.5483 41.2141 52.4141 40.8804 52.4141 40.5324C52.4141 40.1844 52.5483 39.8506 52.7872 39.6045C53.0261 39.3585 53.3501 39.2202 53.688 39.2202H80.9179C81.2558 39.2202 81.5798 39.3585 81.8188 39.6045C82.0577 39.8506 82.1919 40.1844 82.1919 40.5324C82.1919 40.8804 82.0577 41.2141 81.8188 41.4602C81.5798 41.7063 81.2558 41.8445 80.9179 41.8445Z" fill="#CCCCCC"/>
<path d="M86.1729 46.273H53.688C53.3501 46.273 53.0261 46.1348 52.7872 45.8887C52.5483 45.6426 52.4141 45.3089 52.4141 44.9608C52.4141 44.6128 52.5483 44.2791 52.7872 44.033C53.0261 43.7869 53.3501 43.6487 53.688 43.6487H86.1729C86.5107 43.6487 86.8347 43.7869 87.0737 44.033C87.3126 44.2791 87.4468 44.6128 87.4468 44.9608C87.4468 45.3089 87.3126 45.6426 87.0737 45.8887C86.8347 46.1348 86.5107 46.273 86.1729 46.273Z" fill="#CCCCCC"/>
<path d="M80.9179 61.691H53.688C53.3501 61.691 53.0261 61.5527 52.7872 61.3066C52.5483 61.0606 52.4141 60.7268 52.4141 60.3788C52.4141 60.0308 52.5483 59.697 52.7872 59.451C53.0261 59.2049 53.3501 59.0667 53.688 59.0667H80.9179C81.2558 59.0667 81.5798 59.2049 81.8188 59.451C82.0577 59.697 82.1919 60.0308 82.1919 60.3788C82.1919 60.7268 82.0577 61.0606 81.8188 61.3066C81.5798 61.5527 81.2558 61.691 80.9179 61.691Z" fill="#CCCCCC"/>
<path d="M86.1729 66.1194H53.688C53.3501 66.1194 53.0261 65.9812 52.7872 65.7351C52.5483 65.489 52.4141 65.1553 52.4141 64.8073C52.4141 64.4593 52.5483 64.1255 52.7872 63.8794C53.0261 63.6334 53.3501 63.4951 53.688 63.4951H86.1729C86.5107 63.4951 86.8347 63.6334 87.0737 63.8794C87.3126 64.1255 87.4468 64.4593 87.4468 64.8073C87.4468 65.1553 87.3126 65.489 87.0737 65.7351C86.8347 65.9812 86.5107 66.1194 86.1729 66.1194Z" fill="#CCCCCC"/>
<path d="M80.9179 81.5374H53.688C53.5207 81.5374 53.355 81.5035 53.2005 81.4375C53.0459 81.3716 52.9055 81.2749 52.7872 81.1531C52.6689 81.0312 52.5751 80.8866 52.511 80.7274C52.447 80.5682 52.4141 80.3976 52.4141 80.2252C52.4141 80.0529 52.447 79.8823 52.511 79.7231C52.5751 79.5639 52.6689 79.4193 52.7872 79.2974C52.9055 79.1756 53.0459 79.0789 53.2005 79.013C53.355 78.947 53.5207 78.9131 53.688 78.9131H80.9179C81.2558 78.9131 81.5798 79.0513 81.8188 79.2974C82.0577 79.5435 82.1919 79.8772 82.1919 80.2252C82.1919 80.5732 82.0577 80.907 81.8188 81.1531C81.5798 81.3992 81.2558 81.5374 80.9179 81.5374Z" fill="#CCCCCC"/>
<path d="M86.1729 85.9659H53.688C53.5207 85.9659 53.355 85.9319 53.2005 85.866C53.0459 85.8 52.9055 85.7034 52.7872 85.5815C52.6689 85.4597 52.5751 85.3151 52.511 85.1559C52.447 84.9967 52.4141 84.826 52.4141 84.6537C52.4141 84.4814 52.447 84.3108 52.511 84.1516C52.5751 83.9924 52.6689 83.8477 52.7872 83.7259C52.9055 83.604 53.0459 83.5074 53.2005 83.4414C53.355 83.3755 53.5207 83.3416 53.688 83.3416H86.1729C86.3401 83.3416 86.5058 83.3755 86.6604 83.4414C86.8149 83.5074 86.9554 83.604 87.0737 83.7259C87.1919 83.8477 87.2858 83.9924 87.3498 84.1516C87.4138 84.3108 87.4468 84.4814 87.4468 84.6537C87.4468 84.826 87.4138 84.9967 87.3498 85.1559C87.2858 85.3151 87.1919 85.4597 87.0737 85.5815C86.9554 85.7034 86.8149 85.8 86.6604 85.866C86.5058 85.9319 86.3402 85.9659 86.1729 85.9659Z" fill="#CCCCCC"/>
<path d="M42.3493 47.3844C44.836 47.3844 46.8519 45.308 46.8519 42.7467C46.8519 40.1853 44.836 38.1089 42.3493 38.1089C39.8626 38.1089 37.8467 40.1853 37.8467 42.7467C37.8467 45.308 39.8626 47.3844 42.3493 47.3844Z" fill="#6C63FF"/>
<path d="M41.9029 44.5158C41.8016 44.516 41.703 44.4822 41.6219 44.4196L41.6169 44.4157L40.5587 43.582C40.5096 43.5433 40.4684 43.495 40.4374 43.4399C40.4064 43.3849 40.3863 43.324 40.3781 43.2609C40.37 43.1978 40.374 43.1336 40.3899 43.0721C40.4059 43.0106 40.4335 42.9529 40.4711 42.9024C40.5087 42.8519 40.5556 42.8095 40.6091 42.7776C40.6627 42.7458 40.7218 42.7252 40.783 42.7169C40.8443 42.7086 40.9066 42.7128 40.9663 42.7293C41.026 42.7459 41.0819 42.7743 41.1309 42.8132L41.8163 43.3545L43.436 41.1781C43.4735 41.1277 43.5204 41.0853 43.5738 41.0535C43.6273 41.0217 43.6863 41.001 43.7475 40.9927C43.8087 40.9844 43.8708 40.9885 43.9305 41.005C43.9901 41.0214 44.046 41.0498 44.095 41.0885L44.0851 41.1029L44.0954 41.0886C44.1942 41.1668 44.2589 41.2822 44.2752 41.4095C44.2915 41.5368 44.2581 41.6655 44.1824 41.7675L42.2773 44.3263C42.2332 44.3853 42.1766 44.433 42.1117 44.4657C42.0468 44.4985 41.9755 44.5154 41.9033 44.5152L41.9029 44.5158Z" fill="white"/>
<path d="M42.3493 67.2308C44.836 67.2308 46.8519 65.1544 46.8519 62.5931C46.8519 60.0317 44.836 57.9553 42.3493 57.9553C39.8626 57.9553 37.8467 60.0317 37.8467 62.5931C37.8467 65.1544 39.8626 67.2308 42.3493 67.2308Z" fill="#E6E6E6"/>
<path d="M41.9033 64.3622C41.802 64.3624 41.7034 64.3286 41.6223 64.266L41.6173 64.2622L40.5591 63.4284C40.4602 63.3502 40.3954 63.2348 40.3791 63.1074C40.3627 62.9801 40.3962 62.8512 40.472 62.7493C40.5479 62.6474 40.66 62.5806 40.7837 62.5638C40.9073 62.547 41.0324 62.5814 41.1313 62.6596L41.8167 63.201L43.4364 61.0246C43.4739 60.9741 43.5208 60.9317 43.5742 60.8999C43.6277 60.8681 43.6867 60.8475 43.7479 60.8391C43.8091 60.8308 43.8712 60.835 43.9309 60.8514C43.9905 60.8678 44.0464 60.8962 44.0954 60.9349L44.0855 60.9494L44.0958 60.935C44.1946 61.0132 44.2593 61.1287 44.2756 61.2559C44.2919 61.3832 44.2585 61.512 44.1828 61.6139L42.2777 64.1727C42.2336 64.2317 42.177 64.2794 42.1121 64.3122C42.0472 64.3449 41.9759 64.3619 41.9037 64.3616L41.9033 64.3622Z" fill="white"/>
<path d="M42.3493 87.0773C44.836 87.0773 46.8519 85.0009 46.8519 82.4395C46.8519 79.8782 44.836 77.8018 42.3493 77.8018C39.8626 77.8018 37.8467 79.8782 37.8467 82.4395C37.8467 85.0009 39.8626 87.0773 42.3493 87.0773Z" fill="#E6E6E6"/>
<path d="M41.9029 84.2086C41.8016 84.2088 41.703 84.1751 41.6219 84.1125L41.6169 84.1086L40.5587 83.2748C40.5096 83.2362 40.4684 83.1879 40.4374 83.1328C40.4064 83.0777 40.3863 83.0169 40.3781 82.9538C40.37 82.8907 40.374 82.8265 40.3899 82.765C40.4059 82.7035 40.4335 82.6458 40.4711 82.5953C40.5087 82.5447 40.5556 82.5024 40.6091 82.4705C40.6627 82.4387 40.7218 82.418 40.783 82.4097C40.8443 82.4014 40.9066 82.4057 40.9663 82.4222C41.026 82.4387 41.0819 82.4672 41.1309 82.506L41.8163 83.0474L43.436 80.871C43.4735 80.8205 43.5204 80.7782 43.5738 80.7464C43.6273 80.7145 43.6863 80.6939 43.7475 80.6856C43.8087 80.6772 43.8708 80.6814 43.9305 80.6978C43.9901 80.7143 44.046 80.7426 44.095 80.7813L44.0851 80.7958L44.0954 80.7814C44.1942 80.8597 44.2589 80.9751 44.2752 81.1024C44.2915 81.2297 44.2581 81.3584 44.1824 81.4604L42.2773 84.0192C42.2332 84.0781 42.1766 84.1258 42.1117 84.1586C42.0468 84.1914 41.9755 84.2083 41.9033 84.2081L41.9029 84.2086Z" fill="white"/>
<path d="M105.654 113.043C105.4 113.179 105.142 113.309 104.879 113.431C104.64 113.542 104.397 113.647 104.15 113.745C104.06 113.78 103.968 113.816 103.876 113.851C103.15 114.122 102.405 114.334 101.647 114.484C101.271 114.56 100.891 114.62 100.506 114.663C100.188 114.701 99.8668 114.727 99.5423 114.743C99.3112 114.755 99.08 114.76 98.8473 114.76C97.9256 114.76 97.0058 114.671 96.1002 114.495C95.8641 114.451 95.6331 114.398 95.4019 114.341C94.284 114.065 93.2018 113.654 92.1779 113.115C92.0861 113.068 91.9943 113.017 91.9025 112.968C91.7664 112.894 91.6338 112.816 91.501 112.735C91.5648 112.644 91.6337 112.555 91.7042 112.467C92.4711 111.488 93.4298 110.686 94.5177 110.115C95.6055 109.543 96.7982 109.213 98.0179 109.148C99.2375 109.083 100.457 109.283 101.596 109.736C102.736 110.188 103.77 110.883 104.632 111.775C104.931 112.084 105.208 112.414 105.461 112.764C105.528 112.855 105.592 112.948 105.654 113.043Z" fill="#6C63FF"/>
<path d="M99.1747 105.626C103.15 105.626 106.372 102.307 106.372 98.2133C106.372 94.1191 103.15 90.8 99.1747 90.8C95.1998 90.8 91.9775 94.1191 91.9775 98.2133C91.9775 102.307 95.1998 105.626 99.1747 105.626Z" fill="#2F2E41"/>
<path d="M101.089 105.637C103.685 104.175 104.639 100.823 103.22 98.1492C101.801 95.4754 98.5461 94.4927 95.9502 95.9543C93.3544 97.416 92.4003 100.768 93.8194 103.442C95.2384 106.116 98.4931 107.099 101.089 105.637Z" fill="#A0616A"/>
<path d="M104.148 97.3252C102.924 98.1942 101.471 98.6567 99.9845 98.6505C100.515 99.0293 101.119 99.2851 101.754 99.4004C99.7774 99.8371 97.7346 99.8489 95.7534 99.4351C95.313 99.3624 94.888 99.2121 94.4972 98.9907C94.3024 98.8787 94.1327 98.7257 93.9991 98.5417C93.8656 98.3576 93.7711 98.1467 93.7218 97.9226C93.5902 97.1479 94.1762 96.4441 94.7852 95.9698C95.7177 95.2546 96.7929 94.7619 97.9329 94.5272C99.0729 94.2926 100.249 94.3219 101.377 94.613C102.113 94.8091 102.851 95.1403 103.329 95.7494C103.808 96.3585 103.949 97.2975 103.494 97.9247L104.148 97.3252Z" fill="#2F2E41"/>
<path d="M99.9264 84.4099C99.8093 84.4007 99.6902 84.3934 99.5713 84.3879C99.3315 84.3751 99.0901 84.3696 98.8468 84.3696C96.4278 84.3697 94.0459 84.9825 91.911 86.1541C89.7761 87.3256 87.9537 89.02 86.6042 91.0879C85.2548 93.1558 84.4198 95.5338 84.1728 98.0124C83.9258 100.491 84.2744 102.994 85.1878 105.301C85.2357 105.424 85.2855 105.546 85.3387 105.667C86.5591 108.515 88.5934 110.911 91.1702 112.537L91.2644 112.594C91.3443 112.643 91.4224 112.691 91.5006 112.735C91.6338 112.817 91.7669 112.894 91.9019 112.969C91.9942 113.018 92.0865 113.067 92.1771 113.115C93.2011 113.654 94.2836 114.065 95.4018 114.34C95.6327 114.399 95.8636 114.45 96.0997 114.494C97.0053 114.671 97.9251 114.76 98.8468 114.759C99.0794 114.759 99.3103 114.754 99.5429 114.743C99.8661 114.728 100.188 114.701 100.505 114.664C100.891 114.62 101.271 114.561 101.647 114.485C102.405 114.334 103.15 114.123 103.876 113.852C103.968 113.816 104.06 113.781 104.149 113.744C104.398 113.647 104.639 113.543 104.879 113.431C105.142 113.309 105.4 113.179 105.655 113.042C108.206 111.665 110.315 109.556 111.726 106.969C111.733 106.956 111.74 106.942 111.748 106.929C112.949 104.699 113.586 102.193 113.599 99.6421C113.613 97.0915 113.003 94.5784 111.825 92.3347C110.647 90.091 108.94 88.1889 106.86 86.8039C104.781 85.4189 102.396 84.5956 99.9264 84.4099ZM113.017 102.353C112.732 103.887 112.212 105.365 111.478 106.732C111.465 106.755 111.453 106.779 111.44 106.801C110.058 109.35 107.979 111.423 105.461 112.764C105.209 112.899 104.954 113.026 104.696 113.144C104.481 113.243 104.261 113.338 104.039 113.426C103.947 113.463 103.851 113.501 103.757 113.534C103.13 113.77 102.487 113.959 101.834 114.101C101.349 114.207 100.86 114.287 100.367 114.339C100.063 114.373 99.756 114.397 99.4452 114.408C99.2463 114.417 99.0475 114.423 98.8468 114.423C97.9549 114.423 97.0649 114.337 96.1885 114.167C95.6551 114.066 95.128 113.933 94.6099 113.768C93.8205 113.517 93.0535 113.197 92.3174 112.811C92.2321 112.766 92.1469 112.72 92.0635 112.672C91.9427 112.607 91.8219 112.539 91.7048 112.468C91.616 112.416 91.5272 112.361 91.4402 112.308C91.3887 112.277 91.339 112.246 91.2875 112.213C88.8344 110.651 86.8883 108.373 85.6974 105.667C85.6441 105.546 85.5927 105.424 85.5429 105.301C84.6253 103.043 84.2635 100.587 84.4897 98.1502C84.716 95.7135 85.5233 93.3722 86.8398 91.3343C88.1563 89.2964 89.9413 87.6252 92.036 86.4692C94.1307 85.3132 96.4703 84.7082 98.8468 84.708C99.0901 84.708 99.3315 84.7135 99.5713 84.7281C99.6902 84.7318 99.8093 84.7409 99.9264 84.7501C101.953 84.9083 103.924 85.5053 105.71 86.5021C107.497 87.4989 109.06 88.8731 110.295 90.5347C111.531 92.1963 112.412 94.1079 112.881 96.1445C113.35 98.181 113.397 100.297 113.017 102.353Z" fill="#3F3D56"/>
<path d="M95.5298 90.9025C95.4523 90.0638 94.4548 89.5474 93.6747 89.8008C92.8946 90.0541 92.3824 90.8632 92.2276 91.6905C92.1531 92.0389 92.1461 92.399 92.207 92.7502C92.2679 93.1014 92.3955 93.4368 92.5825 93.7371C92.9768 94.3216 93.7015 94.6864 94.3773 94.538C95.1488 94.3686 95.6834 93.5927 95.8363 92.7955C95.9892 91.9984 95.8374 91.1766 95.6857 90.3792L95.5298 90.9025Z" fill="#2F2E41"/>
<path d="M106.509 92.1008C106.432 91.262 105.434 90.7457 104.654 90.999C103.874 91.2524 103.362 92.0614 103.207 92.8887C103.133 93.2371 103.126 93.5973 103.187 93.9485C103.247 94.2997 103.375 94.635 103.562 94.9353C103.956 95.5199 104.681 95.8846 105.357 95.7363C106.128 95.5669 106.663 94.7909 106.816 93.9938C106.969 93.1967 106.817 92.3748 106.665 91.5775L106.509 92.1008Z" fill="#2F2E41"/>
<path d="M70.6869 28.5261C68.4034 30.0322 65.7578 30.8535 63.0466 30.8979C60.3354 30.9424 57.6658 30.2082 55.3369 28.7777C55.7466 27.9922 56.2657 27.2726 56.8777 26.642C57.822 25.6647 58.9712 24.9234 60.2371 24.475C61.503 24.0266 62.8518 23.883 64.1799 24.0554C65.508 24.2277 66.7801 24.7113 67.8985 25.469C69.0168 26.2268 69.9517 27.2385 70.6312 28.4265C70.6492 28.4586 70.6688 28.4924 70.6869 28.5261Z" fill="#6C63FF"/>
<path d="M62.3719 20.4528C66.3732 20.4528 69.6169 17.1117 69.6169 12.9903C69.6169 8.8689 66.3732 5.52783 62.3719 5.52783C58.3706 5.52783 55.127 8.8689 55.127 12.9903C55.127 17.1117 58.3706 20.4528 62.3719 20.4528Z" fill="#2F2E41"/>
<path d="M67.0523 18.254C68.4807 15.5625 67.5204 12.1878 64.9073 10.7164C62.2942 9.24509 59.0178 10.2343 57.5894 12.9258C56.1609 15.6174 57.1213 18.9921 59.7344 20.4634C62.3475 21.9347 65.6238 20.9456 67.0523 18.254Z" fill="#FFB8B8"/>
<path d="M57.3652 12.0963C58.5974 12.971 60.06 13.4366 61.5565 13.4304C61.0227 13.8117 60.4149 14.0692 59.7752 14.1853C61.7649 14.6249 63.8213 14.6368 65.8157 14.2202C66.2591 14.147 66.6868 13.9957 67.0803 13.7729C67.2763 13.6601 67.4471 13.5061 67.5816 13.3209C67.7161 13.1356 67.8112 12.9233 67.8608 12.6977C67.9933 11.9179 67.4034 11.2094 66.7903 10.7319C65.8516 10.012 64.7693 9.51596 63.6217 9.27975C62.4741 9.04354 61.2898 9.07303 60.1547 9.36609C59.4134 9.56344 58.6709 9.89688 58.1894 10.51C57.708 11.1232 57.5653 12.0684 58.024 12.6998L57.3652 12.0963Z" fill="#2F2E41"/>
<path d="M62.8154 0.679688C58.9043 0.684167 55.1547 2.28633 52.389 5.13472C49.6232 7.98311 48.0673 11.8451 48.0625 15.8736C48.0631 17.1025 48.2098 18.3267 48.4993 19.5189C48.5295 19.6415 48.5597 19.764 48.5917 19.8847C49.4426 23.0983 51.2962 25.9342 53.8666 27.9555C56.437 29.9767 59.5815 31.0709 62.8154 31.0694C66.0499 31.0693 69.1947 29.9746 71.7662 27.9538C74.3377 25.933 76.1935 23.0979 77.0479 19.8847C77.0799 19.7622 77.1101 19.6415 77.1385 19.5189C77.6734 17.2806 77.7073 14.9464 77.2376 12.6927C76.7678 10.4389 75.8067 8.3247 74.4269 6.50986C73.0471 4.69503 71.2848 3.22709 69.2732 2.21705C67.2615 1.207 65.0533 0.6813 62.8154 0.679688ZM76.8011 19.5189C76.7726 19.6415 76.7407 19.764 76.707 19.8847C76.1079 22.0825 75.0253 24.1087 73.5433 25.8061C72.0613 27.5035 70.2197 28.8265 68.1612 29.6725C66.1028 30.5185 63.8828 30.8648 61.6734 30.6846C59.464 30.5043 57.3247 29.8023 55.4212 28.6331C52.2576 26.6722 49.9376 23.5442 48.9326 19.8847C48.8989 19.7622 48.8669 19.6415 48.8367 19.5189C48.5408 18.3278 48.3911 17.1031 48.391 15.8736C48.3933 13.769 48.8297 11.6889 49.6713 9.77111C50.5129 7.85331 51.7405 6.14158 53.2728 4.7493C54.8051 3.35701 56.607 2.31595 58.5594 1.69506C60.5117 1.07417 62.5698 0.887628 64.5974 1.14779C66.625 1.40795 68.5758 2.10888 70.3206 3.20414C72.0654 4.29941 73.5643 5.76402 74.7182 7.50096C75.872 9.23789 76.6544 11.2075 77.0134 13.2794C77.3725 15.3512 77.3001 17.478 76.8011 19.5189Z" fill="#3F3D56"/>
<path d="M22.8544 81.2273C20.571 82.7335 17.9256 83.5549 15.2144 83.5995C12.5033 83.6441 9.83375 82.9101 7.50488 81.4797C7.52968 81.4303 7.5563 81.381 7.58474 81.3334C8.33176 79.9464 9.42043 78.7866 10.7411 77.9709C12.0618 77.1552 13.5678 76.7124 15.1075 76.6869C16.6472 76.6615 18.1662 77.0545 19.5116 77.8262C20.8569 78.5979 21.9811 79.7212 22.7709 81.0828C22.7815 81.0975 22.7904 81.1139 22.7993 81.1286C22.8171 81.1597 22.8366 81.1944 22.8544 81.2273Z" fill="#6C63FF"/>
<path d="M21.783 65.6914C21.783 67.1673 21.358 68.6101 20.5619 69.8373C19.7658 71.0645 18.6343 72.021 17.3105 72.5858C15.9866 73.1506 14.5299 73.2984 13.1245 73.0104C11.7191 72.7225 10.4282 72.0118 9.41497 70.9681C8.40174 69.9245 7.71173 68.5948 7.43218 67.1472C7.15263 65.6996 7.29611 64.1991 7.84447 62.8356C8.39283 61.472 9.32143 60.3065 10.5129 59.4865C11.7043 58.6665 13.105 58.2288 14.538 58.2288C15.4907 58.2242 16.4348 58.414 17.3159 58.7873C18.197 59.1607 18.9974 59.7102 19.6711 60.4041C20.3448 61.098 20.8783 61.9225 21.2408 62.83C21.6032 63.7376 21.7875 64.7101 21.783 65.6914Z" fill="#2F2E41"/>
<path d="M20.2156 70.3282C20.1327 70.5431 20.0372 70.7526 19.9297 70.9556C19.2437 72.248 18.0874 73.2069 16.715 73.6212C15.3427 74.0356 13.8668 73.8715 12.6119 73.1651C11.9901 72.8155 11.4412 72.3432 10.9966 71.775C10.552 71.2069 10.2205 70.5541 10.021 69.8539C9.82148 69.1538 9.75787 68.42 9.83379 67.6945C9.90971 66.969 10.1237 66.266 10.4635 65.6257C10.8033 64.9854 11.2622 64.4204 11.8141 63.9629C12.366 63.5053 13 63.1643 13.6799 62.9593C14.3598 62.7543 15.0723 62.6893 15.7766 62.768C16.4809 62.8467 17.1632 63.0676 17.7846 63.4181C18.9374 64.0673 19.8204 65.1276 20.268 66.3999C20.7156 67.6722 20.697 69.069 20.2156 70.3282Z" fill="#A0616A"/>
<path d="M25.7219 58.1741C25.6082 58.0461 25.4892 57.9199 25.3667 57.7973C23.3936 55.7832 20.9081 54.3842 18.1967 53.7616C15.4853 53.139 12.6583 53.318 10.0414 54.2782C7.42447 55.2383 5.12416 56.9405 3.40549 59.1885C1.68681 61.4365 0.619711 64.1389 0.327127 66.9843C0.0345439 69.8298 0.528384 72.7025 1.75175 75.2715C2.97512 77.8404 4.87824 80.0011 7.24182 81.5046C9.60541 83.0081 12.3333 83.7931 15.1112 83.7693C17.889 83.7455 20.6039 82.9139 22.9429 81.3701C23.8164 80.7928 24.6288 80.1227 25.3667 79.371C25.4875 79.2484 25.6065 79.1241 25.7219 78.996C28.2984 76.1792 29.7333 72.4552 29.7333 68.5851C29.7333 64.715 28.2984 60.991 25.7219 58.1741ZM25.3667 78.8899C24.5869 79.7222 23.7156 80.4582 22.7706 81.083C22.7688 81.0848 22.767 81.0848 22.7653 81.0866C20.5074 82.5756 17.8916 83.3875 15.2109 83.4314C12.5303 83.4754 9.89072 82.7496 7.58798 81.3354C7.58625 81.3354 7.58625 81.3336 7.58443 81.3336C5.81833 80.2488 4.29784 78.7875 3.12495 77.0479C1.95206 75.3082 1.15388 73.3303 0.78395 71.2468C0.414018 69.1634 0.480885 67.0225 0.980068 64.9679C1.47925 62.9132 2.3992 60.9923 3.67823 59.3338C4.95726 57.6754 6.56579 56.3179 8.39594 55.3523C10.2261 54.3866 12.2355 53.8353 14.2895 53.7351C16.3435 53.635 18.3945 53.9884 20.305 54.7717C22.2155 55.555 23.9414 56.75 25.3667 58.2765C25.4893 58.4046 25.6065 58.5363 25.7219 58.6698C28.0933 61.3941 29.4047 64.9243 29.4047 68.5832C29.4047 72.2422 28.0933 75.7724 25.7219 78.4967C25.6082 78.6302 25.4892 78.7619 25.3667 78.8899Z" fill="#3F3D56"/>
<path d="M20.4102 59.4943C20.0533 58.8703 19.5359 58.36 18.9152 58.0198C18.2944 57.6796 17.5945 57.5227 16.8926 57.5665C16.1559 57.6233 15.455 57.9029 14.7668 58.1794L11.2678 59.5853C10.3623 59.9491 9.37072 60.3947 8.97783 61.3103C8.61318 62.1601 8.88523 63.1415 9.16064 64.0263L10.4698 68.2318C10.6491 67.2871 10.8313 66.333 11.2116 65.4537C11.5919 64.5744 12.1933 63.7636 13.0248 63.3243C13.9337 62.844 15.0049 62.854 16.0253 62.9045C17.4703 62.9762 19.0414 63.1655 20.0681 64.2153C20.6131 64.8116 20.9826 65.5549 21.1337 66.3589C21.2823 67.1586 21.3571 67.971 21.3571 68.7852C21.9497 67.736 22.4488 66.6338 22.8485 65.4919C23.1772 64.6417 23.3645 63.7405 23.4026 62.8261C23.4104 61.913 23.1595 60.971 22.5683 60.2905C21.9772 59.61 21.014 59.2426 20.1669 59.512" fill="#2F2E41"/>
<path d="M9.37659 39.4267L9.02148 39.4224C9.02571 39.0566 9.03594 38.6853 9.0519 38.3191L9.40669 38.3355C9.39092 38.6978 9.38079 39.0649 9.37659 39.4267Z" fill="#E6E6E6"/>
<path d="M9.56303 36.2468L9.20996 36.2071C9.28412 35.5079 9.38123 34.8028 9.49861 34.1112L9.84847 34.1743C9.73237 34.8581 9.63634 35.5554 9.56303 36.2468ZM10.2631 32.1249L9.91787 32.0388C10.0786 31.3557 10.2632 30.6693 10.4665 29.9985L10.8055 30.1074C10.6045 30.7707 10.422 31.4496 10.2631 32.1249ZM11.4746 28.1282L11.1431 27.9967C11.3884 27.3405 11.6579 26.6838 11.944 26.0448L12.2665 26.1981C11.9835 26.8299 11.7171 27.4792 11.4746 28.1282ZM13.1778 24.325L12.8657 24.1507C13.1908 23.533 13.5401 22.9178 13.9037 22.322L14.2044 22.5167C13.8448 23.1059 13.4994 23.7142 13.1778 24.325ZM15.3414 20.7802L15.0535 20.5661C15.4531 19.9962 15.8758 19.4322 16.31 18.8898L16.584 19.1226C16.1546 19.659 15.7366 20.2166 15.3414 20.7802ZM17.9269 17.5504L17.6679 17.3001C18.1345 16.7879 18.6236 16.2842 19.1215 15.8031L19.3644 16.07C18.872 16.5457 18.3884 17.0438 17.9269 17.5504ZM20.8906 14.6873L20.6647 14.4051C21.1911 13.958 21.7384 13.5228 22.2914 13.1116L22.4993 13.4081C21.9525 13.8149 21.4113 14.2452 20.8906 14.6873ZM24.1839 12.238L23.9949 11.9283C24.5725 11.5543 25.1692 11.195 25.7684 10.8603L25.9377 11.1818C25.3452 11.5128 24.7551 11.8681 24.1839 12.238ZM27.7533 10.2445L27.6046 9.91231C28.2234 9.61822 28.8598 9.34109 29.4959 9.08861L29.6236 9.42995C28.9945 9.67958 28.3653 9.95366 27.7533 10.2445ZM31.5404 8.74182L31.4344 8.39262C32.0853 8.18301 32.7517 7.99261 33.415 7.82676L33.4988 8.18221C32.8429 8.34628 32.184 8.53453 31.5404 8.74182ZM35.4882 7.75433L35.4269 7.39406C36.0981 7.27287 36.7827 7.17257 37.4616 7.09595L37.5003 7.45961C36.8289 7.53535 36.1519 7.63457 35.4882 7.75433Z" fill="#E6E6E6"/>
<path d="M39.5404 7.29768L39.5244 6.93223C39.8802 6.9158 40.2405 6.90526 40.5955 6.90088L40.5998 7.26669C40.2486 7.27098 39.8922 7.28143 39.5404 7.29768Z" fill="#E6E6E6"/>
<path d="M10.6888 38.2511L10.4351 37.9948L9.2109 39.2845L8.05134 37.9326L7.78516 38.1753L9.19776 39.8215L10.6888 38.2511Z" fill="#E6E6E6"/>
<path d="M39.4586 8.61757L39.2098 8.3562L40.4619 7.09525L39.1494 5.90088L39.3851 5.62671L40.9832 7.08172L39.4586 8.61757Z" fill="#E6E6E6"/>
<path d="M92.5903 10.9145C92.2776 10.7451 91.9627 10.5786 91.6455 10.415L91.8044 10.0879C92.1239 10.2525 92.4409 10.4201 92.7556 10.5908L92.5903 10.9145Z" fill="#E6E6E6"/>
<path d="M116.724 78.4296L116.395 78.2909C116.662 77.6193 116.919 76.9342 117.159 76.2546L117.493 76.3794C117.251 77.0637 116.993 77.7535 116.724 78.4296ZM118.18 74.2985L117.841 74.1879C118.054 73.4971 118.256 72.7926 118.441 72.094L118.783 72.1904C118.597 72.8938 118.394 73.6031 118.18 74.2985ZM119.303 70.0582L118.956 69.9765C119.114 69.2696 119.258 68.5504 119.387 67.8388L119.736 67.9058C119.607 68.6222 119.461 69.3464 119.303 70.0582ZM120.083 65.7366L119.732 65.6846C119.832 64.9674 119.918 64.2382 119.99 63.5175L120.343 63.5546C120.271 64.2802 120.184 65.0144 120.083 65.7366ZM120.515 61.3632L120.161 61.3412C120.203 60.6182 120.231 59.8842 120.245 59.1594L120.6 59.1664C120.586 59.8961 120.558 60.6353 120.515 61.3632ZM120.596 56.9679L120.241 56.9759C120.234 56.6577 120.225 56.3398 120.213 56.0222C120.197 55.615 120.176 55.2017 120.151 54.7941L120.505 54.7711C120.531 55.1815 120.551 55.5975 120.567 56.0076C120.58 56.3274 120.589 56.6474 120.596 56.9679ZM119.974 52.6192C119.901 51.8985 119.812 51.1697 119.711 50.4532L120.062 50.4003C120.165 51.1218 120.254 51.8555 120.327 52.5812L119.974 52.6192ZM119.362 48.2998C119.232 47.5882 119.086 46.8692 118.928 46.1627L119.274 46.0805C119.434 46.7919 119.581 47.5158 119.711 48.2323L119.362 48.2998ZM118.41 44.0454C118.225 43.3459 118.022 42.6415 117.809 41.9513L118.148 41.8405C118.362 42.5353 118.566 43.2446 118.753 43.9488L118.41 44.0454ZM117.126 39.8841C116.885 39.2029 116.628 38.5175 116.361 37.847L116.69 37.7081C116.958 38.3833 117.217 39.0733 117.459 39.7592L117.126 39.8841ZM115.516 35.8434C115.223 35.1843 114.912 34.5227 114.593 33.8767L114.91 33.7108C115.231 34.3611 115.544 35.0273 115.839 35.6908L115.516 35.8434ZM113.593 31.9504C113.248 31.3184 112.886 30.6849 112.517 30.0677L112.819 29.8757C113.191 30.4972 113.556 31.135 113.903 31.7713L113.593 31.9504ZM111.367 28.2318C110.973 27.6305 110.562 27.0296 110.145 26.4458L110.431 26.2289C110.851 26.8167 111.265 27.4218 111.661 28.0273L111.367 28.2318ZM108.852 24.7127C108.411 24.1463 107.954 23.5822 107.491 23.0359L107.759 22.7955C108.224 23.3456 108.685 23.9136 109.129 24.4839L108.852 24.7127ZM106.064 21.4181C105.58 20.8909 105.078 20.3674 104.573 19.8621L104.821 19.5998C105.329 20.1086 105.834 20.6358 106.322 21.1665L106.064 21.4181ZM103.021 18.3705C102.496 17.8864 101.954 17.4072 101.41 16.9461L101.636 16.6636C102.184 17.128 102.729 17.6105 103.258 18.0979L103.021 18.3705ZM99.7432 15.5912C99.1832 15.1548 98.6055 14.7238 98.0264 14.3101L98.2288 14.0095C98.812 14.426 99.3936 14.86 99.9575 15.2993L99.7432 15.5912ZM96.26 13.1027C95.6673 12.7152 95.0575 12.3343 94.4473 11.9704L94.6252 11.6538C95.2395 12.0201 95.8536 12.4037 96.4503 12.7938L96.26 13.1027Z" fill="#E6E6E6"/>
<path d="M115.419 81.4454L115.099 81.2865C115.253 80.9574 115.403 80.6274 115.551 80.2966L115.873 80.4488C115.725 80.7819 115.574 81.1141 115.419 81.4454Z" fill="#E6E6E6"/>
<path d="M92.0905 12.1465L92.4256 12.0249L91.8419 10.3244L93.5314 9.84886L93.4373 9.49585L91.3799 10.0753L92.0905 12.1465Z" fill="#E6E6E6"/>
<path d="M114.424 79.6355L114.761 79.521L115.308 81.2346L116.927 80.5484L117.062 80.8871L115.089 81.7226L114.424 79.6355Z" fill="#E6E6E6"/>
</g>
<defs>
<clipPath id="clip0_1_10039">
<rect width="120.37" height="114.08" fill="white" transform="translate(0.229492 0.679688)"/>
</clipPath>
</defs>
</svg>
