<svg width="165" height="129" viewBox="0 0 165 129" fill="none" xmlns="http://www.w3.org/2000/svg">
<g clip-path="url(#clip0_1_9971)">
<path d="M65.2606 34.199C65.1849 34.3539 65.1216 34.5145 65.0713 34.6793L50.2809 39.1371L47.5424 36.5712L43.1299 40.1979L47.5364 45.2115C47.8924 45.6165 48.3702 45.8951 48.898 46.0055C49.4258 46.1159 49.9752 46.0521 50.4637 45.8237L66.3834 38.3791C66.937 38.7458 67.589 38.9352 68.2529 38.9223C68.9167 38.9093 69.5609 38.6946 70.0997 38.3066C70.6385 37.9186 71.0464 37.3757 71.2692 36.7502C71.492 36.1247 71.519 35.4462 71.3468 34.805C71.1745 34.1638 70.8112 33.5902 70.305 33.1605C69.7987 32.7308 69.1737 32.4654 68.513 32.3996C67.8523 32.3338 67.1872 32.4708 66.6062 32.7922C66.0252 33.1136 65.5559 33.6043 65.2606 34.199Z" fill="#FFB6B6"/>
<path d="M49.7907 39.3173L44.3493 43.8457C44.1945 43.9746 44.0137 44.0685 43.8193 44.1212C43.6249 44.1739 43.4214 44.1841 43.2227 44.151C43.024 44.118 42.8348 44.0425 42.6679 43.9297C42.501 43.8169 42.3604 43.6695 42.2556 43.4975L38.5846 37.4694C37.9305 36.6735 37.6185 35.6507 37.7171 34.6252C37.8157 33.5996 38.3168 32.655 39.1107 31.9983C39.9045 31.3416 40.9263 31.0264 41.9522 31.1217C42.978 31.217 43.9242 31.7151 44.5835 32.5068L49.8285 37.1952C49.9787 37.3294 50.0981 37.4945 50.1787 37.6791C50.2593 37.8637 50.2992 38.0635 50.2956 38.2649C50.292 38.4663 50.245 38.6645 50.1579 38.8462C50.0708 39.0278 49.9456 39.1885 49.7907 39.3173Z" fill="#3F3D56"/>
<path d="M64.4031 114.715L66.7716 113.206C66.8804 111.881 66.9144 110.552 66.8734 109.223L65.6448 109.537L66.8575 108.764C66.7905 107.122 66.6421 106.039 66.6421 106.039C66.6421 106.039 61.8534 109.15 58.7993 113.366L59.3201 116.931L58.0781 114.438C57.7604 114.946 57.475 115.474 57.2236 116.019C54.7073 121.516 54.4628 126.794 56.6775 127.808C58.8922 128.822 62.7275 125.187 65.2438 119.69C66.0028 117.922 66.4864 116.048 66.6776 114.134L64.4031 114.715Z" fill="#E6E6E6"/>
<path d="M69.2675 120.021L72.0749 119.953C72.8527 118.876 73.5691 117.755 74.2207 116.596L73.0068 116.23L74.4442 116.196C75.2357 114.755 75.6686 113.751 75.6686 113.751C75.6686 113.751 69.9615 113.939 65.1677 115.969L63.7703 119.291L63.9961 116.514C63.4613 116.785 62.944 117.09 62.4474 117.426C57.4518 120.831 54.5142 125.223 55.8861 127.236C57.2579 129.248 62.4198 128.119 67.4154 124.714C68.979 123.593 70.3616 122.239 71.5149 120.699L69.2675 120.021Z" fill="#E6E6E6"/>
<path d="M52.6753 124.978L55.7403 124.978L56.8901 113.057L52.6748 113.156L52.6753 124.978Z" fill="#FFB6B6"/>
<path d="M51.8936 123.978L57.9296 123.977C58.9497 123.977 59.9283 124.383 60.6497 125.104C61.3711 125.825 61.7764 126.804 61.7764 127.824V127.949L51.8937 127.949L51.8936 123.978Z" fill="#2F2E41"/>
<path d="M16.5156 116.131L18.5259 118.444L28.4064 111.792L25.4394 108.377L16.5156 116.131Z" fill="#FFB6B6"/>
<path d="M16.7588 114.884L20.7177 119.441C21.3868 120.211 21.7227 121.215 21.6512 122.233C21.5798 123.251 21.1071 124.198 20.337 124.867L20.2427 124.949L13.7607 117.489L16.7588 114.884Z" fill="#2F2E41"/>
<path d="M0.635452 128.326H84.209C84.2879 128.326 84.3636 128.294 84.4194 128.238C84.4753 128.183 84.5066 128.107 84.5066 128.028C84.5066 127.949 84.4753 127.873 84.4194 127.817C84.3636 127.762 84.2879 127.73 84.209 127.73H0.635452C0.596289 127.73 0.557486 127.738 0.521271 127.753C0.485056 127.768 0.452141 127.789 0.424408 127.817C0.396675 127.845 0.374671 127.878 0.359657 127.914C0.344644 127.95 0.336914 127.989 0.336914 128.028C0.336914 128.067 0.344644 128.106 0.359657 128.142C0.374671 128.178 0.396675 128.211 0.424408 128.239C0.452141 128.266 0.485056 128.288 0.521271 128.303C0.557486 128.318 0.596289 128.326 0.635452 128.326Z" fill="#CACACA"/>
<path d="M45.9414 96.916L52.3901 120.807H57.3901L56.2919 94.6781L53.3932 69.2216L42.8643 68.6621L45.9414 96.916Z" fill="#2F2E41"/>
<path d="M34.7514 69.2217C34.7514 69.2217 34.1919 72.8583 36.4298 76.7747C38.6677 80.6911 37.269 93.839 37.269 93.839L18.3896 112.807C18.3896 112.807 21.3237 117.897 22.7225 117.617C24.1212 117.337 46.2207 99.4338 46.2207 99.4338L53.3928 70.3407L34.7514 69.2217Z" fill="#2F2E41"/>
<path d="M45.1616 26.8737C48.715 26.8737 51.5957 23.9931 51.5957 20.4397C51.5957 16.8862 48.715 14.0056 45.1616 14.0056C41.6082 14.0056 38.7275 16.8862 38.7275 20.4397C38.7275 23.9931 41.6082 26.8737 45.1616 26.8737Z" fill="#FFB6B6"/>
<path d="M44.8901 30.5567C44.8901 30.5567 37.3901 27.7175 37.3901 28.5567C37.3901 29.396 29.9962 36.492 31.6747 45.7234C33.3531 54.9549 35.3113 59.4308 34.4721 64.4661C33.6328 69.5015 34.1923 70.6204 34.1923 70.6204C34.1923 70.6204 53.673 72.2989 53.9527 70.3407C54.2324 68.3825 53.1401 65.396 53.1401 64.5568C53.1401 63.7175 45.4103 32.7164 44.8901 30.5567Z" fill="#3F3D56"/>
<path d="M42.2497 24.306C42.7706 24.0306 43.3757 23.9738 43.9395 23.8026C45.9565 23.1902 47.3078 20.91 46.8764 18.8466C46.7966 18.582 46.7609 18.306 46.7704 18.0298C46.8458 17.4187 47.4712 17.0244 48.0708 16.8844C48.6704 16.7443 49.3084 16.7647 49.8815 16.5395C50.7663 16.1919 51.3541 15.2825 51.4816 14.3404C51.5731 13.3865 51.3607 12.4282 50.8747 11.6023L50.6581 12.2256C50.3278 11.946 50.0826 11.5793 49.9505 11.1672C49.7043 11.2085 49.4729 11.3124 49.2784 11.4688C49.0839 11.6252 48.9328 11.829 48.8396 12.0605C48.4919 12.2655 48.4418 11.4236 48.0578 11.2994C47.889 11.2783 47.7182 11.3204 47.5785 11.4176C46.8047 11.7785 45.9057 11.47 45.0756 11.2699C43.6383 10.9251 42.14 10.9234 40.7018 11.2648C39.7463 11.4927 38.8006 11.8895 38.1169 12.5948C37.5822 13.2019 37.1714 13.9077 36.9077 14.6726C36.1744 16.5181 35.69 18.5149 35.932 20.486C36.1336 22.0989 36.8084 23.616 37.8713 24.8458C38.4249 25.4837 40.2313 27.7093 41.2218 27.3298C42.4664 26.8531 40.7833 25.0813 42.2497 24.306Z" fill="#2F2E41"/>
<path opacity="0.2" d="M53.1641 80.1163L45.8027 99.4172L46.1746 99.5591L53.536 80.2581L53.1641 80.1163Z" fill="black"/>
<path d="M69.0554 31.3069C68.5871 31.3074 68.1382 31.4937 67.807 31.8248C67.4759 32.156 67.2896 32.6049 67.2891 33.0732V52.7087C67.2896 53.177 67.4759 53.6259 67.807 53.9571C68.1382 54.2882 68.5871 54.4745 69.0554 54.475H163.07C163.538 54.4745 163.987 54.2882 164.318 53.9571C164.649 53.6259 164.835 53.177 164.836 52.7087V33.0732C164.835 32.6049 164.649 32.156 164.318 31.8248C163.987 31.4937 163.538 31.3074 163.07 31.3069L69.0554 31.3069Z" fill="#E6E6E6"/>
<path d="M69.6903 32.6843C69.4188 32.6846 69.1584 32.7926 68.9664 32.9846C68.7744 33.1766 68.6663 33.4369 68.666 33.7084V52.0737C68.6663 52.3452 68.7744 52.6055 68.9664 52.7975C69.1584 52.9895 69.4187 53.0975 69.6903 53.0978H162.434C162.706 53.0975 162.966 52.9895 163.158 52.7975C163.35 52.6055 163.458 52.3452 163.458 52.0737V33.7084C163.458 33.4369 163.35 33.1766 163.158 32.9846C162.966 32.7926 162.706 32.6846 162.434 32.6843H69.6903Z" fill="white"/>
<path d="M156.611 48.0616C157.051 48.0605 157.473 47.885 157.784 47.5736C158.095 47.2621 158.27 46.8401 158.271 46.3999C158.271 45.9596 158.098 45.5371 157.787 45.2248C157.477 44.9126 157.056 44.7359 156.615 44.7336C156.614 44.7336 156.612 44.7336 156.611 44.7336H78.166C77.7259 44.7354 77.3044 44.9115 76.9938 45.2234C76.6832 45.5353 76.5088 45.9575 76.5088 46.3976C76.5088 46.8378 76.6832 47.26 76.9938 47.5719C77.3044 47.8837 77.7259 48.0598 78.166 48.0616H156.611Z" fill="#E6E6E6"/>
<path d="M111.921 40.8326C112.14 40.8329 112.356 40.79 112.559 40.7065C112.761 40.623 112.944 40.5005 113.099 40.346C113.254 40.1914 113.377 40.0079 113.46 39.8059C113.544 39.6039 113.587 39.3873 113.587 39.1686C113.587 38.9499 113.544 38.7334 113.46 38.5314C113.377 38.3294 113.254 38.1458 113.099 37.9913C112.944 37.8367 112.761 37.7142 112.559 37.6307C112.356 37.5472 112.14 37.5044 111.921 37.5046H78.166C77.9473 37.5044 77.7307 37.5472 77.5286 37.6307C77.3265 37.7142 77.1428 37.8367 76.9881 37.9913C76.8334 38.1458 76.7106 38.3294 76.6269 38.5314C76.5431 38.7334 76.5 38.9499 76.5 39.1686C76.5 39.3873 76.5431 39.6039 76.6269 39.8059C76.7106 40.0079 76.8334 40.1914 76.9881 40.346C77.1428 40.5005 77.3265 40.623 77.5286 40.7065C77.7307 40.79 77.9473 40.8329 78.166 40.8326H111.921Z" fill="#6C63FF"/>
<path d="M82.7959 69.1931C82.4645 69.1935 82.1468 69.3253 81.9124 69.5597C81.6781 69.794 81.5463 70.1117 81.5459 70.4431V84.3389C81.5463 84.6703 81.6781 84.988 81.9124 85.2223C82.1468 85.4567 82.4645 85.5885 82.7959 85.5889H149.328C149.66 85.5885 149.977 85.4567 150.212 85.2223C150.446 84.988 150.578 84.6703 150.578 84.3389V70.4431C150.578 70.1117 150.446 69.794 150.212 69.5597C149.977 69.3253 149.66 69.1935 149.328 69.1931H82.7959Z" fill="#E6E6E6"/>
<path d="M83.2454 70.1677C83.0532 70.1679 82.869 70.2443 82.7331 70.3802C82.5972 70.5161 82.5207 70.7003 82.5205 70.8925V83.8893C82.5207 84.0814 82.5972 84.2657 82.7331 84.4015C82.869 84.5374 83.0532 84.6138 83.2454 84.614H148.879C149.071 84.6138 149.255 84.5374 149.391 84.4015C149.527 84.2656 149.603 84.0814 149.604 83.8893V70.8925C149.603 70.7003 149.527 70.5161 149.391 70.3802C149.255 70.2444 149.071 70.1679 148.879 70.1677H83.2454Z" fill="white"/>
<path d="M144.759 81.0502C145.071 81.0505 145.37 80.9267 145.591 80.7062C145.812 80.4857 145.937 80.1864 145.937 79.8742C145.938 79.562 145.814 79.2624 145.594 79.0413C145.373 78.8202 145.074 78.6957 144.762 78.6951C144.761 78.6951 144.76 78.6951 144.759 78.6951H89.2442C88.9322 78.6955 88.6331 78.8198 88.4127 79.0406C88.1922 79.2614 88.0684 79.5606 88.0684 79.8727C88.0684 80.1847 88.1922 80.4839 88.4127 80.7047C88.6331 80.9255 88.9322 81.0498 89.2442 81.0502H144.759Z" fill="#E6E6E6"/>
<path d="M113.132 75.9343C113.287 75.9345 113.44 75.9042 113.583 75.8451C113.726 75.786 113.856 75.6993 113.966 75.59C114.075 75.4806 114.162 75.3507 114.221 75.2077C114.281 75.0647 114.311 74.9115 114.311 74.7567C114.311 74.6019 114.281 74.4486 114.221 74.3057C114.162 74.1627 114.075 74.0328 113.966 73.9234C113.856 73.814 113.726 73.7273 113.583 73.6683C113.44 73.6092 113.287 73.5789 113.132 73.5791H89.2437C89.089 73.5789 88.9356 73.6092 88.7926 73.6683C88.6495 73.7273 88.5195 73.814 88.41 73.9234C88.3004 74.0328 88.2135 74.1627 88.1543 74.3057C88.095 74.4486 88.0645 74.6019 88.0645 74.7567C88.0645 74.9115 88.095 75.0647 88.1543 75.2077C88.2135 75.3507 88.3004 75.4806 88.41 75.59C88.5195 75.6993 88.6495 75.786 88.7926 75.8451C88.9356 75.9042 89.089 75.9345 89.2437 75.9343H113.132Z" fill="#E4E4E4"/>
<path d="M82.7959 0.193115C82.4645 0.193504 82.1468 0.325326 81.9124 0.559662C81.6781 0.793998 81.5463 1.11171 81.5459 1.44312V15.3389C81.5463 15.6703 81.6781 15.988 81.9124 16.2223C82.1468 16.4567 82.4645 16.5885 82.7959 16.5889H149.328C149.66 16.5885 149.977 16.4567 150.212 16.2223C150.446 15.988 150.578 15.6703 150.578 15.3389V1.44312C150.578 1.11171 150.446 0.793998 150.212 0.559662C149.977 0.325326 149.66 0.193504 149.328 0.193115H82.7959Z" fill="#E6E6E6"/>
<path d="M83.2454 1.16797C83.0532 1.16816 82.869 1.24457 82.7331 1.38044C82.5972 1.51631 82.5207 1.70054 82.5205 1.8927V14.8895C82.5207 15.0817 82.5972 15.2659 82.7331 15.4018C82.869 15.5376 83.0532 15.6141 83.2454 15.6143H148.879C149.071 15.614 149.255 15.5376 149.391 15.4017C149.527 15.2659 149.603 15.0817 149.604 14.8895V1.8927C149.603 1.70056 149.527 1.51635 149.391 1.38047C149.255 1.2446 149.071 1.16818 148.879 1.16797H83.2454Z" fill="white"/>
<path d="M144.759 12.0502C145.071 12.0505 145.37 11.9267 145.591 11.7062C145.812 11.4857 145.937 11.1864 145.937 10.8742C145.938 10.562 145.814 10.2624 145.594 10.0413C145.373 9.82021 145.074 9.69566 144.762 9.69507C144.761 9.69507 144.76 9.69507 144.759 9.69507H89.2442C88.9322 9.69552 88.6331 9.81979 88.4127 10.0406C88.1922 10.2614 88.0684 10.5606 88.0684 10.8726C88.0684 11.1847 88.1922 11.4839 88.4127 11.7047C88.6331 11.9255 88.9322 12.0498 89.2442 12.0502H144.759Z" fill="#E6E6E6"/>
<path d="M113.132 6.93426C113.287 6.93448 113.44 6.90419 113.583 6.84511C113.726 6.78604 113.856 6.69933 113.966 6.58996C114.075 6.48059 114.162 6.3507 114.221 6.20772C114.281 6.06473 114.311 5.91147 114.311 5.75668C114.311 5.60189 114.281 5.44862 114.221 5.30564C114.162 5.16266 114.075 5.03277 113.966 4.9234C113.856 4.81403 113.726 4.72732 113.583 4.66824C113.44 4.60917 113.287 4.57888 113.132 4.5791H89.2437C89.089 4.57888 88.9356 4.60917 88.7926 4.66824C88.6495 4.72732 88.5195 4.81403 88.41 4.9234C88.3004 5.03277 88.2135 5.16266 88.1543 5.30564C88.095 5.44862 88.0645 5.60189 88.0645 5.75668C88.0645 5.91147 88.095 6.06473 88.1543 6.20772C88.2135 6.3507 88.3004 6.48059 88.41 6.58996C88.5195 6.69933 88.6495 6.78604 88.7926 6.84511C88.9356 6.90419 89.089 6.93448 89.2437 6.93426H113.132Z" fill="#E4E4E4"/>
<path d="M63.2024 45.4714C63.0779 45.5907 62.9631 45.7196 62.8589 45.8569L47.439 44.9344L45.7547 41.5808L40.3613 43.4612L42.7661 49.6878C42.9603 50.1908 43.3126 50.6172 43.7698 50.9031C44.2271 51.1889 44.7647 51.3187 45.302 51.2729L62.813 49.7822C63.206 50.3174 63.7525 50.7203 64.3801 50.9374C65.0076 51.1544 65.6863 51.1752 66.3259 50.9971C66.9655 50.819 67.5358 50.4503 67.9608 49.9402C68.3858 49.4301 68.6454 48.8027 68.7052 48.1414C68.7649 47.4801 68.6219 46.8163 68.2951 46.2383C67.9684 45.6603 67.4734 45.1954 66.8761 44.9056C66.2787 44.6157 65.6072 44.5146 64.951 44.6157C64.2948 44.7168 63.6848 45.0153 63.2024 45.4714Z" fill="#FFB6B6"/>
<path d="M46.9163 44.9342L40.246 47.3056C40.0562 47.3731 39.8541 47.3989 39.6535 47.3812C39.4528 47.3635 39.2584 47.3028 39.0833 47.2032C38.9082 47.1036 38.7567 46.9674 38.639 46.8039C38.5213 46.6405 38.4402 46.4536 38.4013 46.2559L37.0371 39.3312C36.6981 38.3584 36.7585 37.2909 37.2052 36.3626C37.6518 35.4342 38.4482 34.7208 39.4198 34.3786C40.3915 34.0363 41.4592 34.0932 42.389 34.5367C43.3188 34.9802 44.0349 35.7743 44.3804 36.7448L47.6844 42.9556C47.779 43.1335 47.834 43.3296 47.846 43.5307C47.8579 43.7318 47.8263 43.9331 47.7534 44.1208C47.6805 44.3086 47.568 44.4784 47.4235 44.6188C47.2791 44.7592 47.1061 44.8668 46.9163 44.9342Z" fill="#3F3D56"/>
<path d="M69.8359 37.5977C72.1831 37.5977 74.0859 35.6949 74.0859 33.3477C74.0859 31.0004 72.1831 29.0977 69.8359 29.0977C67.4887 29.0977 65.5859 31.0004 65.5859 33.3477C65.5859 35.6949 67.4887 37.5977 69.8359 37.5977Z" fill="#6C63FF"/>
</g>
<defs>
<clipPath id="clip0_1_9971">
<rect width="164.498" height="128.133" fill="white" transform="translate(0.337891 0.193604)"/>
</clipPath>
</defs>
</svg>
