<svg width="103" height="119" viewBox="0 0 103 119" fill="none" xmlns="http://www.w3.org/2000/svg">
<g clip-path="url(#clip0_1_9929)">
<path d="M99.2218 43.8264H3.86491C3.01526 43.8254 2.20068 43.4875 1.59989 42.8867C0.999093 42.2859 0.661137 41.4713 0.660156 40.6217V3.24454C0.661137 2.39489 0.999093 1.58032 1.59989 0.979527C2.20068 0.378732 3.01526 0.040776 3.86491 0.0397949H99.2218C100.071 0.040776 100.886 0.378732 101.487 0.979527C102.088 1.58032 102.426 2.39489 102.427 3.24454V40.6217C102.426 41.4713 102.088 42.2859 101.487 42.8867C100.886 43.4875 100.071 43.8254 99.2218 43.8264Z" fill="#F2F2F2"/>
<path d="M76.9829 41.7828H19.0018C14.6812 41.7779 10.5388 40.0594 7.48367 37.0042C4.42849 33.949 2.70995 29.8067 2.70508 25.486V18.3826C2.70995 14.0619 4.42848 9.91955 7.48366 6.86435C10.5388 3.80916 14.6811 2.09059 19.0018 2.08569H84.0864C88.4071 2.09059 92.5494 3.80916 95.6045 6.86435C98.6597 9.91955 100.378 14.0619 100.383 18.3826C100.376 24.5865 97.9085 30.5344 93.5216 34.9213C89.1347 39.3081 83.1869 41.7758 76.9829 41.7828Z" fill="white"/>
<path d="M62.0257 12.7856H23.6996C23.4803 12.7856 23.2701 12.6985 23.1151 12.5435C22.9601 12.3885 22.873 12.1783 22.873 11.9591C22.873 11.7399 22.9601 11.5296 23.1151 11.3746C23.2701 11.2196 23.4803 11.1326 23.6996 11.1326H62.0257C62.2449 11.1326 62.4552 11.2196 62.6102 11.3746C62.7652 11.5296 62.8523 11.7399 62.8523 11.9591C62.8523 12.1783 62.7652 12.3885 62.6102 12.5435C62.4552 12.6985 62.2449 12.7856 62.0257 12.7856Z" fill="#E6E6E6"/>
<path d="M81.4271 21.6039H23.6996C23.4803 21.6039 23.2701 21.5169 23.1151 21.3619C22.9601 21.2069 22.873 20.9966 22.873 20.7774C22.873 20.5582 22.9601 20.348 23.1151 20.193C23.2701 20.038 23.4803 19.9509 23.6996 19.9509H81.4271C81.6463 19.9509 81.8566 20.038 82.0116 20.193C82.1666 20.348 82.2536 20.5582 82.2536 20.7774C82.2536 20.9966 82.1666 21.2069 82.0116 21.3619C81.8566 21.5169 81.6463 21.6039 81.4271 21.6039Z" fill="#E6E6E6"/>
<path d="M81.4271 30.4223H23.6996C23.4803 30.4223 23.2701 30.3352 23.1151 30.1802C22.9601 30.0252 22.873 29.815 22.873 29.5958C22.873 29.3766 22.9601 29.1664 23.1151 29.0114C23.2701 28.8564 23.4803 28.7693 23.6996 28.7693H81.4271C81.6463 28.7693 81.8566 28.8564 82.0116 29.0114C82.1666 29.1664 82.2536 29.3766 82.2536 29.5958C82.2536 29.815 82.1666 30.0252 82.0116 30.1802C81.8566 30.3352 81.6463 30.4223 81.4271 30.4223Z" fill="#E6E6E6"/>
<path d="M81.4271 30.4223H23.6996C23.4803 30.4223 23.2701 30.3352 23.1151 30.1802C22.9601 30.0252 22.873 29.815 22.873 29.5958C22.873 29.3766 22.9601 29.1664 23.1151 29.0114C23.2701 28.8564 23.4803 28.7693 23.6996 28.7693H81.4271C81.6463 28.7693 81.8566 28.8564 82.0116 29.0114C82.1666 29.1664 82.2536 29.3766 82.2536 29.5958C82.2536 29.815 82.1666 30.0252 82.0116 30.1802C81.8566 30.3352 81.6463 30.4223 81.4271 30.4223Z" fill="#E6E6E6"/>
<path d="M57.9821 22.6155C57.9912 22.8644 58.0549 23.1083 58.1686 23.33C58.2822 23.5517 58.4431 23.7458 58.6399 23.8986C58.8366 24.0514 59.0645 24.1592 59.3075 24.2144C59.5504 24.2696 59.8025 24.2708 60.0459 24.2181L63.1979 29.3889L64.5394 26.5422L61.3406 22.0683C61.2248 21.6652 60.9652 21.3185 60.6109 21.094C60.2566 20.8695 59.8323 20.7827 59.4183 20.8502C59.0043 20.9176 58.6295 21.1346 58.3648 21.4599C58.1001 21.7853 57.9639 22.1964 57.9821 22.6155Z" fill="#FFB6B6"/>
<path d="M81.6351 37.4348L70.7728 31.5429L67.3466 28.3284C67.3466 28.3284 65.8571 27.9296 66.4054 27.4453C66.9536 26.961 65.3913 26.4939 65.3913 26.4939L63.552 24.7683L60.9385 26.6176L61.6949 27.7901C61.6949 27.7901 61.6428 29.7311 62.7061 29.3577C63.7695 28.9843 63.5037 30.5941 63.5037 30.5941L69.8506 40.4325L81.6351 37.4348Z" fill="#3F3D56"/>
<path d="M49.5708 31.8836C55.4305 31.8836 60.1807 27.1334 60.1807 21.2737C60.1807 15.414 55.4305 10.6638 49.5708 10.6638C43.7111 10.6638 38.9609 15.414 38.9609 21.2737C38.9609 27.1334 43.7111 31.8836 49.5708 31.8836Z" fill="#6C63FF"/>
<path d="M81.669 114.715H79.4629L78.4131 106.206H81.669V114.715Z" fill="#FFB6B6"/>
<path d="M82.8324 118.537H81.2504L80.968 117.044L80.2448 118.537H76.0488C75.8476 118.537 75.6518 118.473 75.4897 118.354C75.3277 118.235 75.2081 118.067 75.1482 117.875C75.0883 117.683 75.0914 117.477 75.157 117.286C75.2226 117.096 75.3473 116.932 75.5128 116.818L78.8636 114.504V112.994L82.388 113.204L82.8324 118.537Z" fill="#2F2E41"/>
<path d="M64.0245 114.715H61.8184L60.7686 106.206H64.0245V114.715Z" fill="#FFB6B6"/>
<path d="M65.1889 118.537H63.6068L63.3244 117.044L62.6012 118.537H58.4052C58.2041 118.537 58.0082 118.473 57.8462 118.354C57.6842 118.235 57.5645 118.067 57.5046 117.875C57.4448 117.683 57.4479 117.477 57.5135 117.286C57.5791 117.096 57.7037 116.932 57.8692 116.818L61.22 114.504V112.994L64.7445 113.204L65.1889 118.537Z" fill="#2F2E41"/>
<path d="M79.328 50.3611H68.1934V63.0375H79.328V50.3611Z" fill="#FFB6B6"/>
<path d="M68.4506 56.613L66.5663 58.84L63.3115 65.6921L55.1104 85.2051L53.376 89.3318L54.7766 96.6269C54.7766 96.6269 55.0033 101.766 55.0033 102.608C55.0033 104.321 56.4361 105.27 56.4361 105.27L57.4872 110.745L67.6797 110.316C67.6797 110.316 67.3241 104.282 65.1893 102.76C63.0546 101.237 62.0732 93.3041 62.0732 93.3041L60.9133 89.7843L72.2192 76.3823L72.2922 81.067L72.3275 83.3345C72.3275 83.3345 70.6719 98.0826 72.6018 100.945C74.5318 103.807 72.6412 103.47 72.6412 103.47L72.7331 109.374L84.81 109.46L82.1456 92.4619C82.1456 92.4619 80.7928 91.3937 81.5166 90.3199C82.2404 89.2462 80.8151 87.9311 80.8151 87.9311L81.4543 74.6612C81.4543 74.6612 80.7465 72.3692 81.5791 72.0712C82.4117 71.7733 81.6884 69.8022 81.6884 69.8022L81.8122 67.2338L79.3283 59.2682L68.4506 56.613Z" fill="#2F2E41"/>
<path d="M79.4991 50.3618L80.6982 46.7645L81.5547 45.5653L81.8973 42.1393C81.8973 32.889 79.834 34.4293 79.834 34.4293L78.6426 31.1759L73.1609 31.0046L69.6492 34.345L66.737 35.3729L65.5967 41.2983L67.6792 47.621L68.1931 51.047C67.2128 52.8568 67.2957 52.0008 68.1075 53.3596L77.7861 56.0148C81.2121 57.2139 81.2121 54.1305 80.5251 53.3596C79.8381 52.5887 79.4991 50.3618 79.4991 50.3618Z" fill="#3F3D56"/>
<path d="M75.194 29.8546C78.0006 29.8546 80.2757 27.5794 80.2757 24.7729C80.2757 21.9663 78.0006 19.6912 75.194 19.6912C72.3875 19.6912 70.1123 21.9663 70.1123 24.7729C70.1123 27.5794 72.3875 29.8546 75.194 29.8546Z" fill="#FFB6B6"/>
<path d="M81.9781 31.5555C82.026 31.6363 82.055 31.7269 82.0631 31.8205C82.0711 31.914 82.0579 32.0082 82.0245 32.0959C81.991 32.1837 81.9383 32.2628 81.87 32.3273C81.8018 32.3918 81.7199 32.4401 81.6304 32.4686C80.9486 32.6947 80.5289 33.3542 80.039 33.8818C79.5508 34.4077 78.7645 34.8446 78.141 34.4865C77.5191 34.1302 77.4763 33.2206 76.9556 32.7273C76.4485 32.2476 75.6057 32.3059 75.0096 32.6707L74.9917 32.6817C74.8888 32.7488 74.7685 32.7842 74.6457 32.7837C74.5228 32.7831 74.4029 32.7466 74.3006 32.6786C74.1983 32.6105 74.1182 32.514 74.0702 32.401C74.0222 32.2879 74.0083 32.1632 74.0304 32.0424C74.2393 30.9315 74.448 29.8208 74.6567 28.7102C74.1084 30.031 73.3124 31.2347 72.3115 32.2562C72.0359 32.5743 71.6865 32.8201 71.294 32.9722C70.9377 33.0853 70.5917 32.717 70.2456 32.7838C71.1056 32.0318 73.9972 27.2113 73.4798 23.9891C72.8717 24.0576 72.2636 24.1262 71.6555 24.1947C71.5896 23.9069 71.449 23.6416 71.2478 23.4255C71.2723 23.7056 71.2367 23.9877 71.1433 24.2529C70.8897 24.282 70.6345 24.3095 70.381 24.3386C70.0281 24.378 69.6444 24.4122 69.3412 24.2272C68.8358 23.9189 68.8204 23.1891 68.9643 22.6136C69.3857 20.9399 70.6636 19.5404 72.2276 18.8072C73.7916 18.0758 74.2541 19.7048 75.902 19.1841C79.1568 18.1563 81.6509 19.9138 82.5297 23.1754C83.2681 25.9111 82.7319 28.8147 81.9781 31.5555Z" fill="#2F2E41"/>
<path d="M96.0461 118.648H89.8237L89.7969 118.599C89.7174 118.455 89.6406 118.302 89.5688 118.145C88.9278 116.773 88.6569 115.203 88.4179 113.819L88.2379 112.775C88.2161 112.649 88.2325 112.518 88.285 112.401C88.3376 112.284 88.4238 112.186 88.5328 112.118C88.6417 112.05 88.7684 112.017 88.8966 112.021C89.0247 112.026 89.1486 112.069 89.2523 112.144C90.1979 112.833 91.144 113.52 92.0903 114.207C92.4487 114.468 92.8579 114.769 93.2499 115.095C93.2877 114.912 93.3272 114.728 93.3668 114.546C93.394 114.421 93.4581 114.306 93.5508 114.217C93.6435 114.129 93.7605 114.069 93.887 114.048C94.0135 114.026 94.1436 114.042 94.2607 114.095C94.3778 114.147 94.4766 114.233 94.5444 114.342L95.2724 115.512C95.8034 116.366 96.2721 117.208 96.1766 118.116C96.1771 118.127 96.1762 118.138 96.1741 118.149C96.155 118.298 96.1196 118.444 96.0685 118.586L96.0461 118.648Z" fill="#F0F0F0"/>
<path d="M102.292 118.782L43.1626 118.84C43.1035 118.84 43.047 118.816 43.0054 118.774C42.9638 118.732 42.9404 118.676 42.9404 118.617C42.9404 118.558 42.9638 118.501 43.0054 118.459C43.047 118.417 43.1035 118.394 43.1626 118.393L102.292 118.336C102.351 118.336 102.408 118.36 102.449 118.401C102.491 118.443 102.514 118.5 102.514 118.559C102.514 118.618 102.491 118.675 102.449 118.716C102.408 118.758 102.351 118.782 102.292 118.782Z" fill="#CACACA"/>
<path d="M48.6062 35.5543L42.1022 30.0617C41.8798 29.8735 41.7412 29.6048 41.7168 29.3146C41.6923 29.0244 41.784 28.7363 41.9716 28.5136L43.1687 27.0961C43.3569 26.8737 43.6256 26.7351 43.9158 26.7107C44.206 26.6862 44.4941 26.7779 44.7168 26.9655L51.2208 32.4581C51.4431 32.6463 51.5817 32.915 51.6062 33.2052C51.6307 33.4954 51.539 33.7835 51.3513 34.0062L50.1543 35.4237C49.9661 35.6461 49.6974 35.7847 49.4072 35.8091C49.117 35.8336 48.8289 35.7419 48.6062 35.5543Z" fill="#3F3D56"/>
<path d="M42.4441 28.627C42.343 28.747 42.2936 28.9023 42.3068 29.0587C42.32 29.2151 42.3947 29.3599 42.5144 29.4613L49.0184 34.9539C49.1385 35.055 49.2937 35.1044 49.4501 35.0912C49.6065 35.078 49.7513 35.0033 49.8527 34.8835L51.0498 33.466C51.1509 33.346 51.2003 33.1907 51.1871 33.0343C51.1739 32.878 51.0992 32.7332 50.9794 32.6318L44.4754 27.1392C44.3554 27.0381 44.2002 26.9887 44.0438 27.0019C43.8874 27.015 43.7426 27.0897 43.6412 27.2095L42.4441 28.627Z" fill="white"/>
<path d="M46.2616 30.7633C46.239 30.7948 46.2094 30.8207 46.1751 30.8389C46.1407 30.857 46.1027 30.8669 46.0639 30.8678L45.0419 30.8913C45.0091 30.892 44.9765 30.8863 44.9458 30.8745C44.9152 30.8626 44.8872 30.8448 44.8635 30.8221C44.8397 30.7994 44.8207 30.7723 44.8074 30.7423C44.7942 30.7122 44.787 30.6799 44.7862 30.647C44.7854 30.6142 44.7912 30.5815 44.803 30.5509C44.8149 30.5203 44.8327 30.4923 44.8554 30.4686C44.878 30.4448 44.9052 30.4258 44.9352 30.4125C44.9653 30.3993 44.9976 30.392 45.0305 30.3913L45.699 30.3759L45.0406 28.6387C45.0173 28.5767 45.0195 28.508 45.0468 28.4476C45.074 28.3873 45.1241 28.3402 45.186 28.3168C45.248 28.2933 45.3167 28.2954 45.3771 28.3225C45.4375 28.3496 45.4847 28.3996 45.5083 28.4614L46.292 30.5292C46.3061 30.5666 46.3111 30.6069 46.3065 30.6466C46.3019 30.6863 46.2879 30.7244 46.2655 30.7576L46.2616 30.7633Z" fill="#6C63FF"/>
<path d="M46.3932 31.199C46.6397 31.2352 46.8752 31.325 47.0833 31.4621C47.2913 31.5992 47.4667 31.7802 47.5972 31.9924C47.7277 32.2047 47.8101 32.4429 47.8385 32.6904C47.867 32.9379 47.8408 33.1886 47.7619 33.4249L52.5593 37.1205L49.5837 38.1445L45.4841 34.4781C45.096 34.3192 44.7796 34.0235 44.5949 33.6469C44.4102 33.2703 44.3701 32.839 44.4822 32.4348C44.5942 32.0306 44.8507 31.6816 45.2029 31.4538C45.5551 31.2261 45.9786 31.1354 46.3932 31.199Z" fill="#FFB6B6"/>
<path d="M71.37 33.0271L59.087 40.5792C59.087 40.5792 54.1346 38.7468 55.1025 37.8985C56.0703 37.0503 52.9892 36.4768 52.9892 36.4768L49.5855 34.1868L47.6104 36.4823C47.6104 36.4823 47.9702 40.2108 48.5826 39.5652C49.1949 38.9196 50.1102 40.6832 50.1102 40.6832C50.1102 40.6832 50.3807 42.6524 52.1238 42.1568C53.8669 41.6613 58.5442 46.8556 58.5442 46.8556L73.6609 41.2177L71.37 33.0271Z" fill="#3F3D56"/>
<path d="M49.198 25.5294C49.0556 25.5294 48.9152 25.4963 48.7878 25.4326C48.6605 25.3689 48.5497 25.2764 48.4643 25.1624L46.2147 22.1629C46.1424 22.0666 46.0898 21.9569 46.0599 21.8402C46.03 21.7235 46.0234 21.6021 46.0405 21.4829C46.0575 21.3636 46.0979 21.2489 46.1592 21.1453C46.2206 21.0416 46.3018 20.9511 46.3982 20.8788C46.5928 20.7329 46.8374 20.6702 47.0782 20.7046C47.1975 20.7216 47.3122 20.762 47.4158 20.8234C47.5195 20.8847 47.61 20.9659 47.6823 21.0623L49.154 23.0245L52.9341 17.3545C53.069 17.1521 53.2789 17.0116 53.5174 16.9639C53.756 16.9162 54.0037 16.9652 54.2061 17.1001C54.4085 17.235 54.549 17.4449 54.5968 17.6834C54.6445 17.922 54.5955 18.1697 54.4605 18.3721L49.9613 25.1209C49.8799 25.243 49.7704 25.3438 49.6421 25.4148C49.5137 25.4858 49.3702 25.525 49.2235 25.5291C49.215 25.5293 49.2065 25.5294 49.198 25.5294Z" fill="white"/>
</g>
<defs>
<clipPath id="clip0_1_9929">
<rect width="101.854" height="118.8" fill="white" transform="translate(0.660156 0.0395508)"/>
</clipPath>
</defs>
</svg>
