<svg width="127" height="106" viewBox="0 0 127 106" fill="none" xmlns="http://www.w3.org/2000/svg">
<g clip-path="url(#clip0_1_10085)">
<path d="M59.6152 105.657C86.9533 105.657 109.115 104.524 109.115 103.126C109.115 101.728 86.9533 100.594 59.6152 100.594C32.2771 100.594 10.1152 101.728 10.1152 103.126C10.1152 104.524 32.2771 105.657 59.6152 105.657Z" fill="#8682F7"/>
<path d="M88.5333 25.1847H87.9709V9.77991C87.9709 7.41527 87.0316 5.14748 85.3595 3.47542C83.6875 1.80337 81.4197 0.864016 79.055 0.864014H46.4179C44.0532 0.864009 41.7854 1.80335 40.1134 3.4754C38.4413 5.14745 37.502 7.41524 37.502 9.77988V94.2919C37.502 96.6565 38.4413 98.9243 40.1134 100.596C41.7854 102.268 44.0532 103.208 46.4178 103.208H79.055C81.4197 103.208 83.6874 102.268 85.3595 100.596C87.0316 98.9244 87.9709 96.6566 87.9709 94.2919V36.1501H88.5332L88.5333 25.1847Z" fill="#3F3D56"/>
<path d="M86.0738 9.83901V94.2267C86.0738 95.9926 85.3723 97.6862 84.1235 98.935C82.8748 100.184 81.1812 100.885 79.4152 100.885H46.6215C44.8555 100.885 43.1619 100.184 41.9132 98.935C40.6645 97.6862 39.9629 95.9926 39.9629 94.2267V9.83901C39.9629 8.07305 40.6645 6.37943 41.9132 5.13071C43.1619 3.88199 44.8555 3.18045 46.6215 3.18042H50.5998C50.4043 3.66079 50.3298 4.18184 50.383 4.69773C50.4361 5.21363 50.6152 5.70855 50.9045 6.13898C51.1939 6.56941 51.5845 6.92215 52.0421 7.16617C52.4998 7.41019 53.0104 7.53801 53.529 7.53839H72.2265C72.7451 7.538 73.2557 7.41018 73.7133 7.16616C74.1709 6.92214 74.5616 6.5694 74.8509 6.13897C75.1402 5.70855 75.3193 5.21362 75.3725 4.69773C75.4256 4.18184 75.3512 3.66079 75.1557 3.18042H79.4152C81.1812 3.18045 82.8748 3.88199 84.1235 5.13071C85.3723 6.37943 86.0738 8.07305 86.0738 9.83901Z" fill="white"/>
<path d="M75.5082 46.2314C75.2902 46.3453 75.0685 46.4531 74.843 46.5548C74.6377 46.6476 74.4291 46.7348 74.2173 46.8164C74.1399 46.8459 74.0612 46.8754 73.9824 46.905C73.3598 47.1308 72.7203 47.3071 72.0699 47.4323C71.7479 47.4956 71.4216 47.5453 71.0912 47.5814C70.8184 47.6123 70.5427 47.6343 70.2643 47.6475C70.066 47.6573 69.8677 47.6615 69.668 47.6615C68.8772 47.6618 68.0882 47.5879 67.3112 47.4407C67.1086 47.4042 66.9104 47.3606 66.7121 47.3128C65.753 47.0829 64.8245 46.7402 63.946 46.2918C63.8672 46.2524 63.7885 46.2103 63.7097 46.1695C63.593 46.1076 63.4791 46.0429 63.3652 45.9754C63.42 45.8995 63.4791 45.825 63.5396 45.7518C64.1976 44.9364 65.0201 44.2687 65.9534 43.7924C66.8867 43.3161 67.91 43.0418 68.9564 42.9874C70.0028 42.933 71.049 43.0997 72.0267 43.4767C73.0044 43.8536 73.8917 44.4324 74.6307 45.1753C74.8872 45.4327 75.125 45.7081 75.3423 45.9993C75.3999 46.0753 75.4547 46.1526 75.5082 46.2314Z" fill="#6C63FF"/>
<path d="M69.9502 40.0535C73.3604 40.0535 76.125 37.2889 76.125 33.8787C76.125 30.4684 73.3604 27.7039 69.9502 27.7039C66.5399 27.7039 63.7754 30.4684 63.7754 33.8787C63.7754 37.2889 66.5399 40.0535 69.9502 40.0535Z" fill="#2F2E41"/>
<path d="M71.5917 40.0607C73.8189 38.8432 74.6373 36.0508 73.4199 33.8237C72.2024 31.5966 69.4101 30.7781 67.1829 31.9956C64.9558 33.213 64.1373 36.0054 65.3548 38.2325C66.5722 40.4596 69.3646 41.2781 71.5917 40.0607Z" fill="#A0616A"/>
<path d="M74.2171 33.1375C73.1669 33.8613 71.9204 34.2466 70.645 34.2415C71.0999 34.5569 71.6179 34.77 72.1632 34.8661C70.4673 35.2298 68.7147 35.2397 67.0149 34.895C66.637 34.8344 66.2725 34.7092 65.9371 34.5248C65.77 34.4315 65.6244 34.3041 65.5098 34.1508C65.3952 33.9975 65.3141 33.8218 65.2719 33.6352C65.1589 32.9899 65.6617 32.4036 66.1843 32.0085C66.9843 31.4129 67.9067 31.0024 68.8848 30.807C69.8629 30.6115 70.8722 30.6359 71.8397 30.8784C72.4715 31.0417 73.1044 31.3176 73.5147 31.825C73.925 32.3323 74.0466 33.1145 73.6556 33.6369L74.2171 33.1375Z" fill="#2F2E41"/>
<path d="M69.6699 22.3484C66.9098 22.348 64.2251 23.25 62.0253 24.9171C59.8254 26.5841 58.2309 28.9247 57.4848 31.5821C56.7387 34.2396 56.8819 37.068 57.8926 39.6365C58.9033 42.205 60.7261 44.3725 63.0831 45.8089L63.1646 45.8567C63.2321 45.8975 63.2996 45.9368 63.3671 45.9748C63.481 46.0423 63.5949 46.107 63.7116 46.1689C63.7904 46.2096 63.8691 46.2518 63.9479 46.2912C64.8264 46.7396 65.7549 47.0823 66.714 47.3121C66.9123 47.36 67.1105 47.4035 67.3131 47.4401C68.0901 47.5873 68.8791 47.6612 69.6699 47.6609C69.8696 47.6609 70.0679 47.6567 70.2662 47.6468C70.5446 47.6342 70.8203 47.6121 71.0931 47.5807C71.4235 47.5442 71.7498 47.4945 72.0718 47.4317C72.7222 47.3065 73.3617 47.1301 73.9843 46.9043C74.0631 46.8748 74.1418 46.8453 74.2192 46.8157C74.4315 46.7342 74.6401 46.647 74.8449 46.5542C75.0699 46.4529 75.2917 46.3451 75.5101 46.2307C77.6993 45.0843 79.5087 43.3271 80.7188 41.1725C80.7244 41.1612 80.7315 41.15 80.7371 41.1387C81.3828 39.9802 81.8408 38.7267 82.0942 37.4248C82.4499 35.5921 82.396 33.7034 81.9364 31.894C81.4767 30.0845 80.6227 28.3991 79.4354 26.9583C78.2481 25.5176 76.7569 24.3572 75.0687 23.5602C73.3804 22.7633 71.5368 22.3494 69.6699 22.3484ZM80.5065 40.9742C80.4952 40.9939 80.4854 41.0135 80.4742 41.0318C79.2882 43.1547 77.5042 44.8819 75.3441 45.9987C75.129 46.1112 74.91 46.2167 74.6874 46.3151C74.5032 46.3981 74.3148 46.4768 74.1249 46.55C74.0447 46.5809 73.9632 46.6118 73.8817 46.64C73.3437 46.8364 72.7925 46.9943 72.2321 47.1125C71.8164 47.201 71.3963 47.2671 70.9735 47.3107C70.7133 47.3389 70.449 47.3585 70.1832 47.3684C70.013 47.3754 69.8415 47.3796 69.6699 47.3796C68.9046 47.3805 68.141 47.3095 67.389 47.1673C66.9316 47.0829 66.4794 46.9721 66.0347 46.8354C65.3575 46.6262 64.6993 46.3594 64.0674 46.0381C63.9943 46.0001 63.9212 45.9621 63.8494 45.9228C63.7468 45.8679 63.6427 45.8117 63.5415 45.7512C63.4655 45.709 63.3896 45.664 63.3151 45.619C63.2715 45.5937 63.2279 45.567 63.1843 45.5403C61.1177 44.2712 59.4693 42.4233 58.4434 40.2258C57.4175 38.0284 57.0593 35.5781 57.4134 33.179C57.7674 30.7798 58.818 28.5374 60.4348 26.7299C62.0516 24.9224 64.1636 23.6294 66.5086 23.0113C68.8536 22.3931 71.3285 22.4771 73.6262 23.2527C75.924 24.0283 77.9435 25.4614 79.4341 27.3743C80.9248 29.2872 81.821 31.5957 82.0116 34.0133C82.2023 36.4309 81.6789 38.8513 80.5065 40.9742Z" fill="#3F3D56"/>
<path d="M66.8254 27.7887C66.759 27.0901 65.9031 26.66 65.2338 26.871C64.5645 27.0821 64.1251 27.756 63.9923 28.4451C63.9284 28.7353 63.9224 29.0352 63.9746 29.3278C64.0269 29.6203 64.1364 29.8996 64.2968 30.1498C64.6351 30.6366 65.2568 30.9405 65.8366 30.8169C66.4986 30.6758 66.9572 30.0295 67.0884 29.3655C67.2196 28.7015 67.0893 28.017 66.9592 27.3528L66.8254 27.7887Z" fill="#2F2E41"/>
<path d="M76.2473 28.7848C76.1808 28.0862 75.325 27.6561 74.6557 27.8671C73.9864 28.0781 73.547 28.7521 73.4142 29.4411C73.3503 29.7314 73.3443 30.0313 73.3965 30.3239C73.4488 30.6164 73.5582 30.8957 73.7187 31.1459C74.057 31.6327 74.6787 31.9366 75.2585 31.813C75.9204 31.6719 76.379 31.0256 76.5102 30.3616C76.6415 29.6976 76.5112 29.0131 76.3811 28.3489L76.2473 28.7848Z" fill="#2F2E41"/>
<path d="M47.795 40.0614C47.7074 40.0613 47.6208 40.043 47.5408 40.0075C47.4607 39.9721 47.3889 39.9203 47.33 39.8555L40.3519 32.243C40.2727 32.1568 40.1765 32.088 40.0694 32.0408C39.9622 31.9937 39.8465 31.9693 39.7295 31.9692H2.85482C2.29523 31.9685 1.75873 31.746 1.36304 31.3503C0.967345 30.9546 0.744769 30.4181 0.744141 29.8585V16.5606C0.744769 16.001 0.967345 15.4645 1.36304 15.0688C1.75873 14.6732 2.29523 14.4506 2.85482 14.45H50.6287C51.1883 14.4506 51.7248 14.6732 52.1205 15.0688C52.5162 15.4645 52.7387 16.001 52.7394 16.5606V29.8585C52.7387 30.4181 52.5162 30.9546 52.1205 31.3503C51.7248 31.746 51.1883 31.9685 50.6287 31.9692H49.2743C49.0504 31.9694 48.8358 32.0585 48.6775 32.2168C48.5192 32.3751 48.4301 32.5897 48.4299 32.8136V39.4276C48.4304 39.5553 48.3921 39.6802 48.32 39.7856C48.2479 39.8909 48.1455 39.9719 48.0263 40.0177C47.9526 40.0465 47.8741 40.0613 47.795 40.0614Z" fill="white"/>
<path d="M47.795 40.0614C47.7074 40.0613 47.6208 40.043 47.5408 40.0075C47.4607 39.9721 47.3889 39.9203 47.33 39.8555L40.3519 32.243C40.2727 32.1568 40.1765 32.088 40.0694 32.0408C39.9622 31.9937 39.8465 31.9693 39.7295 31.9692H2.85482C2.29523 31.9685 1.75873 31.746 1.36304 31.3503C0.967345 30.9546 0.744769 30.4181 0.744141 29.8585V16.5606C0.744769 16.001 0.967345 15.4645 1.36304 15.0688C1.75873 14.6732 2.29523 14.4506 2.85482 14.45H50.6287C51.1883 14.4506 51.7248 14.6732 52.1205 15.0688C52.5162 15.4645 52.7387 16.001 52.7394 16.5606V29.8585C52.7387 30.4181 52.5162 30.9546 52.1205 31.3503C51.7248 31.746 51.1883 31.9685 50.6287 31.9692H49.2743C49.0504 31.9694 48.8358 32.0585 48.6775 32.2168C48.5192 32.3751 48.4301 32.5897 48.4299 32.8136V39.4276C48.4304 39.5553 48.3921 39.6802 48.32 39.7856C48.2479 39.8909 48.1455 39.9719 48.0263 40.0177C47.9526 40.0465 47.8741 40.0613 47.795 40.0614ZM2.85482 14.7312C2.36979 14.7317 1.90479 14.9247 1.56182 15.2676C1.21886 15.6106 1.02594 16.0756 1.02539 16.5606V29.8585C1.02594 30.3435 1.21886 30.8085 1.56182 31.1515C1.90479 31.4944 2.36979 31.6874 2.85482 31.6879H39.7295C39.8855 31.6881 40.0398 31.7206 40.1826 31.7834C40.3254 31.8463 40.4536 31.938 40.5592 32.0529L47.5373 39.6654C47.5852 39.7177 47.6478 39.7543 47.7168 39.7703C47.7859 39.7864 47.8582 39.7813 47.9243 39.7556C47.9904 39.7299 48.0471 39.6848 48.0872 39.6263C48.1272 39.5678 48.1486 39.4985 48.1486 39.4276V32.8136C48.1489 32.5152 48.2676 32.229 48.4787 32.018C48.6897 31.807 48.9758 31.6882 49.2743 31.6879H50.6287C51.1137 31.6874 51.5787 31.4944 51.9217 31.1515C52.2646 30.8085 52.4576 30.3435 52.4581 29.8585V16.5606C52.4576 16.0756 52.2646 15.6106 51.9217 15.2676C51.5787 14.9247 51.1137 14.7317 50.6287 14.7312H2.85482Z" fill="#3F3D56"/>
<path d="M5.91919 20.3157C6.93922 20.3157 7.76612 19.4888 7.76612 18.4688C7.76612 17.4487 6.93922 16.6218 5.91919 16.6218C4.89916 16.6218 4.07227 17.4487 4.07227 18.4688C4.07227 19.4888 4.89916 20.3157 5.91919 20.3157Z" fill="#6C63FF"/>
<path d="M48.4721 28.6895H5.00769C4.87823 28.6897 4.75002 28.6643 4.63038 28.6149C4.51073 28.5655 4.402 28.4929 4.31041 28.4014C4.21882 28.31 4.14615 28.2013 4.09658 28.0817C4.047 27.9622 4.02148 27.834 4.02148 27.7045C4.02148 27.5751 4.047 27.4469 4.09658 27.3273C4.14615 27.2077 4.21882 27.0991 4.31041 27.0076C4.402 26.9161 4.51073 26.8436 4.63038 26.7941C4.75002 26.7447 4.87823 26.7193 5.00769 26.7195H48.4721C48.7331 26.7198 48.9833 26.8237 49.1678 27.0084C49.3523 27.1931 49.4559 27.4435 49.4559 27.7045C49.4559 27.9656 49.3523 28.2159 49.1678 28.4006C48.9833 28.5853 48.7331 28.6892 48.4721 28.6895Z" fill="#E6E6E6"/>
<path d="M34.3123 24.502H5.00769C4.87823 24.5022 4.75002 24.4768 4.63038 24.4274C4.51073 24.378 4.402 24.3054 4.31041 24.2139C4.21882 24.1225 4.14615 24.0138 4.09658 23.8942C4.047 23.7747 4.02148 23.6465 4.02148 23.517C4.02148 23.3876 4.047 23.2594 4.09658 23.1398C4.14615 23.0202 4.21882 22.9116 4.31041 22.8201C4.402 22.7286 4.51073 22.6561 4.63038 22.6066C4.75002 22.5572 4.87823 22.5318 5.00769 22.532H34.3123C34.5735 22.532 34.8241 22.6358 35.0088 22.8205C35.1935 23.0052 35.2973 23.2558 35.2973 23.517C35.2973 23.7783 35.1935 24.0288 35.0088 24.2135C34.8241 24.3983 34.5735 24.502 34.3123 24.502Z" fill="#E6E6E6"/>
<path d="M78.801 85.1583C78.6818 85.1125 78.5793 85.0316 78.5072 84.9262C78.4351 84.8208 78.3968 84.6959 78.3974 84.5683V77.9542C78.3971 77.7303 78.3081 77.5157 78.1498 77.3574C77.9915 77.1991 77.7768 77.11 77.553 77.1098H76.1986C75.639 77.1092 75.1025 76.8866 74.7068 76.4909C74.3111 76.0952 74.0885 75.5587 74.0879 74.9991V61.7013C74.0885 61.1417 74.3111 60.6052 74.7068 60.2095C75.1025 59.8138 75.639 59.5912 76.1986 59.5906H123.972C124.532 59.5912 125.069 59.8138 125.464 60.2095C125.86 60.6052 126.082 61.1417 126.083 61.7013V74.9991C126.082 75.5587 125.86 76.0952 125.464 76.4909C125.069 76.8866 124.532 77.1092 123.972 77.1098H87.0978C86.9807 77.1099 86.865 77.1343 86.7579 77.1815C86.6507 77.2286 86.5545 77.2974 86.4753 77.3836L79.4972 84.9961C79.4383 85.0609 79.3665 85.1127 79.2865 85.1481C79.2064 85.1836 79.1198 85.202 79.0322 85.202C78.9531 85.202 78.8747 85.1871 78.801 85.1583Z" fill="white"/>
<path d="M78.801 85.1583C78.6818 85.1125 78.5793 85.0316 78.5072 84.9262C78.4351 84.8208 78.3968 84.6959 78.3974 84.5683V77.9542C78.3971 77.7303 78.3081 77.5157 78.1498 77.3574C77.9915 77.1991 77.7768 77.11 77.553 77.1098H76.1986C75.639 77.1092 75.1025 76.8866 74.7068 76.4909C74.3111 76.0952 74.0885 75.5587 74.0879 74.9991V61.7013C74.0885 61.1417 74.3111 60.6052 74.7068 60.2095C75.1025 59.8138 75.639 59.5912 76.1986 59.5906H123.972C124.532 59.5912 125.069 59.8138 125.464 60.2095C125.86 60.6052 126.082 61.1417 126.083 61.7013V74.9991C126.082 75.5587 125.86 76.0952 125.464 76.4909C125.069 76.8866 124.532 77.1092 123.972 77.1098H87.0978C86.9807 77.1099 86.865 77.1343 86.7579 77.1815C86.6507 77.2286 86.5545 77.2974 86.4753 77.3836L79.4972 84.9961C79.4383 85.0609 79.3665 85.1127 79.2865 85.1481C79.2064 85.1836 79.1198 85.202 79.0322 85.202C78.9531 85.202 78.8747 85.1871 78.801 85.1583ZM76.1986 59.8718C75.7135 59.8724 75.2485 60.0653 74.9056 60.4083C74.5626 60.7512 74.3697 61.2162 74.3691 61.7013V74.9991C74.3697 75.4841 74.5626 75.9491 74.9056 76.2921C75.2485 76.6351 75.7135 76.828 76.1986 76.8285H77.553C77.8514 76.8289 78.1375 76.9476 78.3486 77.1586C78.5596 77.3697 78.6783 77.6558 78.6786 77.9542V84.5683C78.6786 84.6392 78.7001 84.7084 78.7401 84.7669C78.7801 84.8254 78.8369 84.8705 78.903 84.8962C78.9691 84.9219 79.0414 84.9271 79.1104 84.911C79.1795 84.8949 79.242 84.8583 79.29 84.806L86.2681 77.1936C86.3736 77.0787 86.5018 76.9869 86.6447 76.9241C86.7875 76.8612 86.9418 76.8287 87.0978 76.8285H123.972C124.457 76.828 124.922 76.6351 125.265 76.2921C125.608 75.9491 125.801 75.4841 125.802 74.9991V61.7013C125.801 61.2162 125.608 60.7512 125.265 60.4083C124.922 60.0653 124.457 59.8724 123.972 59.8718H76.1986Z" fill="#3F3D56"/>
<path d="M63.9098 89.2757C61.9507 90.5303 59.6809 91.2143 57.3548 91.2513C55.0287 91.2884 52.7383 90.6768 50.7402 89.4853C51.0917 88.831 51.5371 88.2317 52.0622 87.7064C52.8723 86.8923 53.8583 86.2749 54.9444 85.9014C56.0304 85.5279 57.1876 85.4083 58.3271 85.5518C59.4666 85.6954 60.558 86.0982 61.5175 86.7294C62.4769 87.3605 63.279 88.2033 63.862 89.1928C63.8774 89.2195 63.8943 89.2476 63.9098 89.2757Z" fill="#6C63FF"/>
<path d="M56.7764 82.5496C60.2093 82.5496 62.9922 79.7667 62.9922 76.3338C62.9922 72.9008 60.2093 70.1179 56.7764 70.1179C53.3435 70.1179 50.5605 72.9008 50.5605 76.3338C50.5605 79.7667 53.3435 82.5496 56.7764 82.5496Z" fill="#2F2E41"/>
<path d="M61.3983 80.7193C62.6239 78.4774 61.7999 75.6664 59.558 74.4409C57.3161 73.2154 54.5051 74.0393 53.2796 76.2812C52.054 78.5231 52.878 81.3341 55.1199 82.5596C57.3618 83.7852 60.1728 82.9612 61.3983 80.7193Z" fill="#FFB8B8"/>
<path d="M52.4785 75.5914C53.5357 76.32 54.7905 76.7078 56.0744 76.7027C55.6164 77.0202 55.095 77.2347 54.5462 77.3314C56.2532 77.6976 58.0175 77.7075 59.7287 77.3605C60.109 77.2995 60.476 77.1735 60.8136 76.9879C60.9818 76.894 61.1283 76.7657 61.2437 76.6114C61.3591 76.4571 61.4407 76.2802 61.4832 76.0923C61.5969 75.4428 61.0908 74.8526 60.5648 74.4549C59.7594 73.8553 58.8309 73.4421 57.8463 73.2454C56.8617 73.0486 55.8457 73.0732 54.8717 73.3173C54.2358 73.4817 53.5987 73.7594 53.1856 74.2701C52.7726 74.7808 52.6502 75.5682 53.0438 76.0941L52.4785 75.5914Z" fill="#2F2E41"/>
<path d="M57.1543 91.3952C54.1101 91.3943 51.1683 90.2958 48.8685 88.3013C46.5688 86.3068 45.0652 83.5499 44.6337 80.5365C44.2021 77.523 44.8715 74.455 46.5191 71.8952C48.1667 69.3354 50.6819 67.4555 53.6035 66.6002C56.5251 65.7449 59.6571 65.9717 62.425 67.2389C65.1929 68.5061 67.4111 70.7288 68.6728 73.4992C69.9344 76.2696 70.1549 79.4021 69.2938 82.3219C68.4326 85.2418 66.5476 87.7533 63.9845 89.3957C61.9463 90.7027 59.5756 91.3967 57.1543 91.3952ZM57.1543 66.364C54.7064 66.3637 52.3134 67.0894 50.278 68.4492C48.2426 69.8091 46.6561 71.742 45.7192 74.0035C44.7824 76.2649 44.5372 78.7535 45.0147 81.1543C45.4922 83.5552 46.6709 85.7605 48.4018 87.4914C50.1327 89.2223 52.3381 90.4011 54.7389 90.8786C57.1398 91.3561 59.6283 91.1109 61.8898 90.174C64.1513 89.2371 66.0842 87.6507 67.444 85.6152C68.8038 83.5798 69.5295 81.1869 69.5293 78.739C69.5256 75.4581 68.2206 72.3126 65.9006 69.9926C63.5807 67.6727 60.4352 66.3677 57.1543 66.364Z" fill="#3F3D56"/>
<path d="M80.0286 65.3157C81.0486 65.3157 81.8755 64.4888 81.8755 63.4688C81.8755 62.4487 81.0486 61.6218 80.0286 61.6218C79.0085 61.6218 78.1816 62.4487 78.1816 63.4688C78.1816 64.4888 79.0085 65.3157 80.0286 65.3157Z" fill="#6C63FF"/>
<path d="M122.581 73.6895H79.1171C78.9876 73.6897 78.8594 73.6643 78.7398 73.6149C78.6201 73.5655 78.5114 73.4929 78.4198 73.4014C78.3282 73.31 78.2555 73.2013 78.206 73.0817C78.1564 72.9622 78.1309 72.834 78.1309 72.7045C78.1309 72.5751 78.1564 72.4469 78.206 72.3273C78.2555 72.2077 78.3282 72.0991 78.4198 72.0076C78.5114 71.9161 78.6201 71.8436 78.7398 71.7941C78.8594 71.7447 78.9876 71.7193 79.1171 71.7195H122.581C122.843 71.7195 123.093 71.8233 123.278 72.008C123.463 72.1927 123.566 72.4433 123.566 72.7045C123.566 72.9658 123.463 73.2163 123.278 73.401C123.093 73.5858 122.843 73.6895 122.581 73.6895Z" fill="#E6E6E6"/>
<path d="M108.422 69.502H79.1171C78.9876 69.5022 78.8594 69.4768 78.7398 69.4274C78.6201 69.378 78.5114 69.3054 78.4198 69.2139C78.3282 69.1225 78.2555 69.0138 78.206 68.8942C78.1564 68.7747 78.1309 68.6465 78.1309 68.517C78.1309 68.3876 78.1564 68.2594 78.206 68.1398C78.2555 68.0202 78.3282 67.9116 78.4198 67.8201C78.5114 67.7286 78.6201 67.6561 78.7398 67.6066C78.8594 67.5572 78.9876 67.5318 79.1171 67.532H108.422C108.683 67.5323 108.933 67.6362 109.117 67.8209C109.302 68.0056 109.406 68.256 109.406 68.517C109.406 68.7781 109.302 69.0284 109.117 69.2131C108.933 69.3978 108.683 69.5017 108.422 69.502Z" fill="#E6E6E6"/>
<path d="M78.7369 86.418C80.64 86.418 82.1827 86.2467 82.1827 86.0355C82.1827 85.8243 80.64 85.6531 78.7369 85.6531C76.8338 85.6531 75.291 85.8243 75.291 86.0355C75.291 86.2467 76.8338 86.418 78.7369 86.418Z" fill="#F2F2F2"/>
<path d="M47.94 41.418C49.8431 41.418 51.3859 41.2467 51.3859 41.0355C51.3859 40.8243 49.8431 40.6531 47.94 40.6531C46.0369 40.6531 44.4941 40.8243 44.4941 41.0355C44.4941 41.2467 46.0369 41.418 47.94 41.418Z" fill="#F2F2F2"/>
</g>
<defs>
<clipPath id="clip0_1_10085">
<rect width="125.338" height="104.793" fill="white" transform="translate(0.745117 0.863281)"/>
</clipPath>
</defs>
</svg>
