<svg width="32" height="33" viewBox="0 0 32 33" fill="none" xmlns="http://www.w3.org/2000/svg">
<rect x="2" y="2.8374" width="28" height="28" rx="6" fill="url(#paint0_radial_1_10158)"/>
<rect x="2" y="2.8374" width="28" height="28" rx="6" fill="url(#paint1_radial_1_10158)"/>
<rect x="2" y="2.8374" width="28" height="28" rx="6" fill="url(#paint2_radial_1_10158)"/>
<path d="M23 11.3374C23 12.1658 22.3284 12.8374 21.5 12.8374C20.6716 12.8374 20 12.1658 20 11.3374C20 10.509 20.6716 9.8374 21.5 9.8374C22.3284 9.8374 23 10.509 23 11.3374Z" fill="white"/>
<path fill-rule="evenodd" clip-rule="evenodd" d="M16 21.8374C18.7614 21.8374 21 19.5988 21 16.8374C21 14.076 18.7614 11.8374 16 11.8374C13.2386 11.8374 11 14.076 11 16.8374C11 19.5988 13.2386 21.8374 16 21.8374ZM16 19.8374C17.6569 19.8374 19 18.4943 19 16.8374C19 15.1805 17.6569 13.8374 16 13.8374C14.3431 13.8374 13 15.1805 13 16.8374C13 18.4943 14.3431 19.8374 16 19.8374Z" fill="white"/>
<path fill-rule="evenodd" clip-rule="evenodd" d="M6 16.4374C6 13.0771 6 11.3969 6.65396 10.1135C7.2292 8.98449 8.14708 8.0666 9.27606 7.49136C10.5595 6.8374 12.2397 6.8374 15.6 6.8374H16.4C19.7603 6.8374 21.4405 6.8374 22.7239 7.49136C23.8529 8.0666 24.7708 8.98449 25.346 10.1135C26 11.3969 26 13.0771 26 16.4374V17.2374C26 20.5977 26 22.2779 25.346 23.5613C24.7708 24.6903 23.8529 25.6082 22.7239 26.1834C21.4405 26.8374 19.7603 26.8374 16.4 26.8374H15.6C12.2397 26.8374 10.5595 26.8374 9.27606 26.1834C8.14708 25.6082 7.2292 24.6903 6.65396 23.5613C6 22.2779 6 20.5977 6 17.2374V16.4374ZM15.6 8.8374H16.4C18.1132 8.8374 19.2777 8.83896 20.1779 8.91251C21.0548 8.98415 21.5032 9.114 21.816 9.27338C22.5686 9.65687 23.1805 10.2688 23.564 11.0214C23.7234 11.3342 23.8533 11.7826 23.9249 12.6595C23.9984 13.5597 24 14.7242 24 16.4374V17.2374C24 18.9506 23.9984 20.1151 23.9249 21.0153C23.8533 21.8922 23.7234 22.3406 23.564 22.6534C23.1805 23.406 22.5686 24.0179 21.816 24.4014C21.5032 24.5608 21.0548 24.6907 20.1779 24.7623C19.2777 24.8358 18.1132 24.8374 16.4 24.8374H15.6C13.8868 24.8374 12.7223 24.8358 11.8221 24.7623C10.9452 24.6907 10.4968 24.5608 10.184 24.4014C9.43139 24.0179 8.81947 23.406 8.43597 22.6534C8.27659 22.3406 8.14674 21.8922 8.0751 21.0153C8.00156 20.1151 8 18.9506 8 17.2374V16.4374C8 14.7242 8.00156 13.5597 8.0751 12.6595C8.14674 11.7826 8.27659 11.3342 8.43597 11.0214C8.81947 10.2688 9.43139 9.65687 10.184 9.27338C10.4968 9.114 10.9452 8.98415 11.8221 8.91251C12.7223 8.83896 13.8868 8.8374 15.6 8.8374Z" fill="white"/>
<defs>
<radialGradient id="paint0_radial_1_10158" cx="0" cy="0" r="1" gradientUnits="userSpaceOnUse" gradientTransform="translate(12 23.8374) rotate(-55.3758) scale(25.5196)">
<stop stop-color="#B13589"/>
<stop offset="0.79309" stop-color="#C62F94"/>
<stop offset="1" stop-color="#8A3AC8"/>
</radialGradient>
<radialGradient id="paint1_radial_1_10158" cx="0" cy="0" r="1" gradientUnits="userSpaceOnUse" gradientTransform="translate(11 31.8374) rotate(-65.1363) scale(22.5942)">
<stop stop-color="#E0E8B7"/>
<stop offset="0.444662" stop-color="#FB8A2E"/>
<stop offset="0.71474" stop-color="#E2425C"/>
<stop offset="1" stop-color="#E2425C" stop-opacity="0"/>
</radialGradient>
<radialGradient id="paint2_radial_1_10158" cx="0" cy="0" r="1" gradientUnits="userSpaceOnUse" gradientTransform="translate(0.500002 3.8374) rotate(-8.1301) scale(38.8909 8.31836)">
<stop offset="0.156701" stop-color="#406ADC"/>
<stop offset="0.467799" stop-color="#6A45BE"/>
<stop offset="1" stop-color="#6A45BE" stop-opacity="0"/>
</radialGradient>
</defs>
</svg>
