<svg width="32" height="33" viewBox="0 0 32 33" fill="none" xmlns="http://www.w3.org/2000/svg">
<rect x="2" y="2.8374" width="28" height="28" rx="14" fill="#1275B1"/>
<path d="M12.6186 10.5296C12.6186 11.4641 11.8085 12.2217 10.8093 12.2217C9.81004 12.2217 9 11.4641 9 10.5296C9 9.595 9.81004 8.8374 10.8093 8.8374C11.8085 8.8374 12.6186 9.595 12.6186 10.5296Z" fill="white"/>
<path d="M9.24742 13.4655H12.3402V22.8374H9.24742V13.4655Z" fill="white"/>
<path d="M17.3196 13.4655H14.2268V22.8374H17.3196C17.3196 22.8374 17.3196 19.887 17.3196 18.0423C17.3196 16.935 17.6977 15.8229 19.2062 15.8229C20.911 15.8229 20.9008 17.2719 20.8928 18.3945C20.8824 19.8618 20.9072 21.3593 20.9072 22.8374H24V17.8911C23.9738 14.7328 23.1508 13.2775 20.4433 13.2775C18.8354 13.2775 17.8387 14.0075 17.3196 14.6679V13.4655Z" fill="white"/>
</svg>
