<svg width="1440" height="598" viewBox="0 0 1440 598" fill="none" xmlns="http://www.w3.org/2000/svg">
<rect width="1440" height="598" fill="white"/>
<mask id="mask0_1_9800" style="mask-type:alpha" maskUnits="userSpaceOnUse" x="552" y="0" width="336" height="336">
<rect width="336" height="336" transform="translate(552)" fill="url(#paint0_radial_1_9800)"/>
</mask>
<g mask="url(#mask0_1_9800)">
<g clip-path="url(#clip0_1_9800)">
<g clip-path="url(#clip1_1_9800)">
<line x1="552.5" x2="552.5" y2="336" stroke="#E0E3FF"/>
<line x1="576.5" x2="576.5" y2="336" stroke="#E0E3FF"/>
<line x1="600.5" x2="600.5" y2="336" stroke="#E0E3FF"/>
<line x1="624.5" x2="624.5" y2="336" stroke="#E0E3FF"/>
<line x1="648.5" x2="648.5" y2="336" stroke="#E0E3FF"/>
<line x1="672.5" x2="672.5" y2="336" stroke="#E0E3FF"/>
<line x1="696.5" x2="696.5" y2="336" stroke="#E0E3FF"/>
<line x1="720.5" x2="720.5" y2="336" stroke="#E0E3FF"/>
<line x1="744.5" x2="744.5" y2="336" stroke="#E0E3FF"/>
<line x1="768.5" x2="768.5" y2="336" stroke="#E0E3FF"/>
<line x1="792.5" x2="792.5" y2="336" stroke="#E0E3FF"/>
<line x1="816.5" x2="816.5" y2="336" stroke="#E0E3FF"/>
<line x1="840.5" x2="840.5" y2="336" stroke="#E0E3FF"/>
<line x1="864.5" x2="864.5" y2="336" stroke="#E0E3FF"/>
</g>
<rect x="552.5" y="0.5" width="335" height="335" stroke="#E0E3FF"/>
<g clip-path="url(#clip2_1_9800)">
<line x1="552" y1="23.5" x2="888" y2="23.5" stroke="#E0E3FF"/>
<line x1="552" y1="47.5" x2="888" y2="47.5" stroke="#E0E3FF"/>
<line x1="552" y1="71.5" x2="888" y2="71.5" stroke="#E0E3FF"/>
<line x1="552" y1="95.5" x2="888" y2="95.5" stroke="#E0E3FF"/>
<line x1="552" y1="119.5" x2="888" y2="119.5" stroke="#E0E3FF"/>
<line x1="552" y1="143.5" x2="888" y2="143.5" stroke="#E0E3FF"/>
<line x1="552" y1="167.5" x2="888" y2="167.5" stroke="#E0E3FF"/>
<line x1="552" y1="191.5" x2="888" y2="191.5" stroke="#E0E3FF"/>
<line x1="552" y1="215.5" x2="888" y2="215.5" stroke="#E0E3FF"/>
<line x1="552" y1="239.5" x2="888" y2="239.5" stroke="#E0E3FF"/>
<line x1="552" y1="263.5" x2="888" y2="263.5" stroke="#E0E3FF"/>
<line x1="552" y1="287.5" x2="888" y2="287.5" stroke="#E0E3FF"/>
<line x1="552" y1="311.5" x2="888" y2="311.5" stroke="#E0E3FF"/>
<line x1="552" y1="335.5" x2="888" y2="335.5" stroke="#E0E3FF"/>
</g>
<rect x="552.5" y="0.5" width="335" height="335" stroke="#E0E3FF"/>
</g>
</g>
<defs>
<radialGradient id="paint0_radial_1_9800" cx="0" cy="0" r="1" gradientUnits="userSpaceOnUse" gradientTransform="translate(168 168) rotate(90) scale(168 168)">
<stop/>
<stop offset="1" stop-opacity="0"/>
</radialGradient>
<clipPath id="clip0_1_9800">
<rect width="336" height="336" fill="white" transform="translate(552)"/>
</clipPath>
<clipPath id="clip1_1_9800">
<rect x="552" width="336" height="336" fill="white"/>
</clipPath>
<clipPath id="clip2_1_9800">
<rect x="552" width="336" height="336" fill="white"/>
</clipPath>
</defs>
</svg>
