<svg width="70" height="70" viewBox="0 0 70 70" fill="none" xmlns="http://www.w3.org/2000/svg">
<g id="icons8-18-plus-48 1">
<g id="Group">
<path id="Vector" d="M25.0834 5.97917C18.0834 8.02083 9.18761 17.6458 7.14594 25.0833C3.35427 39.375 8.60427 54.3958 19.9793 61.3958C28.2918 66.6458 42.4376 66.3542 50.6043 60.9583C60.0834 54.6875 63.4376 47.9792 63.4376 35C63.4376 22.1667 60.0834 15.3125 51.0418 9.33333C44.7709 5.10417 32.8126 3.64583 25.0834 5.97917ZM46.6668 10.5C65.9168 20.2708 65.9168 46.8125 46.6668 56.5833C38.5001 60.6667 31.5001 60.6667 23.3334 56.5833C4.08344 46.8125 4.08344 20.2708 23.3334 10.5C26.8334 8.75 32.0834 7.29167 35.0001 7.29167C37.9168 7.29167 43.1668 8.75 46.6668 10.5Z" fill="black"/>
<path id="Vector_2" d="M20.4167 26.9792C20.4167 28.2917 19.3959 29.6042 18.2292 30.0417C17.0626 30.625 16.0417 31.6458 16.0417 32.375C16.0417 33.25 17.0626 33.5417 18.2292 32.9583C19.8334 32.375 20.4167 33.25 20.4167 36.4583C20.4167 38.9375 19.8334 40.8333 18.9584 40.8333C18.2292 40.8333 17.5001 41.4167 17.5001 42.2917C17.5001 43.0208 19.5417 43.75 21.8751 43.75C24.3542 43.75 26.2501 43.0208 26.2501 42.2917C26.2501 41.4167 25.6667 40.8333 24.7917 40.8333C24.0626 40.8333 23.3334 37.1875 23.3334 32.8125C23.3334 28.4375 22.7501 24.7917 21.8751 24.7917C21.1459 24.7917 20.4167 25.8125 20.4167 26.9792Z" fill="black"/>
<path id="Vector_3" d="M30.7709 26.8333C29.75 28 29.1667 29.75 29.3125 30.9167C29.4584 31.9375 29.0209 33.9792 28.4375 35.5833C26.6875 39.6667 29.4584 43.0208 35 43.0208C40.5417 43.0208 43.3125 39.6667 41.5625 35.5833C40.9792 33.9792 40.5417 31.9375 40.6875 30.9167C41.5625 25.8125 34.125 22.8958 30.7709 26.8333ZM37.9167 29.8958C37.9167 31.0625 36.6042 32.0833 35 32.0833C33.3959 32.0833 32.0834 31.0625 32.0834 29.8958C32.0834 28.7292 33.3959 27.7083 35 27.7083C36.6042 27.7083 37.9167 28.7292 37.9167 29.8958ZM38.6459 37.9167C38.6459 40.5417 33.8334 41.7083 31.7917 39.6667C30.9167 38.7917 30.7709 37.4792 31.3542 36.4583C32.8125 34.125 38.6459 35.2917 38.6459 37.9167Z" fill="black"/>
<path id="Vector_4" d="M49.5835 29.8958C49.5835 31.0625 48.5627 32.0833 47.396 32.0833C46.2293 32.0833 45.2085 32.6667 45.2085 33.5417C45.2085 34.2708 46.2293 35 47.396 35C48.5627 35 49.5835 36.0208 49.5835 37.1875C49.5835 38.3542 50.3127 39.375 51.0418 39.375C51.9168 39.375 52.5002 38.3542 52.5002 37.1875C52.5002 36.0208 53.521 35 54.6877 35C55.8543 35 56.8752 34.2708 56.8752 33.5417C56.8752 32.6667 55.8543 32.0833 54.6877 32.0833C53.521 32.0833 52.5002 31.0625 52.5002 29.8958C52.5002 28.7292 51.9168 27.7083 51.0418 27.7083C50.3127 27.7083 49.5835 28.7292 49.5835 29.8958Z" fill="black"/>
</g>
</g>
</svg>
