<svg width="50" height="51" viewBox="0 0 50 51" fill="none" xmlns="http://www.w3.org/2000/svg">
<g id="Group">
<path id="Vector" d="M14.1845 14.2373C-1.83071 30.2526 -3.49463 36.2843 5.24095 44.8119C13.7685 53.5475 19.8003 51.8835 35.8155 35.8683C51.8307 19.8531 53.4946 13.8214 44.759 5.29378C36.2315 -3.4418 30.1997 -1.77788 14.1845 14.2373ZM42.0552 7.78966C47.4629 12.7814 46.631 19.2291 39.7673 25.8848L33.5276 31.9165L26.8719 26.3008L20.2162 20.685L15.8484 25.0528C13.3526 27.3407 9.81673 29.2126 8.3608 29.2126C6.69688 29.2126 10.8567 23.5969 17.7204 16.7332C30.6157 3.83785 35.6075 1.96594 42.0552 7.78966Z" fill="black"/>
</g>
</svg>
