<svg width="61" height="71" viewBox="0 0 61 71" fill="none" xmlns="http://www.w3.org/2000/svg">
<g id="Group">
<path id="Vector" d="M19.5426 4.48433C16.6739 6.95845 14.3432 10.515 14.3432 12.216C14.3432 14.0716 13.2674 15.4633 11.6538 15.4633C7.17159 15.4633 0 22.5764 0 27.0607C0 30.1534 0.896448 30.9266 4.48224 30.9266C6.9923 30.9266 11.116 29.2256 13.626 27.0607C17.7497 23.5042 18.4668 23.3495 22.0526 25.5144C31.555 31.2358 46.6153 24.2773 46.6153 13.9169C46.6153 7.26772 38.1887 -2.67029e-05 30.4792 -2.67029e-05C26.5349 -2.67029e-05 23.1284 1.39167 19.5426 4.48433ZM38.9059 6.49455C44.1053 10.6696 44.1053 16.5457 39.0851 21.1847C34.2443 25.669 27.4313 25.669 22.0526 21.3393C16.8532 17.1642 16.8532 11.2882 21.8733 6.64919C26.7142 2.16483 33.5272 2.16483 38.9059 6.49455ZM14.3432 20.1022C14.3432 22.1125 7.70946 27.8339 5.37869 27.8339C2.51006 27.8339 3.22721 25.0505 7.17159 21.6486C11.116 18.2467 14.3432 17.6281 14.3432 20.1022Z" fill="black"/>
<path id="Vector_2" d="M12.9089 34.0192C3.22721 39.1221 0 45.4621 0 59.0698C0 75.3062 3.04792 74.3784 3.76508 57.9873C4.48224 45.6167 4.84082 44.6889 10.3988 39.8953C15.9568 34.947 16.6739 34.7924 30.4792 34.7924C44.2846 34.7924 45.0017 34.947 50.5597 39.8953C56.1177 44.6889 56.4762 45.4621 56.4762 56.1317V67.2653H42.1331C30.6585 67.2653 27.7899 66.8014 27.7899 64.9458C27.7899 63.2448 30.3 62.4717 38.1887 62.1624C43.7467 61.8532 48.4082 61.08 48.4082 60.3068C48.4082 59.379 47.1532 58.7605 45.5396 58.7605C43.0295 58.7605 43.0295 58.4512 45.5396 55.3586C49.484 50.4103 49.1254 46.8538 43.926 42.524C37.113 36.4934 32.0929 37.5758 19.9012 47.3177C7.70946 57.0595 5.91656 62.0078 13.0881 67.5746C16.4947 70.5126 19.3633 70.8219 36.5751 70.9765C48.7668 71.1311 56.8348 70.5126 58.4484 69.4302C62.2135 66.8014 61.6757 49.9464 57.7313 43.2972C52.7112 34.6378 44.6431 30.9266 30.6585 30.9266C22.0526 30.9266 17.2118 31.6998 12.9089 34.0192ZM39.0852 45.3074C39.8023 48.4001 34.6029 50.565 31.9136 48.2455C29.2242 45.926 31.7343 41.4416 35.3201 42.0602C37.113 42.3694 38.7266 43.7611 39.0852 45.3074ZM34.9615 52.5752C37.2923 52.5752 40.5195 51.0289 41.9538 49.1733L44.8224 45.7713V49.0186C44.8224 53.503 38.1887 58.7605 32.2721 58.7605C26.8935 58.7605 23.3077 61.2346 23.3077 65.2551C23.3077 68.657 19.184 68.8116 15.4189 65.5643C10.9367 61.6985 12.0124 57.3688 19.184 51.802C25.6384 46.6991 25.8177 46.6991 28.3278 49.6372C29.5828 51.1835 32.6307 52.5752 34.9615 52.5752Z" fill="black"/>
</g>
</svg>
