<svg width="83" height="83" viewBox="0 0 83 83" fill="none" xmlns="http://www.w3.org/2000/svg">
<g id="icons8-syringe-30 1">
<g id="Group">
<path id="Vector" d="M60.0369 11.62C57.8236 19.6433 62.8036 25.4533 70.2736 23.24C78.8502 20.4733 79.1269 19.92 71.9336 12.45C63.9102 3.87333 61.9736 3.87333 60.0369 11.62Z" fill="black"/>
<path id="Vector_2" d="M44.2668 17.43C44.2668 19.3667 37.3501 27.6667 29.0501 35.9667C18.5368 46.48 13.8335 53.12 13.8335 58.1C13.8335 61.9733 12.4501 66.6767 10.5135 68.6133C8.85345 70.2733 8.02345 72.7633 9.13012 73.87C10.2368 74.9767 12.7268 74.1467 14.3868 72.4867C16.3235 70.55 21.0268 69.1667 24.9001 69.1667C29.8801 69.1667 36.5201 64.4633 47.0335 53.95C55.3335 45.65 63.6335 38.7333 65.5701 38.7333C71.6568 38.7333 69.7201 34.86 58.6535 24.07C47.5868 13.28 44.2668 11.62 44.2668 17.43ZM54.7801 28.22C60.0368 33.4767 58.6535 35.4133 51.1835 33.7533C45.6501 32.9233 44.2668 33.7533 44.2668 38.4567C44.2668 41.7767 42.6068 44.2667 40.1168 44.2667C37.9035 44.2667 35.9668 46.2033 35.9668 48.4167C35.9668 50.63 33.7535 52.5667 30.9868 52.5667C28.2201 52.5667 24.6235 53.95 22.6868 55.8867C20.7501 57.8233 19.3668 58.1 19.3668 56.7167C19.3668 53.95 47.3101 24.9 49.8001 24.9C50.6301 24.9 52.8435 26.2833 54.7801 28.22Z" fill="black"/>
</g>
</g>
</svg>
