<svg width="179" height="64" viewBox="0 0 179 64" fill="none" xmlns="http://www.w3.org/2000/svg">
<path d="M21.0676 31.9956H27.649C27.649 24.4325 21.4489 18.3856 13.8281 18.3856V24.9171C17.8263 24.917 21.0676 28.0276 21.0676 31.9956Z" fill="url(#paint0_linear_1_9781)"/>
<path d="M27.646 31.9952H21.0645V9.91989C24.6992 9.91989 27.646 12.8668 27.646 16.5018V31.9952Z" fill="url(#paint1_linear_1_9781)"/>
<path d="M27.646 31.9995H21.0645C21.0645 39.621 27.2645 45.9366 34.8854 45.9366V39.3547C30.8873 39.3547 27.646 35.9982 27.646 31.9995Z" fill="url(#paint2_linear_1_9781)"/>
<path d="M13.8209 39.2864C9.82262 39.2864 6.58139 35.9637 6.58139 31.9958H0C0 39.5588 6.20006 45.8178 13.8209 45.8178C21.4417 45.8178 27.6417 39.5588 27.6417 31.9958H27.6348H21.0601C21.0552 35.9595 17.8161 39.2864 13.8209 39.2864Z" fill="url(#paint3_linear_1_9781)"/>
<path d="M13.8209 24.9171V18.3856C6.20006 18.3856 0 24.4325 0 31.9956H6.58139C6.58139 28.0278 9.82262 24.9171 13.8209 24.9171Z" fill="#5E3FE3"/>
<path d="M0 54.0802C3.63477 54.0802 6.5814 51.1333 6.5814 47.4983V31.9958H0V54.0802Z" fill="#5E3FE3"/>
<path d="M49.7757 42.9016L53.7746 20.3273H62.256C63.976 20.3273 65.3627 20.6176 66.4161 21.198C67.4696 21.7785 68.2221 22.5633 68.6736 23.5522C69.125 24.5412 69.2863 25.6377 69.1573 26.8416C69.0498 28.2821 68.5983 29.5613 67.8028 30.6792C67.0289 31.7972 65.9647 32.6787 64.6102 33.3236C63.2557 33.9686 61.654 34.2911 59.8051 34.2911H55.645L54.1293 42.9016H49.7757ZM56.2577 30.776H60.1276C61.5465 30.776 62.6323 30.4427 63.3847 29.7763C64.1587 29.0883 64.5994 28.1638 64.7069 27.0029C64.7929 26.0354 64.5779 25.2722 64.062 24.7132C63.546 24.1542 62.643 23.8747 61.3531 23.8747H57.4832L56.2577 30.776ZM73.5658 43.2886C72.2114 43.2886 71.1149 42.9983 70.2764 42.4178C69.4595 41.8159 68.9112 40.9666 68.6317 39.8702C68.3522 38.7522 68.3415 37.4193 68.5995 35.8713L70.2119 26.9061H74.5333L73.0176 35.4843C72.8026 36.7958 72.8778 37.817 73.2433 38.548C73.6088 39.2575 74.415 39.6122 75.662 39.6122C76.393 39.6122 77.0702 39.4402 77.6937 39.0962C78.3387 38.7522 78.8761 38.2577 79.3061 37.6128C79.7576 36.9463 80.0694 36.1508 80.2414 35.2263L81.7248 26.9061H86.0784L83.2405 42.9016H79.4674L79.5319 40.3217H79.4674C78.8224 41.2246 78.0054 41.9449 77.0165 42.4823C76.0275 43.0198 74.8773 43.2886 73.5658 43.2886ZM85.3316 42.9016L88.1373 26.9061H91.9427L91.7492 30.0988H91.8137C92.4157 29.2173 93.0391 28.5186 93.6841 28.0026C94.3506 27.4651 95.0708 27.0889 95.8448 26.8739C96.6188 26.6374 97.4572 26.5191 98.3602 26.5191L97.554 31.1307H96.3608C95.6513 31.1307 94.9956 31.206 94.3936 31.3565C93.7916 31.507 93.2649 31.7542 92.8134 32.0982C92.3619 32.4422 91.9749 32.9044 91.6524 33.4849C91.3299 34.0439 91.1042 34.7426 90.9752 35.5811L89.6853 42.9016H85.3316ZM104.065 43.2886C102.517 43.2886 101.195 42.9768 100.099 42.3533C99.0022 41.7299 98.1852 40.8484 97.6477 39.7089C97.1317 38.5695 96.949 37.2473 97.0995 35.7423C97.207 34.4524 97.5295 33.2484 98.0669 32.1304C98.6044 31.0125 99.3139 30.0343 100.195 29.1958C101.077 28.3573 102.087 27.7016 103.227 27.2286C104.388 26.7556 105.656 26.5191 107.032 26.5191C108.537 26.5191 109.816 26.8309 110.87 27.4543C111.923 28.0778 112.708 28.927 113.224 30.002C113.74 31.077 113.933 32.3024 113.804 33.6784C113.783 34.0439 113.729 34.4309 113.643 34.8393C113.557 35.2478 113.471 35.6241 113.385 35.9681H100.131L100.582 33.2914H109.515C109.58 32.6034 109.483 32.0229 109.225 31.55C108.989 31.0555 108.634 30.6792 108.161 30.4212C107.688 30.1418 107.118 30.002 106.452 30.002C105.699 30.002 104.979 30.174 104.291 30.518C103.603 30.8405 103.012 31.335 102.517 32.0014C102.044 32.6679 101.722 33.5171 101.55 34.5491L101.389 35.4843C101.238 36.3443 101.27 37.0968 101.485 37.7418C101.722 38.3652 102.109 38.8597 102.646 39.2252C103.205 39.5692 103.872 39.7412 104.646 39.7412C105.441 39.7412 106.14 39.5692 106.742 39.2252C107.344 38.8597 107.838 38.3975 108.225 37.8385H112.643C112.149 38.8705 111.472 39.7949 110.612 40.6119C109.773 41.4289 108.795 42.0846 107.677 42.5791C106.559 43.0521 105.355 43.2886 104.065 43.2886Z" fill="black"/>
<path d="M113.743 42.9016L117.742 20.3273H122.096L118.71 39.5154H128.61L127.997 42.9016H113.743ZM129.748 42.9016L132.554 26.9061H136.908L134.102 42.9016H129.748ZM135.585 24.6487C134.79 24.6487 134.145 24.4122 133.65 23.9392C133.156 23.4662 132.909 22.875 132.909 22.1655C132.887 21.456 133.124 20.8648 133.618 20.3918C134.134 19.9188 134.79 19.6823 135.585 19.6823C136.381 19.6823 137.026 19.9188 137.52 20.3918C138.036 20.8648 138.294 21.456 138.294 22.1655C138.294 22.875 138.036 23.4662 137.52 23.9392C137.026 24.4122 136.381 24.6487 135.585 24.6487ZM136.513 42.9016L139.319 26.9061H143.092L143.027 29.486H143.092C143.758 28.5616 144.586 27.8413 145.575 27.3253C146.564 26.7879 147.703 26.5191 148.993 26.5191C150.369 26.5191 151.466 26.8201 152.283 27.4221C153.1 28.0026 153.648 28.841 153.927 29.9375C154.207 31.034 154.218 32.3669 153.96 33.9364L152.347 42.9016H148.026L149.542 34.3234C149.757 33.0119 149.66 32.0014 149.251 31.292C148.864 30.561 148.08 30.1955 146.897 30.1955C146.166 30.1955 145.478 30.3675 144.833 30.7115C144.21 31.0555 143.672 31.5607 143.221 32.2272C142.791 32.8722 142.49 33.6569 142.318 34.5814L140.867 42.9016H136.513ZM165.274 42.9016L159.63 34.0009L167.08 26.9061H172.336L162.952 35.4521L163.404 32.6464L170.563 42.9016H165.274ZM154.309 42.9016L158.373 20.0048H162.726L158.663 42.9016H154.309Z" fill="#5E3FE3"/>
<defs>
<linearGradient id="paint0_linear_1_9781" x1="16.047" y1="25.1906" x2="21.2633" y2="25.1906" gradientUnits="userSpaceOnUse">
<stop stop-color="#5E3FE3"/>
<stop offset="1"/>
</linearGradient>
<linearGradient id="paint1_linear_1_9781" x1="12.4644" y1="20.9575" x2="6.77085" y2="20.9575" gradientUnits="userSpaceOnUse">
<stop stop-color="#5E3FE3"/>
<stop offset="1" stop-color="#939598"/>
</linearGradient>
<linearGradient id="paint2_linear_1_9781" x1="30.9977" y1="39.8069" x2="26.9749" y2="37.5618" gradientUnits="userSpaceOnUse">
<stop stop-color="#5E3FE3"/>
<stop offset="1"/>
</linearGradient>
<linearGradient id="paint3_linear_1_9781" x1="12.4533" y1="38.9068" x2="6.75988" y2="38.9068" gradientUnits="userSpaceOnUse">
<stop stop-color="#5E3FE3"/>
<stop offset="1"/>
</linearGradient>
</defs>
</svg>
