<svg width="1440" height="365" viewBox="0 0 1440 365" fill="none" xmlns="http://www.w3.org/2000/svg">
<g clip-path="url(#clip0_223_874)">
<path d="M1441.92 -0.0219727H-0.0834961V364.978H1441.92V-0.0219727Z" fill="#ADA4FF"/>
<mask id="mask0_223_874" style="mask-type:luminance" maskUnits="userSpaceOnUse" x="179" y="269" width="287" height="96">
<path d="M465.377 269.209H179.404V364.978H465.377V269.209Z" fill="white"/>
</mask>
<g mask="url(#mask0_223_874)">
<path d="M434.291 326.872C414.297 308.023 379.44 294.343 341.268 286.452C321.413 282.342 299.755 279.648 278.735 281.583C250.422 284.189 226.56 295.095 212.625 308.337C198.69 321.58 193.671 336.924 192.423 352.042C190.69 372.745 196.222 394.382 218.06 411.654C244.793 432.773 295.706 444.621 343.362 440.803C440.586 433.021 479.118 369.124 434.291 326.872Z" fill="#5E3FE3"/>
</g>
<mask id="mask1_223_874" style="mask-type:luminance" maskUnits="userSpaceOnUse" x="1308" y="163" width="134" height="146">
<path d="M1441.93 163.754H1308.07V308.235H1441.93V163.754Z" fill="white"/>
</mask>
<g mask="url(#mask1_223_874)">
<path d="M1392 178.419C1357.12 189.764 1332.69 208.692 1319.39 229.118C1312.46 239.747 1308.3 251.251 1312.89 262.223C1319.07 276.999 1340.81 289.08 1366.54 295.803C1392.28 302.527 1421.63 304.52 1450.36 304.52C1489.72 304.52 1530.6 300.658 1562.37 288.423C1601.27 273.436 1621.52 246.134 1612.18 221.263C1593.15 170.455 1470.22 152.986 1392 178.419Z" fill="#F4C7B5"/>
</g>
<mask id="mask2_223_874" style="mask-type:luminance" maskUnits="userSpaceOnUse" x="-1" y="-1" width="235" height="155">
<path d="M233.673 -0.0146484H-0.0834961V153.212H233.673V-0.0146484Z" fill="white"/>
</mask>
<g mask="url(#mask2_223_874)">
<path d="M0.623756 16.8631C-34.2616 28.2073 -58.6924 47.1362 -71.9893 67.5616C-78.922 78.1904 -83.0816 89.6952 -78.4921 100.667C-72.3082 115.442 -50.5672 127.524 -24.8331 134.247C0.901062 140.97 30.2541 142.963 58.997 142.963C98.347 142.963 139.222 139.102 170.988 126.903C209.894 111.909 230.137 84.6144 220.806 59.7433C201.783 8.89877 78.8384 -8.56283 0.623756 16.8631Z" fill="#5E3FE3"/>
</g>
<path d="M90.6102 123.268C90.6129 123.57 90.4453 123.866 90.1285 124.118C89.8118 124.369 89.3602 124.566 88.8309 124.683C88.3016 124.799 87.7185 124.831 87.1555 124.772C86.5924 124.714 86.0748 124.57 85.6681 124.357C85.2615 124.144 84.9841 123.872 84.8712 123.576C84.7582 123.279 84.8148 122.972 85.0337 122.693C85.2526 122.414 85.624 122.175 86.1009 122.007C86.5777 121.839 87.1386 121.75 87.7123 121.75C88.4773 121.751 89.2102 121.912 89.7525 122.196C90.2948 122.48 90.6029 122.865 90.6102 123.268Z" fill="#523EC6"/>
<path d="M114.653 124.786C116.245 124.786 117.537 124.106 117.537 123.268C117.537 122.429 116.245 121.75 114.653 121.75C113.06 121.75 111.769 122.429 111.769 123.268C111.769 124.106 113.06 124.786 114.653 124.786Z" fill="#523EC6"/>
<path d="M141.579 124.786C143.172 124.786 144.463 124.106 144.463 123.268C144.463 122.429 143.172 121.75 141.579 121.75C139.987 121.75 138.695 122.429 138.695 123.268C138.695 124.106 139.987 124.786 141.579 124.786Z" fill="#523EC6"/>
<path d="M168.506 124.786C170.098 124.786 171.39 124.106 171.39 123.268C171.39 122.429 170.098 121.75 168.506 121.75C166.913 121.75 165.622 122.429 165.622 123.268C165.622 124.106 166.913 124.786 168.506 124.786Z" fill="#523EC6"/>
<path d="M195.432 124.786C197.025 124.786 198.316 124.106 198.316 123.268C198.316 122.429 197.025 121.75 195.432 121.75C193.84 121.75 192.548 122.429 192.548 123.268C192.548 124.106 193.84 124.786 195.432 124.786Z" fill="#523EC6"/>
<path d="M90.6102 137.284C90.6129 137.586 90.4453 137.882 90.1285 138.134C89.8118 138.385 89.3602 138.582 88.8309 138.699C88.3016 138.815 87.7185 138.847 87.1555 138.789C86.5924 138.731 86.0748 138.586 85.6681 138.373C85.2615 138.16 84.9841 137.888 84.8712 137.592C84.7582 137.296 84.8148 136.988 85.0337 136.709C85.2526 136.43 85.624 136.191 86.1009 136.023C86.5777 135.855 87.1386 135.766 87.7123 135.766C88.4785 135.766 89.2134 135.925 89.7565 136.21C90.2996 136.494 90.6065 136.881 90.6102 137.284Z" fill="#523EC6"/>
<path d="M117.536 137.284C117.539 137.586 117.371 137.882 117.054 138.134C116.736 138.386 116.284 138.583 115.754 138.699C115.224 138.816 114.64 138.846 114.077 138.788C113.513 138.729 112.996 138.584 112.589 138.37C112.183 138.156 111.907 137.884 111.796 137.587C111.684 137.29 111.743 136.983 111.964 136.704C112.185 136.425 112.559 136.187 113.037 136.019C113.516 135.852 114.078 135.764 114.652 135.765C115.417 135.765 116.151 135.925 116.692 136.21C117.233 136.495 117.536 136.881 117.536 137.284Z" fill="#523EC6"/>
<path d="M144.463 137.284C144.466 137.586 144.298 137.882 143.981 138.134C143.663 138.386 143.211 138.583 142.681 138.699C142.151 138.816 141.567 138.846 141.003 138.788C140.44 138.729 139.922 138.584 139.516 138.37C139.11 138.156 138.834 137.884 138.722 137.587C138.611 137.29 138.67 136.983 138.891 136.704C139.112 136.425 139.485 136.187 139.964 136.019C140.443 135.852 141.005 135.764 141.579 135.765C142.344 135.765 143.078 135.925 143.618 136.21C144.159 136.495 144.463 136.881 144.463 137.284Z" fill="#523EC6"/>
<path d="M171.39 137.284C171.393 137.586 171.225 137.882 170.907 138.134C170.59 138.386 170.138 138.583 169.607 138.699C169.077 138.816 168.494 138.846 167.93 138.788C167.367 138.729 166.849 138.584 166.443 138.37C166.037 138.156 165.761 137.884 165.649 137.587C165.538 137.29 165.596 136.983 165.817 136.704C166.039 136.425 166.412 136.187 166.891 136.019C167.369 135.852 167.932 135.764 168.506 135.765C169.271 135.765 170.004 135.925 170.545 136.21C171.086 136.495 171.39 136.881 171.39 137.284Z" fill="#523EC6"/>
<path d="M198.316 137.284C198.316 137.584 198.148 137.877 197.831 138.127C197.515 138.376 197.065 138.571 196.539 138.686C196.013 138.801 195.434 138.832 194.875 138.774C194.316 138.716 193.802 138.572 193.398 138.36C192.994 138.148 192.718 137.879 192.605 137.584C192.493 137.29 192.548 136.985 192.764 136.708C192.98 136.43 193.348 136.193 193.82 136.025C194.292 135.857 194.849 135.767 195.418 135.765C195.798 135.764 196.175 135.803 196.526 135.879C196.878 135.955 197.197 136.066 197.467 136.208C197.736 136.349 197.95 136.516 198.096 136.701C198.241 136.886 198.316 137.084 198.316 137.284Z" fill="#523EC6"/>
<path d="M90.6102 151.3C90.6102 151.602 90.4402 151.897 90.1218 152.148C89.8034 152.398 89.3508 152.594 88.8213 152.709C88.2918 152.825 87.7091 152.855 87.147 152.796C86.5848 152.737 86.0685 152.592 85.6632 152.379C85.2579 152.165 84.982 151.893 84.8701 151.598C84.7583 151.302 84.8157 150.995 85.035 150.716C85.2544 150.437 85.6258 150.199 86.1024 150.031C86.5789 149.864 87.1392 149.774 87.7123 149.774C88.4809 149.774 89.218 149.935 89.7614 150.221C90.3049 150.507 90.6102 150.895 90.6102 151.3Z" fill="#523EC6"/>
<path d="M117.536 151.3C117.536 151.602 117.366 151.897 117.047 152.148C116.728 152.399 116.275 152.595 115.744 152.71C115.214 152.825 114.631 152.855 114.068 152.796C113.506 152.736 112.989 152.59 112.585 152.376C112.18 152.162 111.905 151.889 111.795 151.593C111.684 151.297 111.744 150.99 111.965 150.711C112.187 150.432 112.56 150.195 113.039 150.028C113.517 149.861 114.079 149.773 114.652 149.774C115.032 149.774 115.409 149.814 115.759 149.89C116.11 149.967 116.429 150.08 116.697 150.221C116.965 150.363 117.177 150.532 117.321 150.717C117.465 150.902 117.538 151.1 117.536 151.3Z" fill="#523EC6"/>
<path d="M144.463 151.3C144.463 151.602 144.293 151.897 143.974 152.148C143.655 152.399 143.201 152.595 142.671 152.71C142.141 152.825 141.557 152.855 140.995 152.796C140.432 152.736 139.916 152.59 139.511 152.376C139.107 152.162 138.832 151.889 138.721 151.593C138.611 151.297 138.671 150.99 138.892 150.711C139.114 150.432 139.487 150.195 139.965 150.028C140.444 149.861 141.005 149.773 141.579 149.774C141.959 149.774 142.335 149.814 142.686 149.89C143.037 149.967 143.355 150.08 143.623 150.221C143.891 150.363 144.104 150.532 144.248 150.717C144.392 150.902 144.465 151.1 144.463 151.3Z" fill="#523EC6"/>
<path d="M171.389 151.3C171.389 151.602 171.219 151.897 170.9 152.148C170.581 152.399 170.128 152.595 169.597 152.71C169.067 152.825 168.484 152.855 167.921 152.796C167.359 152.736 166.842 152.59 166.438 152.376C166.033 152.162 165.758 151.889 165.648 151.593C165.538 151.297 165.597 150.99 165.818 150.711C166.04 150.432 166.413 150.195 166.892 150.028C167.37 149.861 167.932 149.773 168.505 149.774C168.885 149.774 169.262 149.814 169.612 149.89C169.963 149.967 170.282 150.08 170.55 150.221C170.818 150.363 171.03 150.532 171.174 150.717C171.318 150.902 171.391 151.1 171.389 151.3Z" fill="#523EC6"/>
<path d="M198.316 151.3C198.314 151.6 198.142 151.893 197.824 152.141C197.505 152.39 197.054 152.584 196.526 152.697C195.999 152.811 195.42 152.84 194.861 152.781C194.303 152.721 193.79 152.576 193.388 152.364C192.986 152.151 192.713 151.88 192.603 151.586C192.493 151.292 192.551 150.987 192.769 150.71C192.988 150.433 193.358 150.196 193.831 150.03C194.305 149.863 194.862 149.774 195.432 149.774C195.812 149.774 196.188 149.814 196.539 149.89C196.89 149.967 197.209 150.08 197.477 150.221C197.745 150.363 197.957 150.531 198.101 150.717C198.245 150.902 198.318 151.1 198.316 151.3Z" fill="#523EC6"/>
<mask id="mask3_223_874" style="mask-type:luminance" maskUnits="userSpaceOnUse" x="911" y="-1" width="283" height="88">
<path d="M1193.35 -0.0146484H911.205V86.7678H1193.35V-0.0146484Z" fill="white"/>
</mask>
<g mask="url(#mask3_223_874)">
<path d="M1164.12 -34.3756C1144.12 -53.2242 1109.27 -66.9044 1071.1 -74.7957C1051.23 -78.8983 1029.59 -81.592 1008.57 -79.6575C980.255 -77.0587 956.378 -66.1452 942.458 -52.9103C928.537 -39.6754 923.504 -24.3162 922.242 -9.20523C920.578 11.4976 926.124 33.1713 947.879 50.4139C974.653 71.5255 1025.54 83.3734 1073.19 79.5555C1170.42 71.781 1208.98 7.87677 1164.12 -34.3756Z" fill="#5E3FE3"/>
</g>
<path d="M1203.24 295.738C1204.83 295.738 1206.12 295.058 1206.12 294.219C1206.12 293.381 1204.83 292.701 1203.24 292.701C1201.64 292.701 1200.35 293.381 1200.35 294.219C1200.35 295.058 1201.64 295.738 1203.24 295.738Z" fill="#523EC6"/>
<path d="M1230.18 295.738C1231.77 295.738 1233.06 295.058 1233.06 294.219C1233.06 293.381 1231.77 292.701 1230.18 292.701C1228.59 292.701 1227.29 293.381 1227.29 294.219C1227.29 295.058 1228.59 295.738 1230.18 295.738Z" fill="#523EC6"/>
<path d="M1257.11 295.738C1258.7 295.738 1259.99 295.058 1259.99 294.219C1259.99 293.381 1258.7 292.701 1257.11 292.701C1255.51 292.701 1254.22 293.381 1254.22 294.219C1254.22 295.058 1255.51 295.738 1257.11 295.738Z" fill="#523EC6"/>
<path d="M1284.03 295.738C1285.62 295.738 1286.92 295.058 1286.92 294.219C1286.92 293.381 1285.62 292.701 1284.03 292.701C1282.44 292.701 1281.15 293.381 1281.15 294.219C1281.15 295.058 1282.44 295.738 1284.03 295.738Z" fill="#523EC6"/>
<path d="M1313.84 294.219C1313.84 294.52 1313.67 294.813 1313.36 295.063C1313.04 295.313 1312.59 295.507 1312.06 295.622C1311.53 295.737 1310.96 295.767 1310.4 295.709C1309.84 295.65 1309.32 295.505 1308.92 295.293C1308.52 295.081 1308.24 294.81 1308.13 294.516C1308.02 294.221 1308.08 293.916 1308.29 293.638C1308.51 293.361 1308.88 293.124 1309.36 292.957C1309.83 292.79 1310.39 292.701 1310.96 292.701C1311.72 292.703 1312.45 292.863 1312.99 293.148C1313.53 293.432 1313.84 293.817 1313.84 294.219Z" fill="#523EC6"/>
<path d="M1203.24 309.754C1204.83 309.754 1206.12 309.074 1206.12 308.235C1206.12 307.397 1204.83 306.717 1203.24 306.717C1201.64 306.717 1200.35 307.397 1200.35 308.235C1200.35 309.074 1201.64 309.754 1203.24 309.754Z" fill="#523EC6"/>
<path d="M1230.18 309.754C1231.77 309.754 1233.06 309.074 1233.06 308.235C1233.06 307.397 1231.77 306.717 1230.18 306.717C1228.59 306.717 1227.29 307.397 1227.29 308.235C1227.29 309.074 1228.59 309.754 1230.18 309.754Z" fill="#523EC6"/>
<path d="M1257.11 309.754C1258.7 309.754 1259.99 309.074 1259.99 308.235C1259.99 307.397 1258.7 306.717 1257.11 306.717C1255.51 306.717 1254.22 307.397 1254.22 308.235C1254.22 309.074 1255.51 309.754 1257.11 309.754Z" fill="#523EC6"/>
<path d="M1284.03 309.754C1285.62 309.754 1286.92 309.074 1286.92 308.235C1286.92 307.397 1285.62 306.717 1284.03 306.717C1282.44 306.717 1281.15 307.397 1281.15 308.235C1281.15 309.074 1282.44 309.754 1284.03 309.754Z" fill="#523EC6"/>
<path d="M1313.84 308.235C1313.84 308.536 1313.67 308.829 1313.36 309.079C1313.04 309.329 1312.59 309.523 1312.06 309.638C1311.53 309.753 1310.96 309.783 1310.4 309.725C1309.84 309.666 1309.32 309.521 1308.92 309.309C1308.52 309.097 1308.24 308.826 1308.13 308.532C1308.02 308.237 1308.08 307.932 1308.29 307.654C1308.51 307.377 1308.88 307.14 1309.36 306.973C1309.83 306.806 1310.39 306.717 1310.96 306.717C1311.72 306.717 1312.46 306.877 1313 307.162C1313.54 307.447 1313.84 307.833 1313.84 308.235Z" fill="#523EC6"/>
<path d="M1203.24 323.762C1204.83 323.762 1206.12 323.083 1206.12 322.244C1206.12 321.405 1204.83 320.726 1203.24 320.726C1201.64 320.726 1200.35 321.405 1200.35 322.244C1200.35 323.083 1201.64 323.762 1203.24 323.762Z" fill="#523EC6"/>
<path d="M1230.18 323.762C1231.77 323.762 1233.06 323.083 1233.06 322.244C1233.06 321.405 1231.77 320.726 1230.18 320.726C1228.59 320.726 1227.29 321.405 1227.29 322.244C1227.29 323.083 1228.59 323.762 1230.18 323.762Z" fill="#523EC6"/>
<path d="M1257.11 323.762C1258.7 323.762 1259.99 323.083 1259.99 322.244C1259.99 321.405 1258.7 320.726 1257.11 320.726C1255.51 320.726 1254.22 321.405 1254.22 322.244C1254.22 323.083 1255.51 323.762 1257.11 323.762Z" fill="#523EC6"/>
<path d="M1284.03 323.762C1285.62 323.762 1286.92 323.083 1286.92 322.244C1286.92 321.405 1285.62 320.726 1284.03 320.726C1282.44 320.726 1281.15 321.405 1281.15 322.244C1281.15 323.083 1282.44 323.762 1284.03 323.762Z" fill="#523EC6"/>
<path d="M1313.84 322.244C1313.84 322.544 1313.67 322.838 1313.36 323.088C1313.04 323.337 1312.59 323.532 1312.06 323.647C1311.53 323.762 1310.96 323.792 1310.4 323.733C1309.84 323.675 1309.32 323.53 1308.92 323.318C1308.52 323.105 1308.24 322.835 1308.13 322.54C1308.02 322.246 1308.08 321.94 1308.29 321.663C1308.51 321.385 1308.88 321.148 1309.36 320.981C1309.83 320.815 1310.39 320.726 1310.96 320.726C1311.72 320.726 1312.46 320.886 1313 321.17C1313.54 321.455 1313.84 321.841 1313.84 322.244Z" fill="#523EC6"/>
<path d="M863.675 37.2739C865.268 37.2739 866.559 36.5941 866.559 35.7555C866.559 34.9169 865.268 34.2371 863.675 34.2371C862.082 34.2371 860.791 34.9169 860.791 35.7555C860.791 36.5941 862.082 37.2739 863.675 37.2739Z" fill="#523EC6"/>
<path d="M890.601 37.2739C892.194 37.2739 893.485 36.5941 893.485 35.7555C893.485 34.9169 892.194 34.2371 890.601 34.2371C889.009 34.2371 887.717 34.9169 887.717 35.7555C887.717 36.5941 889.009 37.2739 890.601 37.2739Z" fill="#523EC6"/>
<path d="M917.542 37.2739C919.135 37.2739 920.426 36.5941 920.426 35.7555C920.426 34.9169 919.135 34.2371 917.542 34.2371C915.949 34.2371 914.658 34.9169 914.658 35.7555C914.658 36.5941 915.949 37.2739 917.542 37.2739Z" fill="#523EC6"/>
<path d="M944.468 37.2739C946.061 37.2739 947.352 36.5941 947.352 35.7555C947.352 34.9169 946.061 34.2371 944.468 34.2371C942.875 34.2371 941.584 34.9169 941.584 35.7555C941.584 36.5941 942.875 37.2739 944.468 37.2739Z" fill="#523EC6"/>
<path d="M971.395 37.2739C972.988 37.2739 974.279 36.5941 974.279 35.7555C974.279 34.9169 972.988 34.2371 971.395 34.2371C969.802 34.2371 968.511 34.9169 968.511 35.7555C968.511 36.5941 969.802 37.2739 971.395 37.2739Z" fill="#523EC6"/>
<path d="M863.675 51.29C865.268 51.29 866.559 50.6102 866.559 49.7716C866.559 48.933 865.268 48.2532 863.675 48.2532C862.082 48.2532 860.791 48.933 860.791 49.7716C860.791 50.6102 862.082 51.29 863.675 51.29Z" fill="#523EC6"/>
<path d="M890.601 51.29C892.194 51.29 893.485 50.6102 893.485 49.7716C893.485 48.933 892.194 48.2532 890.601 48.2532C889.009 48.2532 887.717 48.933 887.717 49.7716C887.717 50.6102 889.009 51.29 890.601 51.29Z" fill="#523EC6"/>
<path d="M917.542 51.29C919.135 51.29 920.426 50.6102 920.426 49.7716C920.426 48.933 919.135 48.2532 917.542 48.2532C915.949 48.2532 914.658 48.933 914.658 49.7716C914.658 50.6102 915.949 51.29 917.542 51.29Z" fill="#523EC6"/>
<path d="M944.468 51.29C946.061 51.29 947.352 50.6102 947.352 49.7716C947.352 48.933 946.061 48.2532 944.468 48.2532C942.875 48.2532 941.584 48.933 941.584 49.7716C941.584 50.6102 942.875 51.29 944.468 51.29Z" fill="#523EC6"/>
<path d="M971.395 51.29C972.988 51.29 974.279 50.6102 974.279 49.7716C974.279 48.933 972.988 48.2532 971.395 48.2532C969.802 48.2532 968.511 48.933 968.511 49.7716C968.511 50.6102 969.802 51.29 971.395 51.29Z" fill="#523EC6"/>
<path d="M863.675 65.2985C865.268 65.2985 866.559 64.6187 866.559 63.7801C866.559 62.9415 865.268 62.2617 863.675 62.2617C862.082 62.2617 860.791 62.9415 860.791 63.7801C860.791 64.6187 862.082 65.2985 863.675 65.2985Z" fill="#523EC6"/>
<path d="M890.601 65.2985C892.194 65.2985 893.485 64.6187 893.485 63.7801C893.485 62.9415 892.194 62.2617 890.601 62.2617C889.009 62.2617 887.717 62.9415 887.717 63.7801C887.717 64.6187 889.009 65.2985 890.601 65.2985Z" fill="#523EC6"/>
<path d="M917.542 65.2985C919.135 65.2985 920.426 64.6187 920.426 63.7801C920.426 62.9415 919.135 62.2617 917.542 62.2617C915.949 62.2617 914.658 62.9415 914.658 63.7801C914.658 64.6187 915.949 65.2985 917.542 65.2985Z" fill="#523EC6"/>
<path d="M944.468 65.2985C946.061 65.2985 947.352 64.6187 947.352 63.7801C947.352 62.9415 946.061 62.2617 944.468 62.2617C942.875 62.2617 941.584 62.9415 941.584 63.7801C941.584 64.6187 942.875 65.2985 944.468 65.2985Z" fill="#523EC6"/>
<path d="M971.395 65.2985C972.988 65.2985 974.279 64.6187 974.279 63.7801C974.279 62.9415 972.988 62.2617 971.395 62.2617C969.802 62.2617 968.511 62.9415 968.511 63.7801C968.511 64.6187 969.802 65.2985 971.395 65.2985Z" fill="#523EC6"/>
<mask id="mask4_223_874" style="mask-type:luminance" maskUnits="userSpaceOnUse" x="-1" y="-1" width="1443" height="366">
<path d="M1441.92 -0.0146484H-0.0834961V364.985H1441.92V-0.0146484Z" fill="white"/>
</mask>
<g mask="url(#mask4_223_874)">
<path d="M149.663 -12.7968C126.439 -2.86153 116.594 14.3519 121.932 29.8717C127.27 45.3915 146.571 59.0279 171.196 68.0142C195.821 77.0005 225.465 81.6433 255.248 83.388C304.07 86.184 353.392 81.561 397.382 70.0655C446.077 57.2905 485.538 36.7921 528.271 19.0677C571.004 1.34327 620.864 -14.3006 675.244 -14.4028" stroke="#5E3FE3" stroke-width="3" stroke-miterlimit="10"/>
<path d="M1113.47 -15.8994C1104.59 6.98609 1121.42 32.1346 1155.6 47.0266C1189.77 61.9186 1239.84 65.9336 1280.9 57.0641C1287.83 55.6041 1294.76 53.5966 1298.44 50.2094C1302.11 46.8222 1301.06 41.7341 1294.47 39.931C1288.76 38.3688 1281.29 39.931 1277.63 42.7342C1273.97 45.5374 1273.47 49.1363 1274.08 52.5089C1276.24 63.4589 1289.67 72.9489 1305.02 80.4241C1351.78 103.258 1416.57 112.099 1478.49 120.136" stroke="#5E3FE3" stroke-width="3" stroke-miterlimit="10"/>
<path d="M-59.8569 305.001C-5.65715 294.781 51.5653 287.394 108.982 289.445C166.398 291.496 224.328 304.045 259.962 327.806C287.61 346.275 301.004 370.599 334.835 385.958C346.416 391.198 359.899 395.144 374.465 397.557C389.031 399.97 404.377 400.799 419.57 399.994C434.764 399.189 449.488 396.767 462.849 392.875C476.21 388.982 487.93 383.701 497.296 377.352C513.449 366.402 522.253 352.685 540.583 342.764C550.627 337.435 562.985 333.474 576.588 331.223C590.191 328.971 604.631 328.498 618.659 329.843C649.524 332.96 674.468 344.531 697.692 355.649L746.887 379.14" stroke="#5E3FE3" stroke-width="3" stroke-miterlimit="10"/>
<path d="M1465.36 220.811C1429.72 224.804 1392.72 233.221 1375.24 250.062C1360.13 264.567 1362.59 282.101 1361.37 298.636C1360.15 315.17 1352.47 333.676 1325.74 342.385C1302.4 349.977 1272.47 347.495 1245.69 344.37C1210.82 340.268 1176.12 335.428 1140.57 333.566C1105.02 331.705 1068.07 332.96 1035.44 340.64C1002.81 348.32 975.056 363.095 966.848 381.403" stroke="#5E3FE3" stroke-width="3" stroke-miterlimit="10"/>
<path d="M520.042 217.665L520.452 198.183C522.366 198.046 523.813 197.978 524.793 197.978C528.029 197.978 530.604 198.707 532.518 200.165C534.432 201.601 535.389 203.879 535.389 207.001C535.389 214.11 530.273 217.665 520.042 217.665ZM520.384 243.676L520.042 219.75C521.865 219.613 523.642 219.545 525.374 219.545C530.273 219.545 534.17 220.445 537.063 222.245C539.957 224.045 541.404 226.882 541.404 230.756C541.404 233.035 540.983 234.994 540.14 236.635C539.297 238.253 538.237 239.506 536.961 240.395C535.708 241.283 534.078 241.99 532.073 242.514C530.068 243.015 528.2 243.334 526.468 243.471C524.759 243.607 522.731 243.676 520.384 243.676ZM525.647 242.206C527.698 242.069 529.498 241.83 531.048 241.488C532.62 241.146 534.113 240.577 535.525 239.779C536.961 238.982 538.066 237.831 538.841 236.327C539.616 234.8 540.003 232.943 540.003 230.756C540.003 228.409 539.205 226.438 537.61 224.843C536.015 223.225 534.135 222.131 531.971 221.562C529.806 220.969 527.584 220.787 525.306 221.015L525.647 242.206ZM525.647 199.447L525.374 216.024C531.116 215.159 533.987 212.151 533.987 207.001C533.987 202.284 531.207 199.766 525.647 199.447ZM505.892 246.205C510.335 246.068 515.633 246 521.785 246C523.836 246 525.682 245.954 527.322 245.863C528.963 245.772 530.923 245.578 533.201 245.282C535.48 244.963 537.474 244.451 539.183 243.744C540.892 243.015 542.532 242.115 544.104 241.044C545.7 239.95 546.919 238.526 547.762 236.771C548.605 234.994 549.026 232.932 549.026 230.585C549.026 227.007 547.625 224.079 544.822 221.801C542.02 219.499 538.567 218.018 534.466 217.357V217.084C537.132 216.241 539.274 214.988 540.892 213.324C542.532 211.638 543.353 209.53 543.353 207.001C543.353 199.504 537.656 195.756 526.263 195.756C525.374 195.756 523.882 195.801 521.785 195.893C519.689 195.984 517.365 196.029 514.812 196.029C512.283 196.029 509.332 195.938 505.96 195.756C505.778 196.166 505.778 196.701 505.96 197.362C511.201 197.864 513.844 198.957 513.89 200.644C514.118 205.998 514.231 212.367 514.231 219.75C514.231 226.973 514.095 234.162 513.821 241.317C513.776 243.004 511.132 244.097 505.892 244.599C505.709 244.963 505.709 245.499 505.892 246.205ZM505.003 194.286C508.307 194.423 511.429 194.491 514.368 194.491C517.308 194.491 520.179 194.468 522.981 194.423C525.784 194.377 527.698 194.354 528.724 194.354C530.638 194.354 532.369 194.423 533.919 194.56C535.491 194.696 537.234 195.027 539.148 195.551C541.062 196.052 542.669 196.736 543.968 197.602C545.289 198.467 546.395 199.709 547.283 201.327C548.172 202.922 548.616 204.813 548.616 207.001C548.616 211.057 546.372 214.327 541.883 216.811C545.574 217.882 548.559 219.602 550.838 221.972C553.139 224.319 554.29 227.19 554.29 230.585C554.29 232.795 553.914 234.778 553.162 236.532C552.41 238.264 551.453 239.711 550.291 240.873C549.129 242.012 547.648 243.004 545.848 243.847C544.048 244.667 542.316 245.305 540.652 245.761C538.989 246.194 537.075 246.535 534.91 246.786C532.745 247.06 530.888 247.23 529.339 247.299C527.812 247.367 526.115 247.401 524.246 247.401C518.823 247.401 512.386 247.493 504.935 247.675C504.365 246.103 504.365 244.633 504.935 243.266C509.879 242.764 512.374 242.092 512.42 241.249C512.693 234.094 512.83 226.928 512.83 219.75C512.83 212.413 512.716 206.067 512.488 200.712C512.443 199.869 509.902 199.197 504.866 198.695C504.479 197.237 504.524 195.767 505.003 194.286ZM575.926 217.152C577.749 217.152 579.07 217.745 579.891 218.93C580.711 220.092 581.121 221.55 581.121 223.305C581.121 223.965 581.007 224.717 580.779 225.561H567.449C568.156 222.712 569.295 220.604 570.867 219.237C572.462 217.847 574.148 217.152 575.926 217.152ZM567.107 227.885H585.735C586.1 226.745 586.282 225.572 586.282 224.364C586.282 221.698 585.519 219.465 583.992 217.665C582.488 215.842 580.084 214.931 576.78 214.931C572.474 214.931 568.851 216.492 565.911 219.613C562.972 222.735 561.502 226.7 561.502 231.508C561.502 236.635 562.903 240.497 565.706 243.095C568.509 245.692 571.801 246.991 575.584 246.991C578.387 246.991 580.984 246.239 583.377 244.735C585.792 243.209 587.558 240.919 588.675 237.865C588.356 237.501 587.911 237.25 587.342 237.113C587.251 237.25 586.977 237.626 586.521 238.241C586.089 238.834 585.77 239.267 585.564 239.54C585.359 239.791 584.983 240.167 584.437 240.668C583.912 241.146 583.4 241.5 582.898 241.728C582.42 241.955 581.805 242.183 581.053 242.411C580.301 242.616 579.48 242.719 578.592 242.719C575.083 242.719 572.291 241.682 570.218 239.608C568.144 237.512 567.062 234.698 566.971 231.166C566.971 230.368 567.016 229.275 567.107 227.885ZM586.795 235.507C588.23 235.826 589.393 236.544 590.281 237.66C588.982 241.215 586.977 243.892 584.266 245.692C581.554 247.493 578.66 248.393 575.584 248.393C571.391 248.393 567.757 246.98 564.681 244.154C561.627 241.329 560.101 237.113 560.101 231.508C560.101 226.426 561.661 222.165 564.783 218.725C567.928 215.261 572.371 213.529 578.113 213.529C586.795 213.529 591.136 217.141 591.136 224.364C591.136 225.777 590.805 227.418 590.145 229.286H571.79V231.508C571.904 234.265 572.656 236.509 574.046 238.241C575.436 239.95 577.35 240.953 579.788 241.249C581.224 241.112 582.409 240.622 583.343 239.779C584.277 238.936 585.428 237.512 586.795 235.507ZM579.72 223.305C579.72 220.798 578.877 219.283 577.19 218.759C575.185 219.374 573.693 221.174 572.713 224.159H579.651C579.651 224.068 579.663 223.931 579.686 223.749C579.708 223.567 579.72 223.419 579.72 223.305ZM670.262 244.599C668.986 244.53 667.744 244.439 666.536 244.325C665.351 244.188 664.269 244.006 663.289 243.778C662.309 243.55 661.478 243.254 660.794 242.89C660.133 242.502 659.7 242.024 659.495 241.454L640.594 194.765C640.206 194.787 639.83 194.947 639.466 195.243C639.306 198.069 638.44 200.336 636.868 202.045L637.654 204.062L623.23 240.326C622.319 242.605 619.516 244.029 614.822 244.599C614.686 244.918 614.617 245.202 614.617 245.453C614.617 245.727 614.686 246 614.822 246.273C617.42 246.182 619.505 246.114 621.077 246.068C622.672 246.023 623.766 246 624.358 246C624.882 246 626.067 246.023 627.913 246.068C629.782 246.114 632.311 246.182 635.501 246.273C635.638 246 635.706 245.727 635.706 245.453C635.706 245.202 635.638 244.918 635.501 244.599C633.61 244.416 632.072 244.223 630.887 244.018C629.702 243.79 628.779 243.55 628.118 243.3C627.457 243.049 627.013 242.776 626.785 242.479C626.557 242.16 626.443 241.807 626.443 241.42C626.443 241.169 626.489 240.919 626.58 240.668L631.57 228.158C634.1 228.113 636.139 228.078 637.688 228.056C639.261 228.033 640.343 228.021 640.936 228.021C642.234 228.021 643.385 228.033 644.388 228.056C645.413 228.056 646.29 228.067 647.02 228.09L651.976 240.668C652.09 241.01 652.146 241.272 652.146 241.454C652.146 242.069 651.827 242.616 651.189 243.095C650.574 243.573 649.811 243.904 648.899 244.086L645.208 244.599C645.071 244.918 645.003 245.202 645.003 245.453C645.003 245.727 645.071 246 645.208 246.273C647.145 246.205 649.104 246.148 651.087 246.103C653.092 246.057 655.143 246.034 657.239 246.034C659.336 246.034 661.455 246.057 663.597 246.103C665.761 246.148 667.983 246.205 670.262 246.273C670.421 245.954 670.501 245.681 670.501 245.453C670.501 245.316 670.478 245.18 670.433 245.043C670.387 244.906 670.33 244.758 670.262 244.599ZM640.936 225.355C637.632 225.355 634.909 225.31 632.767 225.219L639.261 208.471H639.397L645.926 225.287C644.695 225.333 643.032 225.355 640.936 225.355ZM639.329 212.06L634.783 223.886C637.54 224.022 640.571 224.045 643.875 223.954L639.329 212.06ZM671.321 243.334C671.891 244.701 671.868 246.148 671.253 247.675H644.148C643.602 246.103 643.602 244.656 644.148 243.334C646.632 243.197 648.387 242.947 649.412 242.582C650.438 242.195 650.791 241.579 650.472 240.736L645.994 229.423C641.779 229.263 637.267 229.309 632.459 229.56L628.05 240.873C627.913 241.26 628.016 241.614 628.357 241.933C628.722 242.229 629.303 242.468 630.101 242.65C630.898 242.833 631.832 242.981 632.903 243.095C633.974 243.209 635.182 243.288 636.526 243.334C637.096 244.701 637.073 246.148 636.458 247.675C628.984 247.401 621.453 247.401 613.865 247.675C613.25 246.148 613.227 244.701 613.797 243.334C618.491 242.787 621.146 241.762 621.761 240.258L636.185 203.993C636.093 203.811 635.911 203.401 635.638 202.763C635.387 202.102 635.239 201.669 635.193 201.464C636.971 199.664 637.951 197.34 638.133 194.491C640.138 193.511 642.496 192.953 645.208 192.816L664.383 240.395C664.816 241.465 665.499 242.183 666.434 242.548C667.368 242.89 668.997 243.152 671.321 243.334ZM708.987 198.627C711.471 198.331 714.091 198.183 716.849 198.183C719.879 198.183 722.591 198.661 724.983 199.618C727.399 200.575 729.347 201.806 730.828 203.31C732.332 204.791 733.562 206.545 734.52 208.573C735.477 210.601 736.137 212.618 736.502 214.623C736.889 216.605 737.083 218.645 737.083 220.741C737.083 227.646 735.146 233.171 731.272 237.318C727.399 241.465 721.816 243.539 714.524 243.539L708.919 243.471C708.691 234.014 708.577 226.951 708.577 222.279C708.577 213.826 708.714 205.941 708.987 198.627ZM716.336 247.401C708.702 247.401 701.08 247.493 693.47 247.675C692.9 246.103 692.9 244.633 693.47 243.266C698.414 242.764 700.91 242.092 700.955 241.249C701.229 234.094 701.365 226.928 701.365 219.75C701.365 212.413 701.251 206.067 701.023 200.712C700.978 199.869 698.437 199.197 693.401 198.695C693.014 197.237 693.06 195.767 693.538 194.286C696.341 194.332 705.068 194.354 719.72 194.354C722.887 194.354 725.792 194.548 728.436 194.936C731.102 195.323 733.813 196.109 736.57 197.294C739.327 198.456 741.652 199.983 743.543 201.874C745.434 203.765 746.972 206.317 748.157 209.53C749.342 212.743 749.935 216.503 749.935 220.81C749.935 224.911 749.24 228.546 747.85 231.713C746.46 234.88 744.637 237.432 742.381 239.369C740.148 241.306 737.516 242.901 734.485 244.154C731.455 245.385 728.47 246.228 725.53 246.684C722.591 247.162 719.526 247.401 716.336 247.401ZM714.251 199.857C713.978 207.855 713.841 215.329 713.841 222.279C713.841 227.93 713.932 234.55 714.114 242.138C721.292 241.955 726.681 239.939 730.281 236.088C733.882 232.237 735.682 227.121 735.682 220.741C735.682 218.257 735.385 215.888 734.793 213.632C734.201 211.353 733.255 209.143 731.956 207.001C730.657 204.859 728.755 203.127 726.248 201.806C723.764 200.461 720.836 199.743 717.464 199.652C716.347 199.652 715.276 199.721 714.251 199.857ZM694.427 246.205C699.326 246.068 705.82 246 713.909 246C716.803 246 719.594 245.784 722.283 245.351C724.995 244.895 727.741 244.075 730.521 242.89C733.3 241.705 735.704 240.201 737.732 238.378C739.76 236.555 741.424 234.128 742.723 231.098C744.044 228.067 744.705 224.615 744.705 220.741C744.705 204.084 735.556 195.756 717.259 195.756C715.573 195.756 713.18 195.79 710.081 195.858C706.982 195.927 704.168 195.961 701.639 195.961C699.132 195.961 696.751 195.893 694.495 195.756C694.313 196.166 694.313 196.701 694.495 197.362C699.736 197.864 702.379 198.957 702.425 200.644C702.653 205.998 702.767 212.367 702.767 219.75C702.767 226.973 702.63 234.162 702.356 241.317C702.311 243.004 699.668 244.097 694.427 244.599C694.199 245.123 694.199 245.658 694.427 246.205ZM772.938 217.152C775.285 217.152 777.142 218.28 778.509 220.536C779.899 222.769 780.594 226.244 780.594 230.961C780.594 235.678 779.899 239.153 778.509 241.386C777.142 243.619 775.285 244.735 772.938 244.735C771.639 244.735 770.454 244.462 769.383 243.915C768.335 243.368 767.435 242.525 766.683 241.386C765.953 240.246 765.384 238.822 764.974 237.113C764.563 235.382 764.358 233.331 764.358 230.961C764.358 228.614 764.563 226.575 764.974 224.843C765.384 223.088 765.953 221.653 766.683 220.536C767.435 219.397 768.335 218.554 769.383 218.007C770.454 217.437 771.639 217.152 772.938 217.152ZM772.938 246.991C775.057 246.991 776.959 246.592 778.646 245.795C780.332 244.997 781.767 243.892 782.952 242.479C784.16 241.044 785.083 239.346 785.721 237.387C786.359 235.427 786.678 233.285 786.678 230.961C786.678 228.637 786.359 226.495 785.721 224.535C785.083 222.576 784.16 220.889 782.952 219.477C781.767 218.041 780.332 216.924 778.646 216.127C776.959 215.329 775.057 214.931 772.938 214.931C770.682 214.931 768.642 215.329 766.819 216.127C764.996 216.924 763.447 218.03 762.171 219.442C760.918 220.855 759.949 222.553 759.266 224.535C758.582 226.495 758.24 228.637 758.24 230.961C758.24 233.308 758.582 235.461 759.266 237.421C759.949 239.381 760.918 241.078 762.171 242.514C763.447 243.926 764.996 245.032 766.819 245.829C768.642 246.604 770.682 246.991 772.938 246.991ZM774.134 213.529C776.891 213.529 779.34 213.951 781.482 214.794C783.647 215.637 785.47 216.833 786.951 218.383C788.432 219.91 789.56 221.744 790.335 223.886C791.11 226.028 791.497 228.386 791.497 230.961C791.497 233.513 791.11 235.86 790.335 238.002C789.56 240.144 788.432 241.99 786.951 243.539C785.493 245.066 783.681 246.251 781.517 247.094C779.352 247.96 776.891 248.393 774.134 248.393C771.399 248.393 768.95 247.96 766.785 247.094C764.643 246.251 762.832 245.066 761.351 243.539C759.892 241.99 758.776 240.155 758.001 238.036C757.226 235.894 756.839 233.536 756.839 230.961C756.839 228.386 757.226 226.028 758.001 223.886C758.776 221.744 759.904 219.91 761.385 218.383C762.866 216.833 764.677 215.637 766.819 214.794C768.961 213.951 771.399 213.529 774.134 213.529ZM769.178 230.961C769.178 238.321 770.83 242.4 774.134 243.197C777.506 242.4 779.192 238.321 779.192 230.961C779.192 223.669 777.506 219.579 774.134 218.69C770.83 219.579 769.178 223.669 769.178 230.961ZM820.379 244.428C820.105 244.952 820.105 245.51 820.379 246.103C826.303 245.966 832.239 245.966 838.187 246.103C838.506 245.556 838.506 244.997 838.187 244.428C832.627 244.154 829.824 243.061 829.778 241.146L829.437 223.954C829.323 220.832 828.81 218.554 827.898 217.118C827.01 215.66 825.438 214.931 823.182 214.931C819.399 214.931 814.899 217.54 809.681 222.758V215.956C809.498 215.591 809.1 215.295 808.484 215.067C805.317 216.549 802.024 217.483 798.606 217.87C798.47 218.417 798.47 218.952 798.606 219.477C801.227 219.613 803.164 220.08 804.417 220.878C804.668 227.691 804.668 234.447 804.417 241.146C804.371 242.833 802.412 243.926 798.538 244.428C798.265 244.952 798.265 245.51 798.538 246.103C804.463 245.875 810.421 245.875 816.414 246.103C816.688 245.51 816.688 244.952 816.414 244.428C812.153 243.972 810 242.878 809.954 241.146C809.772 236.407 809.681 231.007 809.681 224.945C814.261 220.912 817.85 218.896 820.447 218.896C822.931 218.896 824.173 220.958 824.173 225.082L824.104 241.146C824.104 242.263 823.763 243.049 823.079 243.505C822.396 243.938 821.495 244.245 820.379 244.428ZM819.285 247.299C818.715 245.954 818.715 244.576 819.285 243.163C820.014 243.163 820.766 242.969 821.541 242.582C822.316 242.172 822.703 241.693 822.703 241.146L822.771 225.082C822.771 222.598 822.282 221.083 821.302 220.536C819.616 220.946 817.348 222.177 814.5 224.228C814.5 230.494 814.591 236.111 814.773 241.078C814.887 242.286 815.799 242.981 817.508 243.163C818.077 244.576 818.077 245.954 817.508 247.299C810.831 247.071 804.121 247.071 797.376 247.299C796.806 245.954 796.806 244.576 797.376 243.163C801.09 242.662 802.97 241.967 803.016 241.078C803.266 234.652 803.266 228.192 803.016 221.698C801.489 221.243 799.609 220.946 797.376 220.81C796.852 219.442 796.852 217.995 797.376 216.469C800.817 216.286 804.69 215.261 808.997 213.393C811.458 213.575 813.292 214.315 814.5 215.614V216.742C817.736 214.6 821.45 213.529 825.643 213.529C828.719 213.529 830.906 214.372 832.205 216.059C833.527 217.722 834.21 220.354 834.256 223.954C834.347 233 834.461 238.731 834.598 241.146C834.643 242.081 836.25 242.753 839.417 243.163C839.941 244.667 839.896 246.046 839.28 247.299C832.604 247.162 825.939 247.162 819.285 247.299ZM860.438 217.152C862.785 217.152 864.642 218.28 866.009 220.536C867.399 222.769 868.094 226.244 868.094 230.961C868.094 235.678 867.399 239.153 866.009 241.386C864.642 243.619 862.785 244.735 860.438 244.735C859.139 244.735 857.954 244.462 856.883 243.915C855.835 243.368 854.935 242.525 854.183 241.386C853.453 240.246 852.884 238.822 852.474 237.113C852.063 235.382 851.858 233.331 851.858 230.961C851.858 228.614 852.063 226.575 852.474 224.843C852.884 223.088 853.453 221.653 854.183 220.536C854.935 219.397 855.835 218.554 856.883 218.007C857.954 217.437 859.139 217.152 860.438 217.152ZM860.438 246.991C862.557 246.991 864.459 246.592 866.146 245.795C867.832 244.997 869.267 243.892 870.452 242.479C871.66 241.044 872.583 239.346 873.221 237.387C873.859 235.427 874.178 233.285 874.178 230.961C874.178 228.637 873.859 226.495 873.221 224.535C872.583 222.576 871.66 220.889 870.452 219.477C869.267 218.041 867.832 216.924 866.146 216.127C864.459 215.329 862.557 214.931 860.438 214.931C858.182 214.931 856.142 215.329 854.319 216.127C852.496 216.924 850.947 218.03 849.671 219.442C848.418 220.855 847.449 222.553 846.766 224.535C846.082 226.495 845.74 228.637 845.74 230.961C845.74 233.308 846.082 235.461 846.766 237.421C847.449 239.381 848.418 241.078 849.671 242.514C850.947 243.926 852.496 245.032 854.319 245.829C856.142 246.604 858.182 246.991 860.438 246.991ZM861.634 213.529C864.391 213.529 866.84 213.951 868.982 214.794C871.147 215.637 872.97 216.833 874.451 218.383C875.932 219.91 877.06 221.744 877.835 223.886C878.61 226.028 878.997 228.386 878.997 230.961C878.997 233.513 878.61 235.86 877.835 238.002C877.06 240.144 875.932 241.99 874.451 243.539C872.993 245.066 871.181 246.251 869.017 247.094C866.852 247.96 864.391 248.393 861.634 248.393C858.899 248.393 856.45 247.96 854.285 247.094C852.143 246.251 850.332 245.066 848.851 243.539C847.392 241.99 846.276 240.155 845.501 238.036C844.726 235.894 844.339 233.536 844.339 230.961C844.339 228.386 844.726 226.028 845.501 223.886C846.276 221.744 847.404 219.91 848.885 218.383C850.366 216.833 852.177 215.637 854.319 214.794C856.461 213.951 858.899 213.529 861.634 213.529ZM856.678 230.961C856.678 238.321 858.33 242.4 861.634 243.197C865.006 242.4 866.692 238.321 866.692 230.961C866.692 223.669 865.006 219.579 861.634 218.69C858.33 219.579 856.678 223.669 856.678 230.961ZM897.591 226.757C898.16 224.66 899.334 222.621 901.111 220.639C902.889 218.656 904.7 217.665 906.546 217.665C908.711 217.665 909.793 218.36 909.793 219.75C909.793 221.003 909.201 221.801 908.016 222.143C907.697 222.598 907.697 223.134 908.016 223.749C909.246 223.749 910.249 223.373 911.023 222.621C911.821 221.869 912.22 220.821 912.22 219.477C912.22 218.064 911.787 216.959 910.921 216.161C910.078 215.341 908.973 214.931 907.605 214.931C905.828 214.931 904.039 215.648 902.239 217.084C900.462 218.497 898.912 220.08 897.591 221.835V215.956C897.409 215.591 897.021 215.295 896.429 215.067C893.375 216.503 889.843 217.437 885.833 217.87C885.696 218.417 885.696 218.952 885.833 219.477C888.909 219.613 891.108 220.08 892.43 220.878C892.612 229.377 892.589 236.19 892.361 241.317C892.316 243.004 890.379 244.097 886.551 244.599C886.209 245.214 886.209 245.749 886.551 246.205C892.521 245.932 899.026 245.932 906.067 246.205C906.386 245.749 906.386 245.214 906.067 244.599C900.667 244.097 897.944 243.004 897.898 241.317C897.693 236.692 897.591 231.838 897.591 226.757ZM902.718 241.249C902.763 242.138 904.301 242.833 907.332 243.334C908.084 244.838 908.038 246.285 907.195 247.675C897.534 247.356 890.231 247.287 885.286 247.47C884.443 246.125 884.397 244.747 885.149 243.334C888.978 242.833 890.914 242.138 890.96 241.249C891.233 234.755 891.256 228.238 891.028 221.698C889.524 221.243 887.451 220.946 884.808 220.81C884.284 219.442 884.284 217.995 884.808 216.469C888.613 216.241 892.646 215.215 896.907 213.393C899.368 213.666 901.214 214.407 902.444 215.614C904.358 214.224 906.079 213.529 907.605 213.529C909.383 213.529 910.83 214.053 911.946 215.102C913.063 216.15 913.621 217.608 913.621 219.477C913.621 221.254 913.097 222.644 912.049 223.646C911.001 224.649 909.656 225.15 908.016 225.15C906.489 225.15 905.213 224.638 904.188 223.612C903.253 224.866 902.672 226.005 902.444 227.03C902.444 231.975 902.535 236.715 902.718 241.249Z" fill="black"/>
</g>
<path d="M1318.9 153.212L1141.3 237.002L1081.56 243.805L1010.59 248.229C1011.16 250.735 1013.32 253.065 1016.72 254.84C1020.13 256.616 1024.57 257.731 1029.34 258.004L1072.32 259.092L970.05 280.305C968.983 280.523 968.011 280.853 967.194 281.274C966.376 281.696 965.729 282.2 965.292 282.757C964.855 283.314 964.637 283.912 964.652 284.514C964.667 285.117 964.914 285.711 965.378 286.262C966.228 287.271 967.76 288.079 969.675 288.528C971.591 288.977 973.755 289.036 975.749 288.693L1054.02 275.254L985.857 298.555C983.79 299.267 982.326 300.372 981.773 301.639C981.219 302.906 981.62 304.237 982.889 305.352C984.159 306.467 986.2 307.28 988.583 307.62C990.967 307.96 993.508 307.801 995.673 307.177L1074.57 284.182L1019.11 308.075C1017.43 308.788 1016.33 309.812 1016.03 310.938C1015.74 312.064 1016.27 313.206 1017.52 314.132C1018.77 315.059 1020.65 315.698 1022.76 315.921C1024.88 316.144 1027.08 315.933 1028.91 315.331L1098.35 292.861L1062.93 310.929C1061.49 311.656 1060.61 312.64 1060.48 313.688C1060.34 314.737 1060.94 315.776 1062.18 316.601C1063.42 317.426 1065.2 317.979 1067.16 318.152C1069.13 318.325 1071.16 318.105 1072.83 317.535L1184.85 277.042L1405.44 210.488C1381.96 179.522 1338.88 160.673 1318.9 153.212Z" fill="#F7BBA1"/>
<path d="M1441.92 95.1704V199.473L1405.45 210.474C1393.14 194.565 1374.9 180.118 1351.79 167.988C1351.29 167.725 1350.79 167.47 1350.31 167.207C1340.57 162.102 1330.06 157.422 1318.88 153.213L1441.92 95.1704Z" fill="#DF3C59"/>
<path d="M1067.15 258.975L1095.57 260.99C1110.27 272.385 1153.59 261.968 1153.59 261.968L1171.54 257.99" stroke="#E2A286" stroke-width="2" stroke-miterlimit="10"/>
<path d="M122.93 153.212L300.532 237.002L360.278 243.805L431.241 248.229C430.676 250.735 428.515 253.065 425.11 254.84C421.706 256.616 417.259 257.731 412.495 258.004L369.512 259.092L471.783 280.305C472.85 280.523 473.822 280.853 474.64 281.274C475.458 281.696 476.105 282.2 476.542 282.757C476.978 283.314 477.196 283.912 477.181 284.514C477.167 285.117 476.92 285.711 476.456 286.262C475.605 287.271 474.074 288.079 472.158 288.528C470.242 288.977 468.078 289.036 466.084 288.693L387.814 275.254L455.977 298.555C458.044 299.267 459.508 300.372 460.061 301.639C460.614 302.906 460.214 304.237 458.944 305.352C457.674 306.467 455.634 307.28 453.25 307.62C450.867 307.96 448.326 307.801 446.16 307.177L367.266 284.182L422.727 308.075C424.408 308.788 425.508 309.812 425.803 310.938C426.098 312.064 425.566 313.206 424.314 314.132C423.063 315.059 421.188 315.698 419.071 315.921C416.954 316.144 414.756 315.933 412.925 315.331L343.487 292.861L378.899 310.929C380.342 311.656 381.219 312.64 381.358 313.688C381.497 314.737 380.889 315.776 379.652 316.601C378.415 317.426 376.638 317.979 374.668 318.152C372.699 318.325 370.677 318.105 368.999 317.535L256.967 277.02L36.3823 210.466C59.8703 179.522 102.95 160.673 122.93 153.212Z" fill="#A56C58"/>
<path d="M122.93 153.212C102.95 160.673 59.8704 179.492 36.3825 210.474L-0.0834961 199.473V95.1702L122.93 153.212Z" fill="#3A0D19"/>
<path d="M374.684 258.975L346.26 260.99C331.563 272.385 288.247 261.968 288.247 261.968L270.292 257.99" stroke="#7A4A3B" stroke-width="2" stroke-miterlimit="10"/>
<path opacity="0.72" d="M205.304 222.898C180.721 210.605 179.307 188.961 196.112 173.463C212.916 157.965 244.211 148.066 276.711 142.985C303.127 138.865 330.813 137.491 358.226 138.941C367.03 139.415 377.443 140.89 380.036 145.343C382.629 149.796 374.282 154.526 365.422 154.57C356.562 154.614 348.783 151.059 345.151 146.825C332.464 132.188 358.669 118.494 383.738 114.705C418.296 109.598 454.258 107.635 490.072 108.901C526.371 110.077 559.898 115.961 595.448 119.121C645.114 123.501 693.768 126.049 740.633 114.157C757.812 109.777 774.562 101.747 783.699 92.732C787.173 89.2017 789.689 85.4322 791.172 81.5338C792.866 77.0096 791.86 72.3204 788.292 68.1092C784.724 63.898 778.769 60.3711 771.243 58.0122C763.718 55.6533 754.99 54.5779 746.258 54.9336C737.526 55.2892 729.216 57.0585 722.469 59.9988C719.377 61.342 716.493 63.1305 716.424 65.2329C716.355 67.3353 720.667 69.445 724.286 68.5325C725.286 68.231 726.1 67.7844 726.631 67.2459C727.162 66.7074 727.388 66.0998 727.281 65.4957C727.024 64.2822 726.153 63.1274 724.757 62.1523C716.909 56.0276 701.505 53.1806 687.806 54.7355C674.107 56.2904 662.696 61.8457 657.302 68.6493C651.908 75.4529 652.449 83.3077 657.302 90.2135C662.155 97.1193 671.056 103.105 681.761 107.828C696.145 114.258 713.463 118.603 732.009 120.435C751.808 122.406 772.301 121.99 792.101 120.268C887.121 112.011 981.932 97.9442 1077.91 102.069C1097.71 102.915 1118.28 104.602 1134.41 110.705C1150.54 116.807 1160.53 128.568 1152.28 138.08C1148.62 142.306 1140.84 145.861 1132.02 145.818C1123.21 145.774 1114.83 141.058 1117.47 136.612C1120.1 132.167 1130.47 130.685 1139.28 130.217C1166.69 128.768 1194.38 130.141 1220.79 134.262C1253.29 139.372 1284.57 149.234 1301.39 164.732C1318.21 180.23 1316.77 201.882 1292.2 214.175" stroke="white" stroke-width="8" stroke-miterlimit="10" stroke-linecap="round"/>
<path d="M205.304 222.898C180.721 210.605 179.307 188.961 196.112 173.463C212.916 157.965 244.211 148.066 276.711 142.985C303.127 138.865 330.813 137.491 358.226 138.941C367.03 139.415 377.443 140.89 380.036 145.343C382.629 149.796 374.282 154.526 365.422 154.57C356.562 154.614 348.783 151.059 345.151 146.825C332.464 132.188 358.669 118.494 383.738 114.705C418.296 109.598 454.258 107.635 490.072 108.901C526.371 110.077 559.898 115.961 595.448 119.121C645.114 123.501 693.768 126.049 740.633 114.157C757.812 109.777 774.562 101.747 783.699 92.732C787.173 89.2017 789.689 85.4322 791.172 81.5338C792.866 77.0096 791.86 72.3204 788.292 68.1092C784.724 63.898 778.769 60.3711 771.243 58.0122C763.718 55.6533 754.99 54.5779 746.258 54.9336C737.526 55.2892 729.216 57.0585 722.469 59.9988C719.377 61.342 716.493 63.1305 716.424 65.2329C716.355 67.3353 720.667 69.445 724.286 68.5325C725.286 68.231 726.1 67.7844 726.631 67.2459C727.162 66.7074 727.388 66.0998 727.281 65.4957C727.024 64.2822 726.153 63.1274 724.757 62.1523C716.909 56.0276 701.505 53.1806 687.806 54.7355C674.107 56.2904 662.696 61.8457 657.302 68.6493C651.908 75.4529 652.449 83.3077 657.302 90.2135C662.155 97.1193 671.056 103.105 681.761 107.828C696.145 114.258 713.463 118.603 732.009 120.435C751.808 122.406 772.301 121.99 792.101 120.268C887.121 112.011 981.932 97.9442 1077.91 102.069C1097.71 102.915 1118.28 104.602 1134.41 110.705C1150.54 116.807 1160.53 128.568 1152.28 138.08C1148.62 142.306 1140.84 145.861 1132.02 145.818C1123.21 145.774 1114.83 141.058 1117.47 136.612C1120.1 132.167 1130.47 130.685 1139.28 130.217C1166.69 128.768 1194.38 130.141 1220.79 134.262C1253.29 139.372 1284.57 149.234 1301.39 164.732C1318.21 180.23 1316.77 201.882 1292.2 214.175" stroke="#DF3C59" stroke-width="2" stroke-miterlimit="10" stroke-linecap="round"/>
<path d="M228.543 217.635L199.245 233.469L179.404 224.176L207.911 207.656L228.543 217.635Z" fill="white"/>
<path d="M1286.57 202.911L1311.89 220.54L1291.43 229.468L1264.72 212.145L1286.57 202.911Z" fill="white"/>
</g>
<defs>
<clipPath id="clip0_223_874">
<rect width="1442" height="365" fill="white"/>
</clipPath>
</defs>
</svg>
