<svg width="66" height="66" viewBox="0 0 66 66" fill="none" xmlns="http://www.w3.org/2000/svg">
<g clip-path="url(#clip0_221_796)">
<path fill-rule="evenodd" clip-rule="evenodd" d="M33 61.875C21.6274 61.875 12.375 52.6226 12.375 41.25C12.375 30.6199 29.4071 7.54667 31.3479 4.95411C32.1276 3.91048 33.8724 3.91048 34.6521 4.95411C36.5929 7.54667 53.625 30.6199 53.625 41.25C53.625 52.6226 44.3726 61.875 33 61.875ZM46.9879 44.3561C47.4107 43.298 46.8951 42.0977 45.837 41.6749C44.7728 41.25 43.5786 41.7697 43.1578 42.8257C41.4872 47.0044 37.5004 49.7062 33 49.7062C31.8615 49.7062 30.9375 50.6282 30.9375 51.7687C30.9375 52.9072 31.8615 53.8312 33 53.8312C39.1999 53.8312 44.6903 50.1105 46.9879 44.3561Z" fill="#5E3FE3"/>
</g>
<defs>
<clipPath id="clip0_221_796">
<rect width="66" height="66" fill="white"/>
</clipPath>
</defs>
</svg>
