<svg width="40" height="41" viewBox="0 0 40 41" fill="none" xmlns="http://www.w3.org/2000/svg">
<g clip-path="url(#clip0_8_251)">
<path d="M34.1422 6.61759C30.3646 2.84008 25.3422 0.759766 20 0.759766C14.6577 0.759766 9.63532 2.84008 5.85782 6.61759C2.08032 10.3951 0 15.4175 0 20.7597C0 26.102 2.08032 31.1244 5.85782 34.9019C9.6354 38.6794 14.6578 40.7598 20 40.7598C25.3423 40.7598 30.3647 38.6794 34.1423 34.9019C37.9198 31.1244 40.0001 26.102 40.0001 20.7597C40.0001 15.4175 37.9197 10.3951 34.1422 6.61759ZM32.4818 33.2415C29.1477 36.5756 24.715 38.4117 20 38.4117C15.2849 38.4117 10.8522 36.5756 7.51814 33.2415C4.18419 29.9075 2.34807 25.4748 2.34807 20.7597C2.34807 16.0446 4.18419 11.6119 7.51822 8.27799C10.8522 4.94396 15.2849 3.10784 20 3.10784C24.715 3.10784 29.1477 4.94396 32.4818 8.27799C35.8158 11.612 37.6519 16.0447 37.6519 20.7598C37.6519 25.4749 35.8158 29.9075 32.4818 33.2415Z" fill="#5739C9"/>
<path d="M34.1976 19.5382H31.4273V16.7679C31.4273 16.1195 30.9016 15.5939 30.2532 15.5939C29.6049 15.5939 29.0792 16.1195 29.0792 16.7679V19.5382H26.2141C25.5657 19.5382 25.04 20.0639 25.04 20.7123C25.04 21.3607 25.5657 21.8863 26.2141 21.8863H29.0792V24.7515C29.0792 25.3999 29.6049 25.9256 30.2532 25.9256C30.9016 25.9256 31.4273 25.3999 31.4273 24.7515V21.8863H34.1976C34.846 21.8863 35.3716 21.3607 35.3716 20.7123C35.3716 20.0639 34.846 19.5382 34.1976 19.5382Z" fill="#5739C9"/>
<path d="M10.1041 12.8845H7.23947C6.59109 12.8845 6.06543 13.4102 6.06543 14.0586C6.06543 14.7069 6.59109 15.2326 7.23947 15.2326H8.93008V27.4609C8.93008 28.1093 9.45574 28.6349 10.1041 28.6349C10.7525 28.6349 11.2782 28.1093 11.2782 27.4609V14.0586C11.2782 13.4102 10.7525 12.8845 10.1041 12.8845Z" fill="#5739C9"/>
<path d="M21.6392 19.5267C22.2601 18.8221 22.638 17.8983 22.638 16.8874C22.638 14.6834 20.845 12.8904 18.641 12.8904C16.4369 12.8904 14.6438 14.6834 14.6438 16.8874C14.6438 17.8983 15.0218 18.8221 15.6428 19.5267C14.4012 20.4468 13.5947 21.9222 13.5947 23.5827C13.5947 26.3653 15.8585 28.6291 18.6411 28.6291C21.4236 28.6291 23.6874 26.3653 23.6874 23.5827C23.6873 21.9223 22.8807 20.4469 21.6392 19.5267ZM16.9919 16.8875C16.9919 15.9783 17.7316 15.2385 18.641 15.2385C19.5502 15.2385 20.2899 15.9783 20.2899 16.8875C20.2899 17.7968 19.5502 18.5366 18.641 18.5366C17.7316 18.5366 16.9919 17.7968 16.9919 16.8875ZM18.641 26.281C17.1532 26.281 15.9427 25.0705 15.9427 23.5827C15.9427 22.095 17.1532 20.8846 18.641 20.8846C20.1288 20.8846 21.3392 22.095 21.3392 23.5827C21.3392 25.0705 20.1288 26.281 18.641 26.281Z" fill="#5739C9"/>
</g>
<defs>
<clipPath id="clip0_8_251">
<rect width="40" height="40" fill="white" transform="translate(0 0.759766)"/>
</clipPath>
</defs>
</svg>
