<svg width="41" height="41" viewBox="0 0 41 41" fill="none" xmlns="http://www.w3.org/2000/svg">
<path d="M34.9731 21.0335L37.2419 18.7647C41.3632 14.6433 41.3637 7.97263 37.2419 3.85091C33.1207 -0.270342 26.45 -0.270889 22.3282 3.85091C21.4486 4.73044 4.22207 21.9571 3.42418 22.755C-0.697149 26.8763 -0.697617 33.547 3.42418 37.6687C7.54535 41.79 14.2161 41.7905 18.3379 37.6687L20.6068 35.3999C22.4205 38.5961 25.855 40.7575 29.785 40.7575C35.5999 40.7575 40.3307 36.0267 40.3307 30.2118C40.3307 26.2817 38.1693 22.8472 34.9731 21.0335ZM19.2394 30.2118C19.2394 31.1989 19.3761 32.1547 19.6309 33.0615L16.6808 36.0116C13.4754 39.2169 8.28707 39.2174 5.08129 36.0116C1.8759 32.8063 1.87543 27.6179 5.08129 24.4121L13.6332 15.8601L21.4857 23.7125C20.0791 25.5048 19.2394 27.7621 19.2394 30.2118ZM28.6132 38.3299C24.6436 37.7596 21.5829 34.3367 21.5829 30.2118C21.5829 26.0868 24.6436 22.664 28.6132 22.0936V38.3299ZM23.1272 22.04L15.2903 14.203L23.9853 5.50802C27.1907 2.3027 32.379 2.30224 35.5848 5.50802C38.7902 8.71333 38.7907 13.9018 35.5848 17.1075L32.6347 20.0576C31.7279 19.8028 30.7721 19.6661 29.785 19.6661C27.2624 19.6661 24.9441 20.557 23.1272 22.04ZM30.9568 38.3299V22.0937C34.9264 22.664 37.9871 26.0869 37.9871 30.2118C37.9871 34.3367 34.9264 37.7596 30.9568 38.3299Z" fill="#5739C9"/>
</svg>
