<svg width="40" height="41" viewBox="0 0 40 41" fill="none" xmlns="http://www.w3.org/2000/svg">
<g clip-path="url(#clip0_8_241)">
<path d="M32.8906 23.1035C32.8906 18.9077 30.8434 14.972 27.4109 12.5562C27.1187 12.2853 26.8115 12.0333 26.4904 11.8019C27.5259 11.0635 28.2031 9.85359 28.2031 8.48773C28.2031 6.91258 27.3202 5.45344 25.954 4.77031C25.8401 4.7018 23.281 3.55531 20.8286 1.10297C20.6088 0.883281 20.3108 0.759766 20 0.759766C18.8658 0.759766 11.7667 0.759766 10.625 0.759766C9.97781 0.759766 9.45312 1.28445 9.45312 1.93164V15.9713C9.45312 17.1173 10.0135 18.1938 10.9523 18.8512C11.0548 18.9229 11.1606 18.9883 11.2689 19.0481C10.8534 20.2473 10.2412 21.3804 9.60016 22.5645C8.37563 24.8266 7.10938 27.1657 7.10938 30.2129C7.10938 32.2745 7.74969 33.8355 8.36891 35.3451C8.92648 36.7044 9.45312 37.9883 9.45312 39.5879C9.45312 40.2351 9.97781 40.7598 10.625 40.7598H27.0312C27.6784 40.7598 28.2031 40.2351 28.2031 39.5879C28.2031 37.6495 27.6904 35.8016 26.7101 34.1727C30.4139 31.8917 32.8906 27.7833 32.8906 23.1035ZM16.4844 3.10352H19.5224C22.0912 5.55875 24.4116 6.57297 24.9057 6.86656C25.4672 7.14734 25.8594 7.81398 25.8594 8.48773C25.8594 9.43898 25.0855 10.2129 24.1342 10.2129H22.9453C21.0791 9.79805 19.2182 9.95547 17.5484 10.5632L16.4844 10.9504V3.10352ZM11.7969 3.10352H14.1406V12.6241C14.1406 13.436 14.9491 14.0035 15.7133 13.7252L18.35 12.7655C20.2988 12.0563 22.4055 12.2037 24.1966 13.1318L13.3695 17.0725C13.0052 17.2051 12.6142 17.1536 12.2966 16.9312C11.979 16.7088 11.7969 16.3589 11.7969 15.9713V3.10352ZM20 33.7285C19.3528 33.7285 18.8281 34.2532 18.8281 34.9004C18.8281 35.5476 19.3528 36.0723 20 36.0723C21.6199 36.0723 23.1706 35.7692 24.6002 35.218C25.2179 36.1936 25.6163 37.2752 25.7776 38.416H11.7264C11.5436 36.9087 11.0337 35.6656 10.5373 34.4557C9.97977 33.0964 9.45312 31.8125 9.45312 30.2129C9.45312 27.7594 10.5257 25.7779 11.6613 23.6802C12.3853 22.3427 13.129 20.9662 13.6111 19.4271C13.8002 19.392 13.9876 19.3418 14.1712 19.2749L26.4912 14.7909C29.0412 16.7852 30.5469 19.849 30.5469 23.1035C30.5469 28.9622 25.8155 33.7285 20 33.7285Z" fill="#5739C9"/>
</g>
<defs>
<clipPath id="clip0_8_241">
<rect width="40" height="40" fill="white" transform="translate(0 0.759766)"/>
</clipPath>
</defs>
</svg>
