<svg width="41" height="41" viewBox="0 0 41 41" fill="none" xmlns="http://www.w3.org/2000/svg">
<g clip-path="url(#clip0_8_293)">
<path d="M10.3608 18.7296C15.5639 18.7296 20.5249 14.1616 21.1499 8.95328C21.7525 3.93087 18.0834 0.218005 13.0214 0.824772C8.19977 1.40342 3.88959 5.71133 3.31071 10.5355C2.73714 15.3154 5.99464 18.7297 10.3608 18.7296ZM5.63771 10.8148C6.08776 7.06353 9.55041 3.60182 13.3007 3.15169C16.8291 2.72843 19.247 5.14159 18.8229 8.674C18.3729 12.4253 14.9102 15.8869 11.1599 16.3371C7.63175 16.7605 5.21366 14.347 5.63771 10.8148Z" fill="#5739C9"/>
<path d="M11.9014 13.4436C13.661 12.8201 15.2814 11.2423 15.9333 9.41299C16.1506 8.80341 15.8326 8.13305 15.2229 7.91571C14.6137 7.69854 13.943 8.01641 13.7257 8.62607C13.326 9.74727 12.2617 10.8294 11.1187 11.2345C10.5086 11.4506 10.1893 12.1204 10.4055 12.7303C10.6217 13.3405 11.2916 13.6597 11.9014 13.4436Z" fill="#5739C9"/>
<path d="M13.0215 22.8549C8.19977 23.4336 3.88967 27.7415 3.31071 32.5657C2.73714 37.3456 5.99464 40.7599 10.3608 40.7598C15.5639 40.7598 20.5249 36.1918 21.1499 30.9835C21.7525 25.9613 18.0835 22.248 13.0215 22.8549ZM18.8229 30.7043C18.3729 34.4556 14.9102 37.9172 11.1599 38.3673C7.63191 38.791 5.21366 36.3773 5.63771 32.845C6.08776 29.0938 9.55041 25.6321 13.3007 25.1819C16.8291 24.7587 19.247 27.1718 18.8229 30.7043Z" fill="#5739C9"/>
<path d="M15.2229 29.946C14.6137 29.7288 13.943 30.0467 13.7257 30.6563C13.326 31.7775 12.2617 32.8597 11.1187 33.2647C10.5086 33.4809 10.1893 34.1506 10.4055 34.7606C10.6217 35.3706 11.2915 35.6898 11.9014 35.4738C13.6609 34.8503 15.2813 33.2725 15.9332 31.4432C16.1506 30.8337 15.8326 30.1633 15.2229 29.946Z" fill="#5739C9"/>
<path d="M38.0245 21.8631C37.4458 17.0414 33.1379 12.7313 28.3137 12.1524C23.2804 11.5481 19.579 15.2293 20.1852 20.2809C20.7638 25.1026 25.0716 29.4127 29.8959 29.9916C34.9293 30.5957 38.6307 26.915 38.0245 21.8631ZM30.1752 27.6647C26.424 27.2145 22.9622 23.752 22.5122 20.0017C22.0884 16.4705 24.5047 14.0558 28.0345 14.4794C31.7856 14.9296 35.2475 18.3921 35.6975 22.1424C36.121 25.6703 33.7082 28.0885 30.1752 27.6647Z" fill="#5739C9"/>
<path d="M30.2161 22.5622C29.0717 22.1567 28.0081 21.0736 27.6089 19.9538C27.3916 19.344 26.721 19.0264 26.1117 19.2435C25.5021 19.4608 25.184 20.1311 25.4014 20.7407C26.0404 22.5337 27.635 24.134 29.4331 24.7712C30.0433 24.9875 30.7129 24.668 30.9291 24.0582C31.1453 23.4481 30.8261 22.7784 30.2161 22.5622Z" fill="#5739C9"/>
</g>
<defs>
<clipPath id="clip0_8_293">
<rect width="40" height="40" fill="white" transform="translate(0.666992 0.759766)"/>
</clipPath>
</defs>
</svg>
