<svg width="38" height="41" viewBox="0 0 38 41" fill="none" xmlns="http://www.w3.org/2000/svg">
<path d="M18.6672 5.7052C18.6671 5.7052 18.6671 5.7052 18.6672 5.7052C13.6269 5.7052 8.89811 7.95027 5.3517 12.0268C4.9674 12.4686 4.9674 13.1259 5.3517 13.5676L11.7475 20.9195C11.9705 21.1757 12.2935 21.3229 12.6331 21.3229H24.7013C25.041 21.3229 25.3639 21.1757 25.5869 20.9195L31.9827 13.5676C32.367 13.1259 32.367 12.4685 31.9827 12.0268C28.4362 7.95027 23.7073 5.70528 18.6672 5.7052ZM17.9774 18.9753L18.6671 17.4814L19.3567 18.9753H17.9774ZM24.1666 18.9753H21.9425L19.7328 14.1891C19.5409 13.7735 19.1249 13.5074 18.6671 13.5074C18.2093 13.5074 17.7932 13.7735 17.6014 14.1891L15.3917 18.9753H13.1677L7.81181 12.8189C8.48094 12.1319 9.19093 11.5148 9.9348 10.9698L10.9454 12.182C11.1775 12.4605 11.5113 12.6042 11.8475 12.6042C12.1126 12.6042 12.3791 12.5149 12.5985 12.3319C13.0964 11.9168 13.1636 11.1767 12.7485 10.6788L11.9462 9.71635C13.6845 8.80917 15.5564 8.25944 17.4933 8.10114V9.54678C17.4933 10.195 18.0188 10.7206 18.6671 10.7206C19.3153 10.7206 19.8409 10.195 19.8409 9.54678V8.10114C21.7778 8.25944 23.6497 8.80917 25.388 9.71635L24.5856 10.6788C24.1705 11.1767 24.2377 11.9169 24.7356 12.3319C24.9552 12.5149 25.2216 12.6042 25.4866 12.6042C25.8229 12.6042 26.1566 12.4604 26.3888 12.182L27.3994 10.9698C28.1432 11.5148 28.8532 12.1319 29.5223 12.8189L24.1666 18.9753Z" fill="#5739C9"/>
<path d="M35.1289 3.59595C33.504 1.79348 31.1803 0.759766 28.7536 0.759766H8.58002C6.15341 0.759766 3.82978 1.79348 2.20494 3.59588C0.580102 5.39827 -0.207902 7.81635 0.0428198 10.2301L2.4156 33.0638C2.8715 37.4512 6.5417 40.7598 10.9528 40.7598H26.3809C30.7919 40.7598 34.4622 37.4512 34.9181 33.0638L37.2908 10.2301C37.5416 7.81643 36.7535 5.39835 35.1289 3.59595ZM34.9558 9.98739L32.5831 32.8211C32.2519 36.0085 29.5854 38.4122 26.3809 38.4122H19.8407V31.3719C19.8407 30.7236 19.3151 30.1981 18.6669 30.1981C18.0186 30.1981 17.4931 30.7236 17.4931 31.3719V38.4122H10.9528C7.7482 38.4122 5.08182 36.0086 4.75058 32.8211L2.37788 9.98739C2.19563 8.23383 2.76812 6.47722 3.94856 5.16774C5.12901 3.85833 6.81707 3.10734 8.58002 3.10734H28.7536C30.5166 3.10734 32.2047 3.85833 33.3852 5.16781C34.5656 6.47722 35.138 8.23391 34.9558 9.98739Z" fill="#5739C9"/>
</svg>
