<svg width="41" height="41" viewBox="0 0 41 41" fill="none" xmlns="http://www.w3.org/2000/svg">
<g clip-path="url(#clip0_8_279)">
<path d="M16.1429 33.3873L36.6005 12.9296C37.1441 12.3861 37.3866 11.61 37.2494 10.8534L36.4266 6.32324L39.9896 2.76027C40.4473 2.30262 40.4473 1.56066 39.9896 1.10301C39.532 0.645352 38.79 0.645352 38.3323 1.10301L34.7695 4.66598L30.2393 3.84324C29.4827 3.70598 28.7067 3.94848 28.1632 4.49199L7.70547 24.9498L7.1543 24.3986C6.69672 23.941 5.95469 23.941 5.49703 24.3986C5.03938 24.8563 5.03938 25.5982 5.49703 26.0559L7.81648 28.3754L2.85203 33.3398L2.33352 32.8213C1.87594 32.3636 1.13391 32.3636 0.67625 32.8213C0.218594 33.2789 0.218594 34.0209 0.67625 34.4786L6.61422 40.4165C6.84305 40.6454 7.14297 40.7598 7.44281 40.7598C7.74266 40.7598 8.04266 40.6454 8.27141 40.4165C8.72906 39.9589 8.72906 39.2169 8.27141 38.7593L7.75289 38.2407L12.7173 33.2763L15.0368 35.5957C15.2656 35.8246 15.5655 35.939 15.8654 35.939C16.1652 35.939 16.4652 35.8246 16.694 35.5957C17.1516 35.1381 17.1516 34.3961 16.694 33.9385L16.1429 33.3873ZM29.8205 6.14934L34.156 6.93668L34.9434 11.2723L33.745 12.4707L28.6221 7.34762L29.8205 6.14934ZM26.9648 9.00488L32.0877 14.1279L28.9582 17.2574L27.0834 15.3826C26.6259 14.925 25.8838 14.925 25.4262 15.3826C24.9685 15.8403 24.9685 16.5822 25.4262 17.0399L27.3009 18.9146L25.767 20.4486L23.8922 18.5738C23.4347 18.1161 22.6927 18.1161 22.2349 18.5738C21.7773 19.0314 21.7773 19.7734 22.2349 20.2311L24.1097 22.1059L22.5758 23.6399L20.7009 21.765C20.2434 21.3074 19.5013 21.3074 19.0437 21.765C18.586 22.2227 18.586 22.9646 19.0437 23.4223L20.9185 25.2971L19.3846 26.8311L17.5098 24.9562C17.0521 24.4986 16.3102 24.4986 15.8525 24.9562C15.3948 25.4139 15.3948 26.1558 15.8525 26.6135L17.7273 28.4883L14.4856 31.73L9.36273 26.6071L26.9648 9.00488ZM6.0957 36.5834L4.50938 34.9971L9.47375 30.0327L11.0601 31.619L6.0957 36.5834Z" fill="#5739C9"/>
<path d="M37.8235 21.8452C37.625 21.4482 37.2193 21.1974 36.7754 21.1974C36.3315 21.1974 35.9257 21.4482 35.7273 21.8452L33.5963 26.1073C33.0413 27.2172 33.0995 28.51 33.7518 29.5657C34.4042 30.6213 35.5345 31.2515 36.7754 31.2515C38.0163 31.2515 39.1467 30.6213 39.7991 29.5657C40.4515 28.5101 40.5096 27.2172 39.9546 26.1073L37.8235 21.8452ZM37.8053 28.3335C37.6986 28.5061 37.3846 28.9077 36.7753 28.9077C36.1661 28.9077 35.8522 28.5061 35.7454 28.3335C35.6388 28.1608 35.4199 27.7004 35.6924 27.1554L36.7753 24.9897L37.8582 27.1554C38.1308 27.7004 37.9121 28.1608 37.8053 28.3335Z" fill="#5739C9"/>
</g>
<defs>
<clipPath id="clip0_8_279">
<rect width="40" height="40" fill="white" transform="translate(0.333008 0.759766)"/>
</clipPath>
</defs>
</svg>
